<?xml version="1.0" encoding="UTF-8" standalone="yes"?><svg xmlns="http://www.w3.org/2000/svg" xmlns:xlink="http://www.w3.org/1999/xlink" height="377pt" style="width:1137px;height:377px;" version="1.1" viewBox="0 0 1137 377" width="1137pt"><defs><filter height="300%" id="f1" width="300%" x="-1" y="-1"><feGaussianBlur result="blurOut" stdDeviation="2.0"/><feColorMatrix in="blurOut" result="blurOut2" type="matrix" values="0 0 0 0 0 0 0 0 0 0 0 0 0 0 0 0 0 0 .4 0"/><feOffset dx="4.0" dy="4.0" in="blurOut2" result="blurOut3"/><feBlend in="SourceGraphic" in2="blurOut3" mode="normal"/></filter></defs><g><polygon fill="#FFFFFF" filter="url(#f1)" points="376,98,521,98,528,120.2969,734,120.2969,734,214,376,214,376,98" style="stroke: #000000; stroke-width: 2.0;"/><line style="stroke: #000000; stroke-width: 2.0;" x1="376" x2="528" y1="120.2969" y2="120.2969"/><text fill="#000000" font-family="sans-serif" font-size="14" font-weight="bold" lengthAdjust="spacingAndGlyphs" textLength="139" x="379" y="113.9951">Named interfaces</text><polygon fill="#FFFFFF" filter="url(#f1)" points="308,254,444,254,451,276.2969,985,276.2969,985,370,308,370,308,254" style="stroke: #000000; stroke-width: 2.0;"/><line style="stroke: #000000; stroke-width: 2.0;" x1="308" x2="451" y1="276.2969" y2="276.2969"/><text fill="#000000" font-family="sans-serif" font-size="14" font-weight="bold" lengthAdjust="spacingAndGlyphs" textLength="130" x="311" y="269.9951">Implementations</text><rect fill="#FEFECE" filter="url(#f1)" height="48" style="stroke: #A80036; stroke-width: 1.5;" width="112" x="598" y="142"/><ellipse cx="613" cy="158" fill="#B4A7E5" rx="11" ry="11" style="stroke: #A80036; stroke-width: 1.0;"/><path d="M613.9531,154.7813 L613.9531,161.2969 L615.6719,161.2969 C616.125,161.2969 616.2656,161.3281 616.4375,161.4531 C616.6719,161.625 616.7813,161.875 616.7813,162.1563 C616.7813,162.7188 616.4219,163 615.6719,163 L610.5313,163 C610.125,163 609.9219,162.9531 609.7656,162.8281 C609.5469,162.6719 609.4063,162.4063 609.4063,162.1563 C609.4063,161.8594 609.5625,161.5781 609.8125,161.4219 C609.9688,161.3125 610.0938,161.2969 610.5313,161.2969 L612.25,161.2969 L612.25,154.7813 L610.5313,154.7813 C610.1094,154.7813 609.9219,154.75 609.7656,154.6406 C609.5469,154.4688 609.4063,154.2188 609.4063,153.9375 C609.4063,153.6563 609.5625,153.3594 609.8125,153.2031 C609.9688,153.1094 610.0938,153.0938 610.5313,153.0938 L615.6719,153.0938 C616.125,153.0938 616.2656,153.125 616.4375,153.2344 C616.6719,153.4063 616.7813,153.6719 616.7813,153.9375 C616.7813,154.2344 616.6406,154.5156 616.375,154.6719 C616.25,154.75 616.0625,154.7813 615.6719,154.7813 Z "/><text fill="#000000" font-family="sans-serif" font-size="12" font-style="italic" lengthAdjust="spacingAndGlyphs" textLength="80" x="627" y="162.1543">UUIDHandler</text><line style="stroke: #A80036; stroke-width: 1.5;" x1="599" x2="709" y1="174" y2="174"/><line style="stroke: #A80036; stroke-width: 1.5;" x1="599" x2="709" y1="182" y2="182"/><rect fill="#FEFECE" filter="url(#f1)" height="48" style="stroke: #A80036; stroke-width: 1.5;" width="144" x="419" y="142"/><ellipse cx="434" cy="158" fill="#B4A7E5" rx="11" ry="11" style="stroke: #A80036; stroke-width: 1.0;"/><path d="M434.9531,154.7813 L434.9531,161.2969 L436.6719,161.2969 C437.125,161.2969 437.2656,161.3281 437.4375,161.4531 C437.6719,161.625 437.7813,161.875 437.7813,162.1563 C437.7813,162.7188 437.4219,163 436.6719,163 L431.5313,163 C431.125,163 430.9219,162.9531 430.7656,162.8281 C430.5469,162.6719 430.4063,162.4063 430.4063,162.1563 C430.4063,161.8594 430.5625,161.5781 430.8125,161.4219 C430.9688,161.3125 431.0938,161.2969 431.5313,161.2969 L433.25,161.2969 L433.25,154.7813 L431.5313,154.7813 C431.1094,154.7813 430.9219,154.75 430.7656,154.6406 C430.5469,154.4688 430.4063,154.2188 430.4063,153.9375 C430.4063,153.6563 430.5625,153.3594 430.8125,153.2031 C430.9688,153.1094 431.0938,153.0938 431.5313,153.0938 L436.6719,153.0938 C437.125,153.0938 437.2656,153.125 437.4375,153.2344 C437.6719,153.4063 437.7813,153.6719 437.7813,153.9375 C437.7813,154.2344 437.6406,154.5156 437.375,154.6719 C437.25,154.75 437.0625,154.7813 436.6719,154.7813 Z "/><text fill="#000000" font-family="sans-serif" font-size="12" font-style="italic" lengthAdjust="spacingAndGlyphs" textLength="112" x="448" y="162.1543">SequenceHandler</text><line style="stroke: #A80036; stroke-width: 1.5;" x1="420" x2="562" y1="174" y2="174"/><line style="stroke: #A80036; stroke-width: 1.5;" x1="420" x2="562" y1="182" y2="182"/><rect fill="#FEFECE" filter="url(#f1)" height="48" style="stroke: #A80036; stroke-width: 1.5;" width="152" x="790" y="298"/><ellipse cx="805" cy="314" fill="#ADD1B2" rx="11" ry="11" style="stroke: #A80036; stroke-width: 1.0;"/><path d="M807.3438,309.6719 L807.5156,309.75 C807.7344,309.4375 807.9375,309.3438 808.2344,309.3438 C808.5313,309.3438 808.8125,309.4844 808.9688,309.75 C809.0625,309.9063 809.0781,310.0313 809.0781,310.4688 L809.0781,311.8906 C809.0781,312.3125 809.0469,312.5 808.9375,312.6563 C808.7656,312.875 808.5,313.0156 808.2344,313.0156 C808.0156,313.0156 807.7813,312.9063 807.6406,312.7656 C807.5,312.6406 807.4688,312.5156 807.4063,312.1094 C807.3125,311.7031 807.1406,311.4844 806.6563,311.2031 C806.1875,310.9531 805.5781,310.7969 805,310.7969 C803.2656,310.7969 802.0156,312.1094 802.0156,313.8906 L802.0156,314.9844 C802.0156,316.6875 803.3125,317.7813 805.3594,317.7813 C806.125,317.7813 806.8125,317.6563 807.2344,317.3906 C807.4219,317.2969 807.4219,317.2969 807.875,316.8125 C808.0625,316.625 808.2656,316.5469 808.4844,316.5469 C808.9531,316.5469 809.3438,316.9375 809.3438,317.3906 C809.3438,317.7813 809.0156,318.2344 808.4375,318.6406 C807.6875,319.1875 806.5313,319.4844 805.3125,319.4844 C802.4219,319.4844 800.3125,317.5938 800.3125,315.0156 L800.3125,313.8906 C800.3125,311.1719 802.3125,309.0938 804.9375,309.0938 C805.8125,309.0938 806.4063,309.2344 807.3438,309.6719 Z "/><text fill="#000000" font-family="sans-serif" font-size="12" lengthAdjust="spacingAndGlyphs" textLength="120" x="819" y="318.1543">SimpleUUIDHandler</text><line style="stroke: #A80036; stroke-width: 1.5;" x1="791" x2="941" y1="330" y2="330"/><line style="stroke: #A80036; stroke-width: 1.5;" x1="791" x2="941" y1="338" y2="338"/><rect fill="#FEFECE" filter="url(#f1)" height="48" style="stroke: #A80036; stroke-width: 1.5;" width="203" x="551.75" y="298"/><ellipse cx="566.75" cy="314" fill="#ADD1B2" rx="11" ry="11" style="stroke: #A80036; stroke-width: 1.0;"/><path d="M569.0938,309.6719 L569.2656,309.75 C569.4844,309.4375 569.6875,309.3438 569.9844,309.3438 C570.2813,309.3438 570.5625,309.4844 570.7188,309.75 C570.8125,309.9063 570.8281,310.0313 570.8281,310.4688 L570.8281,311.8906 C570.8281,312.3125 570.7969,312.5 570.6875,312.6563 C570.5156,312.875 570.25,313.0156 569.9844,313.0156 C569.7656,313.0156 569.5313,312.9063 569.3906,312.7656 C569.25,312.6406 569.2188,312.5156 569.1563,312.1094 C569.0625,311.7031 568.8906,311.4844 568.4063,311.2031 C567.9375,310.9531 567.3281,310.7969 566.75,310.7969 C565.0156,310.7969 563.7656,312.1094 563.7656,313.8906 L563.7656,314.9844 C563.7656,316.6875 565.0625,317.7813 567.1094,317.7813 C567.875,317.7813 568.5625,317.6563 568.9844,317.3906 C569.1719,317.2969 569.1719,317.2969 569.625,316.8125 C569.8125,316.625 570.0156,316.5469 570.2344,316.5469 C570.7031,316.5469 571.0938,316.9375 571.0938,317.3906 C571.0938,317.7813 570.7656,318.2344 570.1875,318.6406 C569.4375,319.1875 568.2813,319.4844 567.0625,319.4844 C564.1719,319.4844 562.0625,317.5938 562.0625,315.0156 L562.0625,313.8906 C562.0625,311.1719 564.0625,309.0938 566.6875,309.0938 C567.5625,309.0938 568.1563,309.2344 569.0938,309.6719 Z "/><text fill="#000000" font-family="sans-serif" font-size="12" lengthAdjust="spacingAndGlyphs" textLength="171" x="580.75" y="318.1543">InMemorySequenceHandler</text><line style="stroke: #A80036; stroke-width: 1.5;" x1="552.75" x2="753.75" y1="330" y2="330"/><line style="stroke: #A80036; stroke-width: 1.5;" x1="552.75" x2="753.75" y1="338" y2="338"/><rect fill="#FEFECE" filter="url(#f1)" height="48" style="stroke: #A80036; stroke-width: 1.5;" width="184" x="332" y="298"/><ellipse cx="347" cy="314" fill="#ADD1B2" rx="11" ry="11" style="stroke: #A80036; stroke-width: 1.0;"/><path d="M349.3438,309.6719 L349.5156,309.75 C349.7344,309.4375 349.9375,309.3438 350.2344,309.3438 C350.5313,309.3438 350.8125,309.4844 350.9688,309.75 C351.0625,309.9063 351.0781,310.0313 351.0781,310.4688 L351.0781,311.8906 C351.0781,312.3125 351.0469,312.5 350.9375,312.6563 C350.7656,312.875 350.5,313.0156 350.2344,313.0156 C350.0156,313.0156 349.7813,312.9063 349.6406,312.7656 C349.5,312.6406 349.4688,312.5156 349.4063,312.1094 C349.3125,311.7031 349.1406,311.4844 348.6563,311.2031 C348.1875,310.9531 347.5781,310.7969 347,310.7969 C345.2656,310.7969 344.0156,312.1094 344.0156,313.8906 L344.0156,314.9844 C344.0156,316.6875 345.3125,317.7813 347.3594,317.7813 C348.125,317.7813 348.8125,317.6563 349.2344,317.3906 C349.4219,317.2969 349.4219,317.2969 349.875,316.8125 C350.0625,316.625 350.2656,316.5469 350.4844,316.5469 C350.9531,316.5469 351.3438,316.9375 351.3438,317.3906 C351.3438,317.7813 351.0156,318.2344 350.4375,318.6406 C349.6875,319.1875 348.5313,319.4844 347.3125,319.4844 C344.4219,319.4844 342.3125,317.5938 342.3125,315.0156 L342.3125,313.8906 C342.3125,311.1719 344.3125,309.0938 346.9375,309.0938 C347.8125,309.0938 348.4063,309.2344 349.3438,309.6719 Z "/><text fill="#000000" font-family="sans-serif" font-size="12" lengthAdjust="spacingAndGlyphs" textLength="152" x="361" y="318.1543">OracleSequenceHandler</text><line style="stroke: #A80036; stroke-width: 1.5;" x1="333" x2="515" y1="330" y2="330"/><line style="stroke: #A80036; stroke-width: 1.5;" x1="333" x2="515" y1="338" y2="338"/><rect fill="#FEFECE" filter="url(#f1)" height="60.8047" style="stroke: #A80036; stroke-width: 1.5;" width="205" x="470.75" y="8.5"/><ellipse cx="520.5" cy="24.5" fill="#B4A7E5" rx="11" ry="11" style="stroke: #A80036; stroke-width: 1.0;"/><path d="M521.4531,21.2813 L521.4531,27.7969 L523.1719,27.7969 C523.625,27.7969 523.7656,27.8281 523.9375,27.9531 C524.1719,28.125 524.2813,28.375 524.2813,28.6563 C524.2813,29.2188 523.9219,29.5 523.1719,29.5 L518.0313,29.5 C517.625,29.5 517.4219,29.4531 517.2656,29.3281 C517.0469,29.1719 516.9063,28.9063 516.9063,28.6563 C516.9063,28.3594 517.0625,28.0781 517.3125,27.9219 C517.4688,27.8125 517.5938,27.7969 518.0313,27.7969 L519.75,27.7969 L519.75,21.2813 L518.0313,21.2813 C517.6094,21.2813 517.4219,21.25 517.2656,21.1406 C517.0469,20.9688 516.9063,20.7188 516.9063,20.4375 C516.9063,20.1563 517.0625,19.8594 517.3125,19.7031 C517.4688,19.6094 517.5938,19.5938 518.0313,19.5938 L523.1719,19.5938 C523.625,19.5938 523.7656,19.625 523.9375,19.7344 C524.1719,19.9063 524.2813,20.1719 524.2813,20.4375 C524.2813,20.7344 524.1406,21.0156 523.875,21.1719 C523.75,21.25 523.5625,21.2813 523.1719,21.2813 Z "/><text fill="#000000" font-family="sans-serif" font-size="12" font-style="italic" lengthAdjust="spacingAndGlyphs" textLength="97" x="541" y="28.6543">IdentityHandler</text><line style="stroke: #A80036; stroke-width: 1.5;" x1="471.75" x2="674.75" y1="40.5" y2="40.5"/><line style="stroke: #A80036; stroke-width: 1.5;" x1="471.75" x2="674.75" y1="48.5" y2="48.5"/><text fill="#000000" font-family="sans-serif" font-size="11" lengthAdjust="spacingAndGlyphs" textLength="193" x="476.75" y="62.7104">ID handle(E, Map&lt;String, String&gt;)</text><polygon fill="#FBFB77" filter="url(#f1)" points="133,19,133,59.2656,435,59.2656,435,29,425,19,133,19" style="stroke: #A80036; stroke-width: 1.0;"/><polygon fill="#FBFB77" points="133,19,133,59.2656,435,59.2656,435,43,470.512,39,435,35,435,29,425,19,133,19" style="stroke: #A80036; stroke-width: 1.0;"/><line style="stroke: #A80036; stroke-width: 1.0;" x1="425" x2="425" y1="19" y2="29"/><line style="stroke: #A80036; stroke-width: 1.0;" x1="435" x2="425" y1="29" y2="29"/><text fill="#000000" font-family="sans-serif" font-size="13" lengthAdjust="spacingAndGlyphs" textLength="281" x="139" y="36.0669">Super interface of all SEED Identity handlers</text><text fill="#000000" font-family="sans-serif" font-size="13" lengthAdjust="spacingAndGlyphs" textLength="211" x="139" y="51.1997">(and any intermediate interface).</text><polygon fill="#FBFB77" filter="url(#f1)" points="6,286.5,6,357.0313,284,357.0313,284,296.5,274,286.5,6,286.5" style="stroke: #A80036; stroke-width: 1.0;"/><polygon fill="#FBFB77" points="6,286.5,6,357.0313,284,357.0313,284,296.5,274,286.5,202.792,286.5,376.031,172.135,194.792,286.5,6,286.5" style="stroke: #A80036; stroke-width: 1.0;"/><line style="stroke: #A80036; stroke-width: 1.0;" x1="274" x2="274" y1="286.5" y2="296.5"/><line style="stroke: #A80036; stroke-width: 1.0;" x1="284" x2="274" y1="296.5" y2="296.5"/><text fill="#000000" font-family="sans-serif" font-size="13" lengthAdjust="spacingAndGlyphs" textLength="248" x="12" y="303.5669">Level of abstraction for clarity purpose.</text><text fill="#000000" font-family="sans-serif" font-size="13" lengthAdjust="spacingAndGlyphs" textLength="240" x="12" y="318.6997">The name of the interface reveals the</text><text fill="#000000" font-family="sans-serif" font-size="13" lengthAdjust="spacingAndGlyphs" textLength="253" x="12" y="333.8325">expected behaviour (SequenceHandler,</text><text fill="#000000" font-family="sans-serif" font-size="13" lengthAdjust="spacingAndGlyphs" textLength="108" x="12" y="348.9653">UUIDHandler ...).</text><polygon fill="#FBFB77" filter="url(#f1)" points="825.75,130.5,825.75,201.0313,1128.75,201.0313,1128.75,140.5,1118.75,130.5,825.75,130.5" style="stroke: #A80036; stroke-width: 1.0;"/><polygon fill="#FBFB77" points="825.75,130.5,825.75,201.0313,973,201.0313,977,254.121,981,201.0313,1128.75,201.0313,1128.75,140.5,1118.75,130.5,825.75,130.5" style="stroke: #A80036; stroke-width: 1.0;"/><line style="stroke: #A80036; stroke-width: 1.0;" x1="1118.75" x2="1118.75" y1="130.5" y2="140.5"/><line style="stroke: #A80036; stroke-width: 1.0;" x1="1128.75" x2="1118.75" y1="140.5" y2="140.5"/><text fill="#000000" font-family="sans-serif" font-size="13" lengthAdjust="spacingAndGlyphs" textLength="278" x="831.75" y="147.5669">SEED provides at least one implementation</text><text fill="#000000" font-family="sans-serif" font-size="13" lengthAdjust="spacingAndGlyphs" textLength="263" x="831.75" y="162.6997">for every SEED "Named interfaces"- each</text><text fill="#000000" font-family="sans-serif" font-size="13" lengthAdjust="spacingAndGlyphs" textLength="267" x="831.75" y="177.8325">implementation is qualified by a @Named</text><text fill="#000000" font-family="sans-serif" font-size="13" lengthAdjust="spacingAndGlyphs" textLength="109" x="831.75" y="192.9653">class annotation.</text><path d="M542.503,86.49 C530.123,105.361 516.373,126.321 506.197,141.834 " fill="none" style="stroke: #A80036; stroke-width: 1.0;"/><polygon fill="none" points="536.744,82.507,553.567,69.623,548.45,90.186,536.744,82.507" style="stroke: #A80036; stroke-width: 1.0;"/><path d="M603.125,86.49 C615.354,105.361 628.936,126.321 638.988,141.834 " fill="none" style="stroke: #A80036; stroke-width: 1.0;"/><polygon fill="none" points="597.198,90.214,592.196,69.623,608.947,82.601,597.198,90.214" style="stroke: #A80036; stroke-width: 1.0;"/><path d="M713.968,200.226 C732.996,211.516 753.806,224.665 772,238 C797.285,256.533 823.867,280.478 842.286,297.8826 " fill="none" style="stroke: #A80036; stroke-width: 1.0;"/><polygon fill="none" points="710.191,206.127,696.415,190.027,717.225,194.022,710.191,206.127" style="stroke: #A80036; stroke-width: 1.0;"/><path d="M530.141,204.209 C560.806,233.359 602.508,273.001 628.581,297.787 " fill="none" style="stroke: #A80036; stroke-width: 1.0;"/><polygon fill="none" points="524.926,208.909,515.253,190.055,534.571,198.762,524.926,208.909" style="stroke: #A80036; stroke-width: 1.0;"/><path d="M472.859,208.698 C460.405,237.322 444.338,274.252 434.099,297.787 " fill="none" style="stroke: #A80036; stroke-width: 1.0;"/><polygon fill="none" points="466.572,205.602,480.969,190.055,479.409,211.187,466.572,205.602" style="stroke: #A80036; stroke-width: 1.0;"/></g></svg>