<?xml version="1.0" encoding="UTF-8" standalone="no"?>
<!-- Created with Inkscape (http://www.inkscape.org/) -->

<svg xmlns:dc="http://purl.org/dc/elements/1.1/" xmlns:cc="http://creativecommons.org/ns#" xmlns:rdf="http://www.w3.org/1999/02/22-rdf-syntax-ns#" xmlns:svg="http://www.w3.org/2000/svg" xmlns="http://www.w3.org/2000/svg" xmlns:sodipodi="http://sodipodi.sourceforge.net/DTD/sodipodi-0.dtd" xmlns:inkscape="http://www.inkscape.org/namespaces/inkscape" width="958.88867" height="145.32187" id="svg11686" version="1.1" inkscape:version="0.48.1 " sodipodi:docname="Nouveau document 9">
  <defs id="defs11688" />
  <sodipodi:namedview inkscape:document-units="mm" pagecolor="#ffffff" bordercolor="#666666" borderopacity="1.0" inkscape:pageopacity="0.0" inkscape:pageshadow="2" inkscape:zoom="0.43415836" inkscape:cx="452.95629" inkscape:cy="-143.59256" inkscape:current-layer="layer1" id="namedview11690" showgrid="false" units="mm" fit-margin-top="0" fit-margin-left="0" fit-margin-right="0" fit-margin-bottom="0" inkscape:window-width="1366" inkscape:window-height="716" inkscape:window-x="-8" inkscape:window-y="-8" inkscape:window-maximized="1" />
  <metadata id="metadata11692">
    <rdf:RDF>
      <cc:Work rdf:about="">
        <dc:format>image/svg+xml</dc:format>
        <dc:type rdf:resource="http://purl.org/dc/dcmitype/StillImage" />
        <dc:title></dc:title>
      </cc:Work>
    </rdf:RDF>
  </metadata>
  <g inkscape:label="Layer 1" inkscape:groupmode="layer" id="layer1" transform="translate(-37.04371,-75.180058)">
    <g id="g11565" transform="matrix(4.6751338,0,0,-4.6751338,412.4476,162.1656)">
      <path inkscape:connector-curvature="0" d="M 0,0 0,-5.667 C -1.48,-5.932 -2.943,-6.131 -4.851,-6.131 -8.377,-6.131 -11.368,-4.469 -11.368,-0.756 -11.368,2.133 -9.029,4.605 -4.524,4.605 -3.235,4.605 -1.927,4.448 -0.639,4.2 L -0.447,2.367 C -1.619,2.708 -2.855,2.957 -4.077,2.957 -6.897,2.957 -8.772,1.48 -8.772,-0.756 -8.772,-3.102 -7.137,-4.486 -4.851,-4.486 -3.905,-4.486 -3.149,-4.378 -2.461,-4.222 L -2.461,-1.598 -4.524,-1.598 -4.524,0" style="fill:#7c7f83;fill-opacity:1;fill-rule:nonzero;stroke:none" id="path11567" />
    </g>
    <g id="g11569" transform="matrix(4.6751338,0,0,-4.6751338,296.2004,149.15938)">
      <path inkscape:connector-curvature="0" d="M 0,0 -5.779,0 -5.779,-2.703 -0.74,-2.703 -0.74,-4.224 -5.779,-4.224 -5.779,-7.069 0,-7.069 0,-8.716 -8.376,-8.716 -8.376,1.646 0,1.646" style="fill:#7c7f83;fill-opacity:1;fill-rule:nonzero;stroke:none" id="path11571" />
    </g>
    <g id="g11573" transform="matrix(4.6751338,0,0,-4.6751338,460.09189,149.15938)">
      <path inkscape:connector-curvature="0" d="M 0,0 -5.78,0 -5.78,-2.703 -0.74,-2.703 -0.74,-4.224 -5.78,-4.224 -5.78,-7.069 0,-7.069 0,-8.716 -8.378,-8.716 -8.378,1.646 0,1.646" style="fill:#7c7f83;fill-opacity:1;fill-rule:nonzero;stroke:none" id="path11575" />
    </g>
    <g id="g11577" transform="matrix(4.6751338,0,0,-4.6751338,162.03809,165.34469)">
      <path inkscape:connector-curvature="0" d="M 0,0 -1.479,3.465 -3.182,0 0,0 z M -2.924,5.097 0.138,5.097 4.85,-5.268 2.099,-5.268 0.567,-1.647 -3.871,-1.647 -5.59,-5.268 -8.41,-5.268" style="fill:#7c7f83;fill-opacity:1;fill-rule:nonzero;stroke:none" id="path11579" />
    </g>
    <g id="g11581" transform="matrix(4.6751338,0,0,-4.6751338,314.74666,141.51553)">
      <path inkscape:connector-curvature="0" d="M 0,0 0,-6.323 C 0,-7.938 0.791,-8.903 2.753,-8.903 4.711,-8.903 5.504,-7.938 5.504,-6.323 L 5.504,0 8.1,0 8.1,-7.023 C 8.1,-9.447 5.934,-10.551 2.753,-10.551 -0.43,-10.551 -2.595,-9.447 -2.595,-7.023 L -2.595,0" style="fill:#7c7f83;fill-opacity:1;fill-rule:nonzero;stroke:none" id="path11583" />
    </g>
    <g id="g11585" transform="matrix(4.6751338,0,0,-4.6751338,477.78727,165.70935)">
      <path inkscape:connector-curvature="0" d="M 0,0 C 0,-2.345 1.633,-3.727 3.922,-3.727 6.209,-3.727 7.844,-2.345 7.844,0 7.844,2.347 6.209,3.715 3.922,3.715 1.633,3.715 0,2.347 0,0 M 10.44,0 C 10.44,-3.712 7.448,-5.375 3.922,-5.375 0.395,-5.375 -2.596,-3.712 -2.596,0 -2.596,3.715 0.395,5.362 3.922,5.362 7.448,5.362 10.44,3.715 10.44,0" style="fill:#7c7f83;fill-opacity:1;fill-rule:nonzero;stroke:none" id="path11587" />
    </g>
    <g id="g11589" transform="matrix(4.6751338,0,0,-4.6751338,526.25906,141.51553)">
      <path inkscape:connector-curvature="0" d="M 0,0 9.718,0 9.718,-1.647 6.157,-1.647 6.157,-10.364 3.56,-10.364 3.56,-1.647 0,-1.647" style="fill:#7c7f83;fill-opacity:1;fill-rule:nonzero;stroke:none" id="path11591" />
    </g>
    <path inkscape:connector-curvature="0" d="M 647.28892,189.96863 659.42557,189.96863 659.42557,141.51553 647.28892,141.51553 647.28892,189.96863 z" style="fill:#7c7f83;fill-opacity:1;fill-rule:nonzero;stroke:none" id="path11593" />
    <g id="g11595" transform="matrix(4.6751338,0,0,-4.6751338,664.74587,141.51553)">
      <path inkscape:connector-curvature="0" d="M 0,0 9.719,0 9.719,-1.647 6.158,-1.647 6.158,-10.364 3.562,-10.364 3.562,-1.647 0,-1.647" style="fill:#7c7f83;fill-opacity:1;fill-rule:nonzero;stroke:none" id="path11597" />
    </g>
    <g id="g11599" transform="matrix(4.6751338,0,0,-4.6751338,714.54072,141.51553)">
      <path inkscape:connector-curvature="0" d="M 0,0 5.246,0 C 7.479,0 9.011,-0.917 9.011,-2.625 9.011,-4.521 7.947,-5.221 6.109,-5.624 L 9.67,-10.364 6.861,-10.364 3.079,-4.687 C 3.403,-4.718 3.867,-4.722 4.108,-4.722 5.4,-4.722 6.551,-4.196 6.551,-2.967 6.551,-2.222 6.174,-1.523 4.76,-1.523 L 2.457,-1.523 2.457,-10.364 0,-10.364" style="fill:#7c7f83;fill-opacity:1;fill-rule:nonzero;stroke:none" id="path11601" />
    </g>
    <g id="g11603" transform="matrix(4.6751338,0,0,-4.6751338,773.39131,165.70935)">
      <path inkscape:connector-curvature="0" d="M 0,0 C 0,-2.345 1.634,-3.727 3.923,-3.727 6.211,-3.727 7.843,-2.345 7.843,0 7.843,2.347 6.211,3.715 3.923,3.715 1.634,3.715 0,2.347 0,0 M 10.439,0 C 10.439,-3.712 7.448,-5.375 3.923,-5.375 0.395,-5.375 -2.598,-3.712 -2.598,0 -2.598,3.715 0.395,5.362 3.923,5.362 7.448,5.362 10.439,3.715 10.439,0" style="fill:#7c7f83;fill-opacity:1;fill-rule:nonzero;stroke:none" id="path11605" />
    </g>
    <g id="g11607" transform="matrix(4.6751338,0,0,-4.6751338,868.27782,149.21548)">
      <path inkscape:connector-curvature="0" d="M 0,0 -5.78,0 -5.78,-2.704 -0.74,-2.704 -0.74,-4.227 -5.78,-4.227 -5.78,-7.069 0,-7.069 0,-8.717 -8.376,-8.717 -8.376,1.647 0,1.647 0,0 z M -6.865,4.724 -4.867,4.724 -4.867,3.2935 -6.865,3.2935 -6.865,4.724 z M -3.783,4.724 -1.79,4.724 -1.79,3.294 -3.783,3.294" style="fill:#7c7f83;fill-opacity:1;fill-rule:nonzero;stroke:none" id="path11609" />
    </g>
    <g id="g11611" transform="matrix(4.6751338,0,0,-4.6751338,877.0437,141.51553)">
      <path inkscape:connector-curvature="0" d="M 0,0 3.163,0 8.788,-7.799 8.824,-7.799 8.824,0 11.112,0 11.112,-10.364 7.998,-10.364 2.322,-2.687 2.285,-2.687 2.285,-10.364 0,-10.364" style="fill:#7c7f83;fill-opacity:1;fill-rule:nonzero;stroke:none" id="path11613" />
    </g>
    <g id="g11615" transform="matrix(4.6751338,0,0,-4.6751338,84.38879,177.75718)">
      <path inkscape:connector-curvature="0" d="M 0,0 0,-2.125 C 0.979,-2.554 2.115,-2.828 4.074,-2.828 6.662,-2.828 8.353,-1.323 8.353,0.561 8.353,2.628 6.241,3.173 4.5,3.773 3.322,4.182 2.306,4.534 2.306,5.344 2.306,6.03 3.038,6.456 4.213,6.456 5.147,6.456 6.621,6.121 7.66,5.333 L 7.66,7.21 C 6.284,7.751 5.17,8.03 3.958,8.03 2.405,8.03 1.239,7.604 0.522,6.831 0.078,6.352 -0.145,5.773 -0.145,5.104 -0.145,2.918 1.677,2.264 3.391,1.683 4.598,1.277 5.64,0.925 5.64,0.044 5.64,-0.239 5.544,-0.491 5.358,-0.686 5.047,-1.016 4.5,-1.181 3.734,-1.181 2.53,-1.181 1.477,-0.878 0,0" style="fill:#7c7f83;fill-opacity:1;fill-rule:evenodd;stroke:none" id="path11617" />
    </g>
    <g id="g11619" transform="matrix(4.6751338,0,0,-4.6751338,637.8545,189.50111)">
      <path inkscape:connector-curvature="0" d="M 0,0 C -0.998,-0.156 -1.997,-0.281 -3.081,-0.281 -6.606,-0.281 -9.598,1.382 -9.598,5.095 -9.598,8.81 -6.606,10.457 -3.081,10.457 -2.101,10.457 -1.084,10.332 -0.103,10.162 L 0.084,8.374 C -0.794,8.608 -1.72,8.81 -3.081,8.81 -5.368,8.81 -7.001,7.442 -7.001,5.095 -7.001,2.749 -5.368,1.365 -3.081,1.365 -1.738,1.365 -0.739,1.568 0.223,1.817" style="fill:#7c7f83;fill-opacity:1;fill-rule:nonzero;stroke:none" id="path11621" />
    </g>
    <g id="g11623" transform="matrix(4.6751338,0,0,-4.6751338,66.698084,155.53158)">
      <path inkscape:connector-curvature="0" d="M 0,0 C -0.064,-0.484 0.075,-1.336 -1.967,-1.336 L -3.653,-1.336 -3.653,1.287 -1.597,1.287 C -0.925,1.287 -0.518,1.178 -0.273,0.932 -0.09,0.745 0.047,0.36 0,0 M 1.837,2.215 C 1.259,2.799 0.418,3.092 -0.674,3.092 L -6.343,3.092 -6.343,-7.344 -3.647,-7.344 -3.647,-3.12 C -2.415,-3.128 -1.227,-3.073 -1.227,-3.073 1.448,-3.073 2.657,-1.446 2.657,0.052 2.657,0.553 2.542,1.502 1.837,2.215" style="fill:#7c7f83;fill-opacity:1;fill-rule:nonzero;stroke:none" id="path11625" />
    </g>
    <g id="g11627" transform="matrix(4.6751338,0,0,-4.6751338,238.82248,155.53626)">
      <path inkscape:connector-curvature="0" d="M 0,0 C -0.064,-0.484 0.078,-1.336 -1.965,-1.336 L -3.653,-1.336 -3.653,1.287 -1.596,1.287 C -0.924,1.287 -0.517,1.178 -0.273,0.932 -0.088,0.745 0.045,0.36 0,0 M 1.836,2.215 C 1.259,2.799 0.418,3.092 -0.67,3.092 L -6.34,3.092 -6.34,-7.344 -3.647,-7.344 -3.647,-3.12 C -2.415,-3.128 -1.227,-3.073 -1.227,-3.073 1.448,-3.073 2.658,-1.445 2.658,0.052 2.658,0.553 2.541,1.502 1.836,2.215" style="fill:#7c7f83;fill-opacity:1;fill-rule:nonzero;stroke:none" id="path11629" />
    </g>
    <g id="g11631" transform="matrix(4.6751338,0,0,-4.6751338,995.923,75.180058)">
      <path inkscape:connector-curvature="0" d="M 0,0 -32.76,0 -26.077,-6.357 -6.56,-6.357" style="fill:#005da5;fill-opacity:1;fill-rule:nonzero;stroke:none" id="path11633" />
    </g>
    <g id="g11635" transform="matrix(4.6751338,0,0,-4.6751338,965.2588,191.43662)">
      <path inkscape:connector-curvature="0" d="M 0,0 6.561,-6.217 6.561,24.866 0,18.509" style="fill:#ee4529;fill-opacity:1;fill-rule:nonzero;stroke:none" id="path11637" />
    </g>
  </g>
</svg>
