<?xml version="1.0" encoding="UTF-8" standalone="no"?>
<svg
   xmlns:dc="http://purl.org/dc/elements/1.1/"
   xmlns:cc="http://creativecommons.org/ns#"
   xmlns:rdf="http://www.w3.org/1999/02/22-rdf-syntax-ns#"
   xmlns:svg="http://www.w3.org/2000/svg"
   xmlns="http://www.w3.org/2000/svg"
   xmlns:sodipodi="http://sodipodi.sourceforge.net/DTD/sodipodi-0.dtd"
   xmlns:inkscape="http://www.inkscape.org/namespaces/inkscape"
   version="1.2"
   width="650"
   height="350"
   viewBox="0 0 18344.445 9877.7774"
   preserveAspectRatio="xMidYMid"
   xml:space="preserve"
   id="svg3096"
   inkscape:version="0.91 r13725"
   sodipodi:docname="stack.svg"
   style="fill-rule:evenodd;stroke-width:28.22200012;stroke-linejoin:round"><metadata
     id="metadata3167"><rdf:RDF><cc:Work
         rdf:about=""><dc:format>image/svg+xml</dc:format><dc:type
           rdf:resource="http://purl.org/dc/dcmitype/StillImage" /><dc:title></dc:title></cc:Work></rdf:RDF></metadata><defs
     id="defs3165" /><sodipodi:namedview
     pagecolor="#ffffff"
     bordercolor="#666666"
     borderopacity="1"
     objecttolerance="10"
     gridtolerance="10"
     guidetolerance="10"
     inkscape:pageopacity="0"
     inkscape:pageshadow="2"
     inkscape:window-width="1920"
     inkscape:window-height="1138"
     id="namedview3163"
     showgrid="false"
     showguides="true"
     inkscape:guide-bbox="true"
     inkscape:zoom="1.6234497"
     inkscape:cx="340.35978"
     inkscape:cy="192.54373"
     inkscape:window-x="-8"
     inkscape:window-y="-8"
     inkscape:window-maximized="1"
     inkscape:current-layer="svg3096"><sodipodi:guide
       position="17971.518,7768.8088"
       orientation="1,0"
       id="guide4216" /><sodipodi:guide
       position="516.28163,5802.0218"
       orientation="1,0"
       id="guide4218" /></sodipodi:namedview><g
     class="com.sun.star.drawing.CustomShape"
     id="g3105"
     transform="matrix(1.0019981,0,0,1,-1267.7138,667.99853)"><g
       id="id3"><path
         d="m 2125,6709 c -158,0 -316,158 -316,316 l 0,1268 c 0,158 158,317 316,317 l 16768,0 c 158,0 317,-159 317,-317 l 0,-1268 c 0,-158 -159,-316 -317,-316 l -16768,0 z m -316,0 0,0 z m 17401,1901 0,0 z"
         id="path3108"
         inkscape:connector-curvature="0"
         style="fill:#216693;fill-opacity:1;stroke:none" /><text
         class="TextShape"
         id="text3110"><tspan
           class="TextParagraph"
           font-size="988px"
           font-weight="400"
           id="tspan3112"
           style="font-style:normal;font-variant:normal;font-weight:normal;font-stretch:normal;font-size:988px;font-family:'Open Sans';-inkscape-font-specification:'Open Sans'"><tspan
             class="TextPosition"
             x="6800"
             y="8042"
             id="tspan3114"
             style="font-style:normal;font-variant:normal;font-weight:normal;font-stretch:normal;font-family:'Open Sans';-inkscape-font-specification:'Open Sans';fill:#ffffff;stroke:none">Java framework</tspan></tspan></text>
</g></g><g
     class="com.sun.star.drawing.CustomShape"
     id="g3131"
     transform="matrix(1.000999,0,0,1,-1265.9065,667.99853)"><g
       id="id5"><path
         d="m 2125,4409 c -158,0 -316,158 -316,316 l 0,1268 c 0,158 158,317 316,317 l 16768,0 c 158,0 317,-159 317,-317 l 0,-1268 c 0,-158 -159,-316 -317,-316 l -16768,0 z m -316,0 0,0 z m 17401,1901 0,0 z"
         id="path3134"
         inkscape:connector-curvature="0"
         style="fill:#4ca4e0;fill-opacity:1;stroke:#354867;stroke-width:56.41627473;stroke-miterlimit:4;stroke-dasharray:225.66509891, 112.83254945000000000;stroke-dashoffset:0;stroke-opacity:1" /><text
         class="TextShape"
         id="text3136"><tspan
           class="TextParagraph"
           font-size="988px"
           font-weight="400"
           id="tspan3138"
           style="font-style:normal;font-variant:normal;font-weight:normal;font-stretch:normal;font-size:988px;font-family:'Open Sans';-inkscape-font-specification:'Open Sans'"><tspan
             class="TextPosition"
             x="5842"
             y="5742"
             id="tspan3140"
             style="font-style:normal;font-variant:normal;font-weight:normal;font-stretch:normal;font-family:'Open Sans';-inkscape-font-specification:'Open Sans';fill:#ffffff;stroke:none">Business framework</tspan></tspan></text>
</g></g><g
     class="com.sun.star.drawing.CustomShape"
     id="g3144"
     transform="translate(-1264.0993,950.22078)"><g
       id="id8" /></g><path
     d="m 861.84808,663.4021 c -158.47369,0 -316.94733,158 -316.94733,316.00005 l 0,1267.99885 c 0,158 158.47364,317 316.94733,317 l 16818.26492,0 c 158.474,0 317.95,-159 317.95,-317 l 0,-1267.99885 c 0,-158.00005 -159.476,-316.00005 -317.95,-316.00005 l -16818.26492,0 z m -316.94733,0 0,0 z M 17998.063,2564.401 l 0,0 z"
     id="path3134-5"
     inkscape:connector-curvature="0"
     style="fill:#b3b3b3;fill-opacity:0.56078384;stroke:none" /><flowRoot
     xml:space="preserve"
     id="flowRoot3019"
     style="font-style:normal;font-weight:normal;font-size:40px;line-height:125%;font-family:Sans;letter-spacing:0px;word-spacing:0px;fill:#000000;fill-opacity:1;stroke:none"
     transform="matrix(28.222222,0,0,28.222222,0,-122.22272)"><flowRegion
       id="flowRegion3021"><rect
         id="rect3023"
         width="772.4292"
         height="448.42783"
         x="0.61597228"
         y="-106.41654" /></flowRegion><flowPara
       id="flowPara3025" /></flowRoot><path
     d="m 861.66475,2874.8862 c -158.38206,0 -316.764,157.7751 -316.764,315.55 l 0,1266.1934 c 0,157.7751 158.38194,316.5487 316.764,316.5487 l 16808.53525,0 c 158.382,0 317.767,-158.7736 317.767,-316.5487 l 0,-1266.1934 c 0,-157.7749 -159.385,-315.55 -317.767,-315.55 l -16808.53525,0 z m -316.764,0 0,0 z m 17443.06625,1898.2921 0,0 z"
     id="path3134-5-3"
     inkscape:connector-curvature="0"
     style="fill:#a1cfef;fill-opacity:1;fill-rule:evenodd;stroke:#354967;stroke-width:56.44444762;stroke-linejoin:round;stroke-miterlimit:4;stroke-dasharray:225.77779049, 112.88889524000000000;stroke-dashoffset:0;stroke-opacity:0.80000001" /><text
     style="font-size:11.99999905px;fill-rule:evenodd;stroke-width:28.22200012;stroke-linejoin:round"
     y="-3860.5249"
     x="63.364437"
     class="TextShape"
     id="text3136-7-9"><tspan
       class="TextParagraph"
       font-size="988px"
       font-weight="400"
       id="tspan3138-5-5"
       style="font-style:normal;font-variant:normal;font-weight:normal;font-stretch:normal;font-size:988.00006104px;font-family:'Open Sans';-inkscape-font-specification:'Open Sans'"><tspan
         class="TextPosition"
         x="6048.9014"
         y="1881.483"
         id="tspan3140-5-9"
         style="font-style:normal;font-variant:normal;font-weight:normal;font-stretch:normal;font-family:'Open Sans';-inkscape-font-specification:'Open Sans';fill:#ffffff;stroke:none">Project code</tspan></tspan></text>
<text
     style="font-size:11.99999905px;fill:#ffffff;fill-rule:evenodd;stroke-width:28.22200012;stroke-linejoin:round"
     y="4159.4175"
     x="7124.6279"
     class="TextShape"
     id="text3136-7-9-0"><tspan
       class="TextParagraph"
       font-size="988px"
       font-weight="400"
       id="tspan3138-5-5-1"
       style="font-style:normal;font-variant:normal;font-weight:normal;font-stretch:normal;font-size:988.00006104px;font-family:'Open Sans';-inkscape-font-specification:'Open Sans';fill:#ffffff">Add-ons<tspan
   class="TextPosition"
   x="13110.166"
   y="9901.4258"
   id="tspan3140-5-9-2"
   style="font-style:normal;font-variant:normal;font-weight:normal;font-stretch:normal;font-family:'Open Sans';-inkscape-font-specification:'Open Sans';fill:#ffffff;stroke:none" /></tspan></text>
</svg>