<?xml version="1.0" encoding="UTF-8" standalone="no"?>
<svg
   xmlns:dc="http://purl.org/dc/elements/1.1/"
   xmlns:cc="http://creativecommons.org/ns#"
   xmlns:rdf="http://www.w3.org/1999/02/22-rdf-syntax-ns#"
   xmlns:svg="http://www.w3.org/2000/svg"
   xmlns="http://www.w3.org/2000/svg"
   xmlns:sodipodi="http://sodipodi.sourceforge.net/DTD/sodipodi-0.dtd"
   xmlns:inkscape="http://www.inkscape.org/namespaces/inkscape"
   version="1.2"
   width="650"
   height="250"
   viewBox="0 0 18344.445 7055.5553"
   preserveAspectRatio="xMidYMid"
   xml:space="preserve"
   id="svg3096"
   inkscape:version="0.91 r13725"
   sodipodi:docname="stack.svg"
   style="fill-rule:evenodd;stroke-width:28.22200012;stroke-linejoin:round"><metadata
     id="metadata3167"><rdf:RDF><cc:Work
         rdf:about=""><dc:format>image/svg+xml</dc:format><dc:type
           rdf:resource="http://purl.org/dc/dcmitype/StillImage" /></cc:Work></rdf:RDF></metadata><defs
     id="defs3165" /><sodipodi:namedview
     pagecolor="#ffffff"
     bordercolor="#666666"
     borderopacity="1"
     objecttolerance="10"
     gridtolerance="10"
     guidetolerance="10"
     inkscape:pageopacity="0"
     inkscape:pageshadow="2"
     inkscape:window-width="1920"
     inkscape:window-height="1138"
     id="namedview3163"
     showgrid="false"
     showguides="true"
     inkscape:guide-bbox="true"
     inkscape:zoom="1.6234497"
     inkscape:cx="211.69797"
     inkscape:cy="218.73352"
     inkscape:window-x="1672"
     inkscape:window-y="-8"
     inkscape:window-maximized="1"
     inkscape:current-layer="svg3096" /><g
     id="id1"
     class="Slide"
     clip-path="url(#presentation_clip_path)"
     transform="translate(-1241.7777,-1872.0016)"><g
       class="Page"
       id="g3103"><g
         class="com.sun.star.drawing.CustomShape"
         id="g3105"><g
           id="id3"><path
             d="m 2125,6709 c -158,0 -316,158 -316,316 l 0,1268 c 0,158 158,317 316,317 l 7868,0 c 158,0 317,-159 317,-317 l 0,-1268 c 0,-158 -159,-316 -317,-316 l -7868,0 z m -316,0 0,0 z m 8501,1901 0,0 z"
             id="path3108"
             inkscape:connector-curvature="0"
             style="fill:#c75c5c;stroke:none;fill-opacity:1" /><text
             class="TextShape"
             id="text3110"><tspan
               class="TextParagraph"
               font-size="988px"
               font-weight="400"
               id="tspan3112"
               style="font-size:988px;font-style:normal;font-variant:normal;font-weight:normal;font-stretch:normal;font-family:Open Sans;-inkscape-font-specification:Open Sans"><tspan
                 class="TextPosition"
                 x="2497"
                 y="8042"
                 id="tspan3114"
                 style="font-style:normal;font-variant:normal;font-weight:normal;font-stretch:normal;fill:#ffffff;stroke:none;font-family:Open Sans;-inkscape-font-specification:Open Sans">Java framework</tspan></tspan></text>
</g></g><g
         class="com.sun.star.drawing.CustomShape"
         id="g3118"><g
           id="id4"><path
             d="m 11025,6709 c -158,0 -316,158 -316,316 l 0,1268 c 0,158 158,317 316,317 l 7868,0 c 158,0 317,-159 317,-317 l 0,-1268 c 0,-158 -159,-316 -317,-316 l -7868,0 z m -316,0 0,0 z m 8501,1901 0,0 z"
             id="path3121"
             inkscape:connector-curvature="0"
             style="fill:#76c2af;stroke:none;fill-opacity:1" /><text
             class="TextShape"
             id="text3123"><tspan
               class="TextParagraph"
               font-size="988px"
               font-weight="400"
               id="tspan3125"
               style="font-size:988px;font-style:normal;font-variant:normal;font-weight:normal;font-stretch:normal;font-family:Open Sans;-inkscape-font-specification:Open Sans"><tspan
                 class="TextPosition"
                 x="11300"
                 y="8042"
                 id="tspan3127"
                 style="font-style:normal;font-variant:normal;font-weight:normal;font-stretch:normal;fill:#ffffff;stroke:none;font-family:Open Sans;-inkscape-font-specification:Open Sans">Web framework</tspan></tspan></text>
</g></g><g
         class="com.sun.star.drawing.CustomShape"
         id="g3131"><g
           id="id5"><path
             d="m 2125,4409 c -158,0 -316,158 -316,316 l 0,1268 c 0,158 158,317 316,317 l 16768,0 c 158,0 317,-159 317,-317 l 0,-1268 c 0,-158 -159,-316 -317,-316 l -16768,0 z m -316,0 0,0 z m 17401,1901 0,0 z"
             id="path3134"
             inkscape:connector-curvature="0"
             style="fill:#e0995e;stroke:none;fill-opacity:1" /><text
             class="TextShape"
             id="text3136"><tspan
               class="TextParagraph"
               font-size="988px"
               font-weight="400"
               id="tspan3138"
               style="font-size:988px;font-style:normal;font-variant:normal;font-weight:normal;font-stretch:normal;font-family:Open Sans;-inkscape-font-specification:Open Sans"><tspan
                 class="TextPosition"
                 x="5842"
                 y="5742"
                 id="tspan3140"
                 style="font-style:normal;font-variant:normal;font-weight:normal;font-stretch:normal;fill:#ffffff;stroke:none;font-family:Open Sans;-inkscape-font-specification:Open Sans">Business framework</tspan></tspan></text>
</g></g><g
         class="com.sun.star.drawing.CustomShape"
         id="g3144"><g
           id="id8" /></g></g></g><path
     d="m 865.13885,268.28923 c -158.00015,0 -316.00025,157.9999 -316.00025,315.9998 l 0,1267.99877 c 0,158 158.0001,317 316.00025,317 l 16768.01015,0 c 158,0 317,-159 317,-317 l 0,-1267.99877 c 0,-157.9999 -159,-315.9998 -317,-315.9998 l -16768.01015,0 z m -316.00025,0 0,0 z m 17401.0104,1900.99857 0,0 z"
     id="path3134-5"
     inkscape:connector-curvature="0"
     style="fill:#b3b3b3;fill-opacity:0.56078433999999999;stroke:none" /><text
     style="font-size:11.99999905px"
     y="-4192.8672"
     x="-785.54126"
     class="TextShape"
     id="text3136-7"><tspan
       class="TextParagraph"
       font-size="988px"
       font-weight="400"
       id="tspan3138-5"
       style="font-style:normal;font-variant:normal;font-weight:normal;font-stretch:normal;font-size:988px;font-family:'Open Sans';-inkscape-font-specification:'Open Sans'"><tspan
         class="TextPosition"
         x="5056.4561"
         y="1549.1395"
         id="tspan3140-5"
         style="font-style:normal;font-variant:normal;font-weight:normal;font-stretch:normal;font-family:'Open Sans';-inkscape-font-specification:'Open Sans';fill:#ffffff;stroke:none">Application code</tspan></tspan></text>
<flowRoot
     xml:space="preserve"
     id="flowRoot3019"
     style="font-size:40px;font-style:normal;font-weight:normal;line-height:125%;letter-spacing:0px;word-spacing:0px;fill:#000000;fill-opacity:1;stroke:none;font-family:Sans"
     transform="matrix(28.222222,0,0,28.222222,0,-2944.4451)"><flowRegion
       id="flowRegion3021"><rect
         id="rect3023"
         width="772.4292"
         height="448.42783"
         x="0.61597228"
         y="-106.41654" /></flowRegion><flowPara
       id="flowPara3025" /></flowRoot></svg>