<?xml version="1.0" encoding="UTF-8" standalone="no"?>
<!-- Created with Inkscape (http://www.inkscape.org/) -->

<svg
   xmlns:dc="http://purl.org/dc/elements/1.1/"
   xmlns:cc="http://creativecommons.org/ns#"
   xmlns:rdf="http://www.w3.org/1999/02/22-rdf-syntax-ns#"
   xmlns:svg="http://www.w3.org/2000/svg"
   xmlns="http://www.w3.org/2000/svg"
   xmlns:sodipodi="http://sodipodi.sourceforge.net/DTD/sodipodi-0.dtd"
   xmlns:inkscape="http://www.inkscape.org/namespaces/inkscape"
   id="svg2"
   version="1.1"
   inkscape:version="0.91 r13725"
   xml:space="preserve"
   width="80"
   height="80"
   viewBox="0 0 80 80"
   sodipodi:docname="404-logo.svg"><metadata
     id="metadata8"><rdf:RDF><cc:Work
         rdf:about=""><dc:format>image/svg+xml</dc:format><dc:type
           rdf:resource="http://purl.org/dc/dcmitype/StillImage" /><dc:title></dc:title></cc:Work></rdf:RDF></metadata><defs
     id="defs6"><clipPath
       clipPathUnits="userSpaceOnUse"
       id="clipPath16"><path
         d="M 0,64 64,64 64,0 0,0 0,64 Z"
         id="path18"
         inkscape:connector-curvature="0" /></clipPath><clipPath
       clipPathUnits="userSpaceOnUse"
       id="clipPath28"><path
         d="m 30,52 4,0 0,-48 -4,0 0,48 z"
         id="path30"
         inkscape:connector-curvature="0" /></clipPath><clipPath
       clipPathUnits="userSpaceOnUse"
       id="clipPath48"><path
         d="m 12,48 28,0 0,-12 -28,0 0,12 z"
         id="path50"
         inkscape:connector-curvature="0" /></clipPath><clipPath
       clipPathUnits="userSpaceOnUse"
       id="clipPath64"><path
         d="m 24,34 32,0 0,-12 -32,0 0,12 z"
         id="path66"
         inkscape:connector-curvature="0" /></clipPath></defs><sodipodi:namedview
     pagecolor="#ffffff"
     bordercolor="#666666"
     borderopacity="1"
     objecttolerance="10"
     gridtolerance="10"
     guidetolerance="10"
     inkscape:pageopacity="0"
     inkscape:pageshadow="2"
     inkscape:window-width="1920"
     inkscape:window-height="1152"
     id="namedview4"
     showgrid="false"
     inkscape:zoom="2.95"
     inkscape:cx="40"
     inkscape:cy="40"
     inkscape:window-x="0"
     inkscape:window-y="0"
     inkscape:window-maximized="1"
     inkscape:current-layer="g10" /><g
     id="g10"
     inkscape:groupmode="layer"
     inkscape:label="Elegant_circle-icons_2"
     transform="matrix(1.25,0,0,-1.25,0,80)"><g
       id="g12"><g
         id="g14"
         clip-path="url(#clipPath16)"><g
           id="g20"
           transform="translate(64,32)"><path
             d="m 0,0 c 0,-17.673 -14.327,-32 -32,-32 -17.673,0 -32,14.327 -32,32 0,17.673 14.327,32 32,32 C -14.327,32 0,17.673 0,0"
             style="fill:#e6e6e6;fill-opacity:0.56078434;fill-rule:nonzero;stroke:none"
             id="path22"
             inkscape:connector-curvature="0" /></g><g
           id="g24"><g
             id="g26" /><g
             id="g32"><g
               clip-path="url(#clipPath28)"
               id="g34"
               style="opacity:0.19999701"><g
                 transform="translate(32,4)"
                 id="g36"><path
                   d="m 0,0 c -1.104,0 -2,0.896 -2,2 l 0,44 c 0,1.104 0.896,2 2,2 1.104,0 2,-0.896 2,-2 L 2,2 C 2,0.896 1.104,0 0,0"
                   style="fill:#231f20;fill-opacity:1;fill-rule:nonzero;stroke:none"
                   id="path38"
                   inkscape:connector-curvature="0" /></g></g></g></g><g
           id="g40"
           transform="translate(32,52.0002)"><path
             d="M 0,0 0,-44"
             style="fill:none;stroke:#f5cf87;stroke-width:4;stroke-linecap:round;stroke-linejoin:miter;stroke-miterlimit:10;stroke-dasharray:none;stroke-opacity:1"
             id="path42"
             inkscape:connector-curvature="0" /></g><g
           id="g44"><g
             id="g46" /><g
             id="g52"><g
               clip-path="url(#clipPath48)"
               id="g54"
               style="opacity:0.19999701"><g
                 transform="translate(18.4852,48)"
                 id="g56"><path
                   d="m 0,0 c -0.416,0 -1.004,-0.246 -1.308,-0.547 l -4.95,-4.906 c -0.303,-0.301 -0.303,-0.793 0,-1.094 l 4.95,-4.906 C -1.004,-11.754 -0.416,-12 0,-12 l 20.759,0 c 0.416,0 0.756,0.36 0.756,0.799 l 0,10.402 C 21.515,-0.36 21.175,0 20.759,0 L 0,0 Z"
                   style="fill:#231f20;fill-opacity:1;fill-rule:nonzero;stroke:none"
                   id="path58"
                   inkscape:connector-curvature="0" /></g></g></g></g><g
           id="g60"><g
             id="g62" /><g
             id="g68"><g
               clip-path="url(#clipPath64)"
               id="g70"
               style="opacity:0.19999701"><g
                 transform="translate(49.5148,22)"
                 id="g72"><path
                   d="m 0,0 c 0.416,0 1.004,0.246 1.308,0.547 l 4.95,4.906 c 0.303,0.301 0.303,0.793 0,1.094 l -4.95,4.906 C 1.004,11.754 0.416,12 0,12 l -24.759,0 c -0.416,0 -0.756,-0.36 -0.756,-0.799 l 0,-10.402 C -25.515,0.36 -25.175,0 -24.759,0 L 0,0 Z"
                   style="fill:#231f20;fill-opacity:1;fill-rule:nonzero;stroke:none"
                   id="path74"
                   inkscape:connector-curvature="0" /></g></g></g></g><g
           id="g76"
           transform="translate(18.4852,50)"><path
             d="m 0,0 c -0.416,0 -1.004,-0.246 -1.308,-0.547 l -4.95,-4.906 c -0.303,-0.301 -0.303,-0.793 0,-1.094 l 4.95,-4.906 C -1.004,-11.754 -0.416,-12 0,-12 l 20.759,0 c 0.416,0 0.756,0.36 0.756,0.799 l 0,10.402 C 21.515,-0.36 21.175,0 20.759,0 L 0,0 Z"
             style="fill:#4f5d73;fill-opacity:1;fill-rule:nonzero;stroke:none"
             id="path78"
             inkscape:connector-curvature="0" /></g><g
           id="g80"
           transform="translate(49.5148,24)"><path
             d="m 0,0 c 0.416,0 1.004,0.246 1.308,0.547 l 4.95,4.906 c 0.303,0.301 0.303,0.793 0,1.094 l -4.95,4.906 C 1.004,11.754 0.416,12 0,12 l -24.759,0 c -0.416,0 -0.756,-0.36 -0.756,-0.799 l 0,-10.402 C -25.515,0.36 -25.175,0 -24.759,0 L 0,0 Z"
             style="fill:#ffffff;fill-opacity:1;fill-rule:nonzero;stroke:none"
             id="path82"
             inkscape:connector-curvature="0" /></g></g></g></g></svg>