<?xml version="1.0" encoding="UTF-8" standalone="no"?>
<!-- Created with Inkscape (http://www.inkscape.org/) -->

<svg
   xmlns:dc="http://purl.org/dc/elements/1.1/"
   xmlns:cc="http://creativecommons.org/ns#"
   xmlns:rdf="http://www.w3.org/1999/02/22-rdf-syntax-ns#"
   xmlns:svg="http://www.w3.org/2000/svg"
   xmlns="http://www.w3.org/2000/svg"
   xmlns:sodipodi="http://sodipodi.sourceforge.net/DTD/sodipodi-0.dtd"
   xmlns:inkscape="http://www.inkscape.org/namespaces/inkscape"
   id="svg2985"
   version="1.1"
   inkscape:version="0.48.4 r9943 custom"
   width="80"
   height="80"
   xml:space="preserve"
   sodipodi:docname="Elegant_circle-icons_3.ai"><metadata
     id="metadata2991"><rdf:RDF><cc:Work
         rdf:about=""><dc:format>image/svg+xml</dc:format><dc:type
           rdf:resource="http://purl.org/dc/dcmitype/StillImage" /><dc:title></dc:title></cc:Work></rdf:RDF></metadata><defs
     id="defs2989"><clipPath
       clipPathUnits="userSpaceOnUse"
       id="clipPath2999"><path
         d="M 0,64 64,64 64,0 0,0 0,64 z"
         id="path3001" /></clipPath><clipPath
       clipPathUnits="userSpaceOnUse"
       id="clipPath3011"><path
         d="m 15,26.8999 13.8995,0 0,-13.8994 -13.8995,0 0,13.8994 z"
         id="path3013" /></clipPath><clipPath
       clipPathUnits="userSpaceOnUse"
       id="clipPath3027"><path
         d="m 27.728,50.9416 13.8994,0 0,-13.8995 -13.8994,0 0,13.8995 z"
         id="path3029" /></clipPath><clipPath
       clipPathUnits="userSpaceOnUse"
       id="clipPath3043"><path
         d="m 39.0417,39.6279 13.8994,0 0,-13.8996 -13.8994,0 0,13.8996 z"
         id="path3045" /></clipPath><clipPath
       clipPathUnits="userSpaceOnUse"
       id="clipPath3071"><path
         d="m 16.6066,44.6523 29.6525,0 0,-29.6525 -29.6525,0 0,29.6525 z"
         id="path3073" /></clipPath><clipPath
       clipPathUnits="userSpaceOnUse"
       id="clipPath3091"><path
         d="m 24.8995,46.7985 23.799,0 0,-23.799 -23.799,0 0,23.799 z"
         id="path3093" /></clipPath></defs><sodipodi:namedview
     pagecolor="#ffffff"
     bordercolor="#666666"
     borderopacity="1"
     objecttolerance="10"
     gridtolerance="10"
     guidetolerance="10"
     inkscape:pageopacity="0"
     inkscape:pageshadow="2"
     inkscape:window-width="2560"
     inkscape:window-height="1391"
     id="namedview2987"
     showgrid="false"
     inkscape:zoom="2.95"
     inkscape:cx="-16.949153"
     inkscape:cy="40"
     inkscape:window-x="-6"
     inkscape:window-y="99"
     inkscape:window-maximized="0"
     inkscape:current-layer="g2993" /><g
     id="g2993"
     inkscape:groupmode="layer"
     inkscape:label="Elegant_circle-icons_3"
     transform="matrix(1.25,0,0,-1.25,0,80)"><g
       id="g2995"><g
         id="g2997"
         clip-path="url(#clipPath2999)"><g
           id="g3003"
           transform="translate(64,32)"><path
             d="m 0,0 c 0,-17.673 -14.327,-32 -32,-32 -17.673,0 -32,14.327 -32,32 0,17.673 14.327,32 32,32 C -14.327,32 0,17.673 0,0"
             style="fill:#e6e6e6;fill-opacity:0.56078434;fill-rule:nonzero;stroke:none"
             id="path3005" /></g><g
           id="g3007"><g
             id="g3009" /><g
             id="g3015"><g
               clip-path="url(#clipPath3011)"
               opacity="0.199997"
               id="g3017"><g
                 transform="translate(18.4142,13.5862)"
                 id="g3019"><path
                   d="m 0,0 c -0.781,-0.781 -2.047,-0.781 -2.828,0 -0.781,0.781 -0.781,2.047 0,2.829 l 9.899,9.899 c 0.781,0.781 2.047,0.781 2.829,0 0.781,-0.781 0.781,-2.047 0,-2.828 L 0,0 z"
                   style="fill:#231f20;fill-opacity:1;fill-rule:nonzero;stroke:none"
                   id="path3021" /></g></g></g></g><g
           id="g3023"><g
             id="g3025" /><g
             id="g3031"><g
               clip-path="url(#clipPath3027)"
               opacity="0.199997"
               id="g3033"><g
                 transform="translate(31.1421,37.6279)"
                 id="g3035"><path
                   d="m 0,0 c -0.781,-0.781 -2.047,-0.781 -2.828,0 -0.781,0.781 -0.781,2.047 0,2.828 l 9.899,9.9 c 0.781,0.781 2.047,0.781 2.828,0 0.782,-0.781 0.782,-2.048 0,-2.829 L 0,0 z"
                   style="fill:#231f20;fill-opacity:1;fill-rule:nonzero;stroke:none"
                   id="path3037" /></g></g></g></g><g
           id="g3039"><g
             id="g3041" /><g
             id="g3047"><g
               clip-path="url(#clipPath3043)"
               opacity="0.199997"
               id="g3049"><g
                 transform="translate(42.4558,26.3141)"
                 id="g3051"><path
                   d="m 0,0 c -0.781,-0.781 -2.047,-0.781 -2.828,0 -0.781,0.781 -0.781,2.047 0,2.828 l 9.899,9.9 c 0.781,0.781 2.047,0.781 2.829,0 0.781,-0.781 0.781,-2.047 0,-2.828 L 0,0 z"
                   style="fill:#231f20;fill-opacity:1;fill-rule:nonzero;stroke:none"
                   id="path3053" /></g></g></g></g><g
           id="g3055"
           transform="translate(18.4142,15.5858)"><path
             d="m 0,0 c -0.781,-0.781 -2.047,-0.781 -2.828,0 -0.781,0.781 -0.781,2.047 0,2.828 l 9.899,9.9 c 0.781,0.781 2.047,0.781 2.829,0 0.781,-0.781 0.781,-2.048 0,-2.828 L 0,0 z"
             style="fill:#4f5d73;fill-opacity:1;fill-rule:nonzero;stroke:none"
             id="path3057" /></g><g
           id="g3059"
           transform="translate(31.1421,39.6274)"><path
             d="m 0,0 c -0.781,-0.781 -2.047,-0.781 -2.828,0 -0.781,0.781 -0.781,2.047 0,2.828 l 9.899,9.9 c 0.781,0.781 2.047,0.781 2.828,0 0.782,-0.781 0.782,-2.047 0,-2.828 L 0,0 z"
             style="fill:#e0e0d1;fill-opacity:1;fill-rule:nonzero;stroke:none"
             id="path3061" /></g><g
           id="g3063"
           transform="translate(42.4558,28.3137)"><path
             d="m 0,0 c -0.781,-0.781 -2.047,-0.781 -2.828,0 -0.781,0.781 -0.781,2.047 0,2.828 l 9.899,9.9 c 0.781,0.781 2.047,0.781 2.829,0 0.781,-0.781 0.781,-2.047 0,-2.829 L 0,0 z"
             style="fill:#e0e0d1;fill-opacity:1;fill-rule:nonzero;stroke:none"
             id="path3065" /></g><g
           id="g3067"><g
             id="g3069" /><g
             id="g3075"><g
               clip-path="url(#clipPath3071)"
               opacity="0.199997"
               id="g3077"><g
                 transform="translate(27.8744,44.6523)"
                 id="g3079"><path
                   d="m 0,0 -8.046,-8.046 c -4.296,-4.296 -4.296,-11.261 0,-15.556 l 2.829,-2.829 c 4.295,-4.296 11.26,-4.296 15.556,0 l 8.046,8.046 L 0,0 z"
                   style="fill:#231f20;fill-opacity:1;fill-rule:nonzero;stroke:none"
                   id="path3081" /></g></g></g></g><g
           id="g3083"
           transform="translate(27.8744,46.2591)"><path
             d="m 0,0 -8.046,-8.046 c -4.296,-4.296 -4.296,-11.261 0,-15.556 l 2.829,-2.829 c 4.295,-4.295 11.26,-4.295 15.556,0 l 8.046,8.046 L 0,0 z"
             style="fill:#4f5d73;fill-opacity:1;fill-rule:nonzero;stroke:none"
             id="path3085" /></g><g
           id="g3087"><g
             id="g3089" /><g
             id="g3095"><g
               clip-path="url(#clipPath3091)"
               opacity="0.199997"
               id="g3097"><g
                 transform="translate(48.1127,23.5853)"
                 id="g3099"><path
                   d="m 0,0 c -0.781,-0.781 -2.047,-0.781 -2.828,0 l -19.799,19.799 c -0.781,0.781 -0.781,2.047 0,2.828 0.781,0.782 2.047,0.782 2.828,0 L 0,2.828 C 0.781,2.047 0.781,0.781 0,0"
                   style="fill:#231f20;fill-opacity:1;fill-rule:nonzero;stroke:none"
                   id="path3101" /></g></g></g></g><g
           id="g3103"
           transform="translate(48.1127,25.4853)"><path
             d="m 0,0 c -0.781,-0.781 -2.047,-0.781 -2.828,0 l -19.799,19.799 c -0.781,0.781 -0.781,2.047 0,2.828 0.781,0.781 2.047,0.781 2.828,0 L 0,2.828 C 0.781,2.047 0.781,0.781 0,0"
             style="fill:#4f5d73;fill-opacity:1;fill-rule:nonzero;stroke:none"
             id="path3105" /></g></g></g></g></svg>