<?xml version="1.0" encoding="UTF-8" standalone="no"?>
<!-- Created with Inkscape (http://www.inkscape.org/) -->

<svg
   xmlns:dc="http://purl.org/dc/elements/1.1/"
   xmlns:cc="http://creativecommons.org/ns#"
   xmlns:rdf="http://www.w3.org/1999/02/22-rdf-syntax-ns#"
   xmlns:svg="http://www.w3.org/2000/svg"
   xmlns="http://www.w3.org/2000/svg"
   xmlns:sodipodi="http://sodipodi.sourceforge.net/DTD/sodipodi-0.dtd"
   xmlns:inkscape="http://www.inkscape.org/namespaces/inkscape"
   id="svg2"
   version="1.1"
   inkscape:version="0.91 r13725"
   xml:space="preserve"
   width="80"
   height="80"
   viewBox="0 0 80 80"
   sodipodi:docname="blog-logo.svg"><metadata
     id="metadata8"><rdf:RDF><cc:Work
         rdf:about=""><dc:format>image/svg+xml</dc:format><dc:type
           rdf:resource="http://purl.org/dc/dcmitype/StillImage" /><dc:title></dc:title></cc:Work></rdf:RDF></metadata><defs
     id="defs6"><clipPath
       clipPathUnits="userSpaceOnUse"
       id="clipPath16"><path
         d="M 0,64 64,64 64,0 0,0 0,64 Z"
         id="path18"
         inkscape:connector-curvature="0" /></clipPath><clipPath
       clipPathUnits="userSpaceOnUse"
       id="clipPath28"><path
         d="m 12,50 28,0 0,-40 -28,0 0,40 z"
         id="path30"
         inkscape:connector-curvature="0" /></clipPath><clipPath
       clipPathUnits="userSpaceOnUse"
       id="clipPath48"><path
         d="m 16,45 10,0 0,-2 -10,0 0,2 z"
         id="path50"
         inkscape:connector-curvature="0" /></clipPath><clipPath
       clipPathUnits="userSpaceOnUse"
       id="clipPath62"><path
         d="m 16,29 20,0 0,-2 -20,0 0,2 z"
         id="path64"
         inkscape:connector-curvature="0" /></clipPath><clipPath
       clipPathUnits="userSpaceOnUse"
       id="clipPath76"><path
         d="m 16,34 20,0 0,-2 -20,0 0,2 z"
         id="path78"
         inkscape:connector-curvature="0" /></clipPath><clipPath
       clipPathUnits="userSpaceOnUse"
       id="clipPath90"><path
         d="m 16,39 20,0 0,-2 -20,0 0,2 z"
         id="path92"
         inkscape:connector-curvature="0" /></clipPath><clipPath
       clipPathUnits="userSpaceOnUse"
       id="clipPath104"><path
         d="m 16,24 20,0 0,-2 -20,0 0,2 z"
         id="path106"
         inkscape:connector-curvature="0" /></clipPath><clipPath
       clipPathUnits="userSpaceOnUse"
       id="clipPath118"><path
         d="m 16,19 20,0 0,-2 -20,0 0,2 z"
         id="path120"
         inkscape:connector-curvature="0" /></clipPath><clipPath
       clipPathUnits="userSpaceOnUse"
       id="clipPath132"><path
         d="m 20.4731,50.0858 35.5269,0 0,-35.5269 -35.5269,0 0,35.5269 z"
         id="path134"
         inkscape:connector-curvature="0" /></clipPath></defs><sodipodi:namedview
     pagecolor="#ffffff"
     bordercolor="#666666"
     borderopacity="1"
     objecttolerance="10"
     gridtolerance="10"
     guidetolerance="10"
     inkscape:pageopacity="0"
     inkscape:pageshadow="2"
     inkscape:window-width="1321"
     inkscape:window-height="799"
     id="namedview4"
     showgrid="false"
     inkscape:zoom="2.95"
     inkscape:cx="40"
     inkscape:cy="40"
     inkscape:window-x="0"
     inkscape:window-y="0"
     inkscape:window-maximized="0"
     inkscape:current-layer="g10" /><g
     id="g10"
     inkscape:groupmode="layer"
     inkscape:label="Elegant_circle-icons"
     transform="matrix(1.25,0,0,-1.25,0,80)"><g
       id="g12"><g
         id="g14"
         clip-path="url(#clipPath16)"><g
           id="g20"
           transform="translate(63.8333,32)"><path
             d="m 0,0 c 0,-17.673 -14.327,-32 -32,-32 -17.673,0 -32,14.327 -32,32 0,17.673 14.327,32 32,32 C -14.327,32 0,17.673 0,0"
             style="fill:#e6e6e6;fill-opacity:0.56078434;fill-rule:nonzero;stroke:none"
             id="path22"
             inkscape:connector-curvature="0" /></g><g
           id="g24"><g
             id="g26" /><g
             id="g32"><g
               clip-path="url(#clipPath28)"
               id="g34"
               style="opacity:0.19999701"><g
                 transform="translate(28,41)"
                 id="g36"><path
                   d="m 0,0 0,9 -13,0 c -1.657,0 -3,-1.343 -3,-3 l 0,-34 c 0,-1.657 1.343,-3 3,-3 l 22,0 c 1.657,0 3,1.343 3,3 l 0,25 -9,0 C 1.343,-3 0,-1.657 0,0"
                   style="fill:#231f20;fill-opacity:1;fill-rule:nonzero;stroke:none"
                   id="path38"
                   inkscape:connector-curvature="0" /></g></g></g></g><g
           id="g40"
           transform="translate(37,52)"><path
             d="m 0,0 -9,0 -13,0 c -1.657,0 -3,-1.343 -3,-3 l 0,-25 0,-9 c 0,-1.657 1.343,-3 3,-3 l 9,0 13,0 c 1.657,0 3,1.343 3,3 l 0,25 0,9 C 3,-1.343 1.657,0 0,0"
             style="fill:#e0e0d1;fill-opacity:1;fill-rule:nonzero;stroke:none"
             id="path42"
             inkscape:connector-curvature="0" /></g><g
           id="g44"><g
             id="g46" /><g
             id="g52"><g
               clip-path="url(#clipPath48)"
               id="g54"
               style="opacity:0.19999701"><path
                 d="m 26,43 -10,0 0,2 10,0 0,-2 z"
                 style="fill:#231f20;fill-opacity:1;fill-rule:nonzero;stroke:none"
                 id="path56"
                 inkscape:connector-curvature="0" /></g></g></g><g
           id="g58"><g
             id="g60" /><g
             id="g66"><g
               clip-path="url(#clipPath62)"
               id="g68"
               style="opacity:0.19999701"><path
                 d="m 36,27 -20,0 0,2 20,0 0,-2 z"
                 style="fill:#231f20;fill-opacity:1;fill-rule:nonzero;stroke:none"
                 id="path70"
                 inkscape:connector-curvature="0" /></g></g></g><g
           id="g72"><g
             id="g74" /><g
             id="g80"><g
               clip-path="url(#clipPath76)"
               id="g82"
               style="opacity:0.19999701"><path
                 d="m 36,32 -20,0 0,2 20,0 0,-2 z"
                 style="fill:#231f20;fill-opacity:1;fill-rule:nonzero;stroke:none"
                 id="path84"
                 inkscape:connector-curvature="0" /></g></g></g><g
           id="g86"><g
             id="g88" /><g
             id="g94"><g
               clip-path="url(#clipPath90)"
               id="g96"
               style="opacity:0.19999701"><path
                 d="m 36,37 -20,0 0,2 20,0 0,-2 z"
                 style="fill:#231f20;fill-opacity:1;fill-rule:nonzero;stroke:none"
                 id="path98"
                 inkscape:connector-curvature="0" /></g></g></g><g
           id="g100"><g
             id="g102" /><g
             id="g108"><g
               clip-path="url(#clipPath104)"
               id="g110"
               style="opacity:0.19999701"><path
                 d="m 36,22 -20,0 0,2 20,0 0,-2 z"
                 style="fill:#231f20;fill-opacity:1;fill-rule:nonzero;stroke:none"
                 id="path112"
                 inkscape:connector-curvature="0" /></g></g></g><g
           id="g114"><g
             id="g116" /><g
             id="g122"><g
               clip-path="url(#clipPath118)"
               id="g124"
               style="opacity:0.19999701"><path
                 d="m 36,17 -20,0 0,2 20,0 0,-2 z"
                 style="fill:#231f20;fill-opacity:1;fill-rule:nonzero;stroke:none"
                 id="path126"
                 inkscape:connector-curvature="0" /></g></g></g><g
           id="g128"><g
             id="g130" /><g
             id="g136"><g
               clip-path="url(#clipPath132)"
               id="g138"
               style="opacity:0.19999701"><g
                 transform="translate(55.1213,42.136)"
                 id="g140"><path
                   d="m 0,0 -7.071,7.071 c -1.172,1.172 -3.071,1.172 -4.243,0 l -3.535,-3.535 -0.707,-0.708 -16.264,-16.263 -1.885,-9.428 -0.943,-4.714 4.714,0.943 9.428,1.885 16.263,16.264 0.707,0.707 L 0,-4.243 C 1.172,-3.071 1.172,-1.172 0,0"
                   style="fill:#231f20;fill-opacity:1;fill-rule:nonzero;stroke:none"
                   id="path142"
                   inkscape:connector-curvature="0" /></g></g></g></g><g
           id="g144"
           transform="translate(50.8787,35.565)"><path
             d="m 0,0 c -1.172,-1.172 -3.071,-1.172 -4.243,0 l -7.071,7.071 c -1.171,1.172 -1.171,3.071 0,4.243 l 4.243,4.242 c 1.172,1.172 3.071,1.172 4.243,0 L 4.243,8.485 c 1.171,-1.171 1.171,-3.071 0,-4.242 L 0,0 Z"
             style="fill:#c75c5c;fill-opacity:1;fill-rule:nonzero;stroke:none"
             id="path146"
             inkscape:connector-curvature="0" /></g><g
           id="g148"
           transform="translate(26.1299,27.7868)"><path
             d="M 0,0 -2.828,2.828 14.142,19.799 16.971,16.971 0,0 Z"
             style="fill:#e0995e;fill-opacity:1;fill-rule:nonzero;stroke:none"
             id="path150"
             inkscape:connector-curvature="0" /></g><g
           id="g152"
           transform="translate(30.3726,20.7157)"><path
             d="M 0,0 -5.657,5.657 12.728,24.042 18.385,18.385 0,0 Z"
             style="fill:#f5cf87;fill-opacity:1;fill-rule:nonzero;stroke:none"
             id="path154"
             inkscape:connector-curvature="0" /></g><g
           id="g156"
           transform="translate(34.6152,19.3015)"><path
             d="M 0,0 -2.828,2.828 14.142,19.799 16.971,16.971 0,0 Z"
             style="fill:#e0995e;fill-opacity:1;fill-rule:nonzero;stroke:none"
             id="path158"
             inkscape:connector-curvature="0" /></g><g
           id="g160"
           transform="translate(20.4731,16.4731)"><path
             d="M 0,0 4.714,0.943 0.943,4.714 0,0 Z"
             style="fill:#4f5d73;fill-opacity:1;fill-rule:nonzero;stroke:none"
             id="path162"
             inkscape:connector-curvature="0" /></g><g
           id="g164"
           transform="translate(23.3015,30.6152)"><path
             d="m 0,0 -1.886,-9.428 3.772,-3.771 9.428,1.885 -1.414,1.414 0,2.829 -5.657,0 0,5.657 -2.829,0 L 0,0 Z"
             style="fill:#ffffff;fill-opacity:1;fill-rule:nonzero;stroke:none"
             id="path166"
             inkscape:connector-curvature="0" /></g></g></g></g></svg>