<?xml version="1.0" encoding="UTF-8" standalone="no"?>
<!-- Created with Inkscape (http://www.inkscape.org/) -->

<svg
   xmlns:dc="http://purl.org/dc/elements/1.1/"
   xmlns:cc="http://creativecommons.org/ns#"
   xmlns:rdf="http://www.w3.org/1999/02/22-rdf-syntax-ns#"
   xmlns:svg="http://www.w3.org/2000/svg"
   xmlns="http://www.w3.org/2000/svg"
   xmlns:sodipodi="http://sodipodi.sourceforge.net/DTD/sodipodi-0.dtd"
   xmlns:inkscape="http://www.inkscape.org/namespaces/inkscape"
   id="svg2"
   version="1.1"
   inkscape:version="0.91 r13725"
   xml:space="preserve"
   width="80"
   height="80"
   viewBox="0 0 80 80"
   sodipodi:docname="getting-started-logo.svg"><metadata
     id="metadata8"><rdf:RDF><cc:Work
         rdf:about=""><dc:format>image/svg+xml</dc:format><dc:type
           rdf:resource="http://purl.org/dc/dcmitype/StillImage" /><dc:title /></cc:Work></rdf:RDF></metadata><defs
     id="defs6"><clipPath
       clipPathUnits="userSpaceOnUse"
       id="clipPath16"><path
         d="M 0,64 64,64 64,0 0,0 0,64 Z"
         id="path18"
         inkscape:connector-curvature="0" /></clipPath><clipPath
       clipPathUnits="userSpaceOnUse"
       id="clipPath28"><path
         d="m 25.8064,30.938 16.1005,0 0,-20.6335 -16.1005,0 0,20.6335 z"
         id="path30"
         inkscape:connector-curvature="0" /></clipPath><clipPath
       clipPathUnits="userSpaceOnUse"
       id="clipPath44"><path
         d="m 13.0588,39.1526 20.6335,0 0,-16.1005 -20.6335,0 0,16.1005 z"
         id="path46"
         inkscape:connector-curvature="0" /></clipPath><clipPath
       clipPathUnits="userSpaceOnUse"
       id="clipPath68"><path
         d="m 13.0585,28.2034 17.7477,0 0,-17.7515 -17.7477,0 0,17.7515 z"
         id="path70"
         inkscape:connector-curvature="0" /></clipPath><clipPath
       clipPathUnits="userSpaceOnUse"
       id="clipPath92"><path
         d="m 23.5841,48.7664 27.7648,0 0,-27.7851 -27.7648,0 0,27.7851 z"
         id="path94"
         inkscape:connector-curvature="0" /></clipPath><clipPath
       clipPathUnits="userSpaceOnUse"
       id="clipPath112"><path
         d="m 18.5622,32.1948 16.2354,0 0,-16.2354 -16.2354,0 0,16.2354 z"
         id="path114"
         inkscape:connector-curvature="0" /></clipPath><clipPath
       clipPathUnits="userSpaceOnUse"
       id="clipPath132"><path
         d="m 35.6044,40.8501 8,0 0,-8 -8,0 0,8 z"
         id="path134"
         inkscape:connector-curvature="0" /></clipPath><clipPath
       clipPathUnits="userSpaceOnUse"
       id="clipPath148"><path
         d="m 43.2613,44.507 4,0 0,-4 -4,0 0,4 z"
         id="path150"
         inkscape:connector-curvature="0" /></clipPath></defs><sodipodi:namedview
     pagecolor="#ffffff"
     bordercolor="#666666"
     borderopacity="1"
     objecttolerance="10"
     gridtolerance="10"
     guidetolerance="10"
     inkscape:pageopacity="0"
     inkscape:pageshadow="2"
     inkscape:window-width="1680"
     inkscape:window-height="1028"
     id="namedview4"
     showgrid="false"
     inkscape:zoom="2.95"
     inkscape:cx="-80.338983"
     inkscape:cy="40"
     inkscape:window-x="-8"
     inkscape:window-y="142"
     inkscape:window-maximized="1"
     inkscape:current-layer="g10" /><g
     id="g10"
     inkscape:groupmode="layer"
     inkscape:label="Elegant_circle-icons"
     transform="matrix(1.25,0,0,-1.25,0,80)"><g
       id="g12"><g
         id="g14"
         clip-path="url(#clipPath16)"><g
           id="g20"
           transform="translate(64,32)"><path
             d="m 0,0 c 0,-17.673 -14.327,-32 -32,-32 -17.673,0 -32,14.327 -32,32 0,17.673 14.327,32 32,32 C -14.327,32 0,17.673 0,0"
             style="fill:#e6e6e6;fill-opacity:0.56078434;fill-rule:nonzero;stroke:none"
             id="path22"
             inkscape:connector-curvature="0" /></g><g
           id="g24"><g
             id="g26" /><g
             id="g32"><g
               clip-path="url(#clipPath28)"
               id="g34"
               style="opacity:0.19999701"><g
                 transform="translate(32.0962,24.3177)"
                 id="g36"><path
                   d="m 0,0 c -1.556,-1.556 -6.087,-12.54 -6.087,-12.54 -0.664,-1.209 0.33,-2.086 2.593,-0.937 l 8.132,4.435 c 4.381,2.435 5.228,3.071 5.17,8.029 L 8.993,4.84 C 8.714,6.845 7.212,7.212 5.657,5.657 L 0,0 Z"
                   style="fill:#231f20;fill-opacity:1;fill-rule:nonzero;stroke:none"
                   id="path38"
                   inkscape:connector-curvature="0" /></g></g></g></g><g
           id="g40"><g
             id="g42" /><g
             id="g48"><g
               clip-path="url(#clipPath44)"
               id="g50"
               style="opacity:0.19999701"><g
                 transform="translate(27.0719,29.3419)"
                 id="g52"><path
                   d="m 0,0 c -1.556,-1.556 -12.54,-6.087 -12.54,-6.087 -1.209,-0.665 -2.086,0.33 -0.937,2.593 l 4.435,8.132 c 2.435,4.38 3.071,5.228 8.029,5.17 L 4.84,8.993 C 6.845,8.714 7.212,7.212 5.657,5.657 L 0,0 Z"
                   style="fill:#231f20;fill-opacity:1;fill-rule:nonzero;stroke:none"
                   id="path54"
                   inkscape:connector-curvature="0" /></g></g></g></g><g
           id="g56"
           transform="translate(32.0962,26.3177)"><path
             d="m 0,0 c -1.556,-1.556 -6.087,-12.54 -6.087,-12.54 -0.664,-1.209 0.33,-2.086 2.593,-0.937 l 8.132,4.435 c 4.381,2.435 5.228,3.071 5.17,8.029 L 8.993,4.84 C 8.714,6.845 7.212,7.212 5.657,5.657 L 0,0 Z"
             style="fill:#c75c5c;fill-opacity:1;fill-rule:nonzero;stroke:none"
             id="path58"
             inkscape:connector-curvature="0" /></g><g
           id="g60"
           transform="translate(27.0719,31.3419)"><path
             d="m 0,0 c -1.556,-1.556 -12.54,-6.087 -12.54,-6.087 -1.209,-0.665 -2.086,0.33 -0.937,2.593 l 4.435,8.132 c 2.435,4.38 3.071,5.228 8.029,5.17 L 4.84,8.993 C 6.845,8.714 7.212,7.212 5.657,5.657 L 0,0 Z"
             style="fill:#c75c5c;fill-opacity:1;fill-rule:nonzero;stroke:none"
             id="path62"
             inkscape:connector-curvature="0" /></g><g
           id="g64"><g
             id="g66" /><g
             id="g72"><g
               clip-path="url(#clipPath68)"
               id="g74"
               style="opacity:0.19999701"><g
                 transform="translate(21.2465,24.4553)"
                 id="g76"><path
                   d="m 0,0 c 5.074,5.074 9.337,3.526 9.337,3.526 0,0 1.549,-4.263 -3.525,-9.338 C 0.737,-10.886 -7.479,-14.571 -8.119,-13.931 -8.74,-13.311 -5.074,-5.074 0,0"
                   style="fill:#231f20;fill-opacity:1;fill-rule:nonzero;stroke:none"
                   id="path78"
                   inkscape:connector-curvature="0" /></g></g></g></g><g
           id="g80"
           transform="translate(21.2465,26.4553)"><path
             d="m 0,0 c 5.074,5.074 9.337,3.526 9.337,3.526 0,0 1.549,-4.263 -3.525,-9.338 C 0.737,-10.886 -7.479,-14.571 -8.119,-13.931 -8.74,-13.311 -5.074,-5.074 0,0"
             style="fill:#e0995e;fill-opacity:1;fill-rule:nonzero;stroke:none"
             id="path82"
             inkscape:connector-curvature="0" /></g><g
           id="g84"
           transform="translate(25.4892,30.6979)"><path
             d="m 0,0 c 5.074,5.074 9.337,3.526 9.337,3.526 0,0 1.549,-4.263 -3.525,-9.338 C 0.737,-10.886 -7.479,-14.571 -8.12,-13.931 -8.74,-13.311 -5.074,-5.074 0,0"
             style="fill:#f5cf87;fill-opacity:1;fill-rule:nonzero;stroke:none"
             id="path86"
             inkscape:connector-curvature="0" /></g><g
           id="g88"><g
             id="g90" /><g
             id="g96"><g
               clip-path="url(#clipPath92)"
               id="g98"
               style="opacity:0.19999701"><g
                 transform="translate(43.6341,26.9219)"
                 id="g100"><path
                   d="m 0,0 c -7.81,-7.81 -19.783,-5.673 -19.783,-5.673 0,0 -2.137,11.972 5.674,19.782 7.81,7.811 19.643,8.642 21.196,7.088 C 8.594,19.69 7.81,7.81 0,0"
                   style="fill:#231f20;fill-opacity:1;fill-rule:nonzero;stroke:none"
                   id="path102"
                   inkscape:connector-curvature="0" /></g></g></g></g><g
           id="g104"
           transform="translate(43.6341,28.9219)"><path
             d="m 0,0 c -7.81,-7.81 -19.783,-5.673 -19.783,-5.673 0,0 -2.137,11.972 5.674,19.782 7.81,7.811 19.643,8.642 21.196,7.088 C 8.594,19.69 7.81,7.81 0,0"
             style="fill:#e0e0d1;fill-opacity:1;fill-rule:nonzero;stroke:none"
             id="path106"
             inkscape:connector-curvature="0" /></g><g
           id="g108"><g
             id="g110" /><g
             id="g116"><g
               clip-path="url(#clipPath112)"
               id="g118"
               style="opacity:0.19999701"><g
                 transform="translate(21.023,17.006)"
                 id="g120"><path
                   d="m 0,0 c -0.781,-0.781 -1.34,-1.488 -2.121,-0.707 -0.781,0.781 -0.074,1.34 0.707,2.121 l 9.899,12.728 c 0.781,0.781 4.169,1.488 4.95,0.707 0.781,-0.781 0.074,-4.168 -0.707,-4.95 L 0,0 Z"
                   style="fill:#231f20;fill-opacity:1;fill-rule:nonzero;stroke:none"
                   id="path122"
                   inkscape:connector-curvature="0" /></g></g></g></g><g
           id="g124"
           transform="translate(21.023,19.006)"><path
             d="m 0,0 c -0.781,-0.781 -1.34,-1.488 -2.121,-0.707 -0.781,0.781 -0.074,1.34 0.707,2.121 l 9.899,12.728 c 0.781,0.781 4.169,1.488 4.95,0.707 0.781,-0.781 0.074,-4.168 -0.707,-4.95 L 0,0 Z"
             style="fill:#c75c5c;fill-opacity:1;fill-rule:nonzero;stroke:none"
             id="path126"
             inkscape:connector-curvature="0" /></g><g
           id="g128"><g
             id="g130" /><g
             id="g136"><g
               clip-path="url(#clipPath132)"
               id="g138"
               style="opacity:0.19999701"><g
                 transform="translate(42.4328,34.0217)"
                 id="g140"><path
                   d="m 0,0 c -1.562,-1.562 -4.095,-1.562 -5.657,0 -1.562,1.562 -1.562,4.095 0,5.657 1.562,1.562 4.095,1.562 5.657,0 C 1.562,4.095 1.562,1.562 0,0"
                   style="fill:#231f20;fill-opacity:1;fill-rule:nonzero;stroke:none"
                   id="path142"
                   inkscape:connector-curvature="0" /></g></g></g></g><g
           id="g144"><g
             id="g146" /><g
             id="g152"><g
               clip-path="url(#clipPath148)"
               id="g154"
               style="opacity:0.19999701"><g
                 transform="translate(46.6755,41.0928)"
                 id="g156"><path
                   d="m 0,0 c -0.781,-0.781 -2.047,-0.781 -2.828,0 -0.781,0.781 -0.781,2.047 0,2.828 0.781,0.781 2.047,0.781 2.828,0 C 0.781,2.047 0.781,0.781 0,0"
                   style="fill:#231f20;fill-opacity:1;fill-rule:nonzero;stroke:none"
                   id="path158"
                   inkscape:connector-curvature="0" /></g></g></g></g><g
           id="g160"
           transform="translate(42.4328,36.0217)"><path
             d="m 0,0 c -1.562,-1.562 -4.095,-1.562 -5.657,0 -1.562,1.562 -1.562,4.095 0,5.657 1.562,1.562 4.095,1.562 5.657,0 C 1.562,4.095 1.562,1.562 0,0"
             style="fill:#4f5d73;fill-opacity:1;fill-rule:nonzero;stroke:none"
             id="path162"
             inkscape:connector-curvature="0" /></g><g
           id="g164"
           transform="translate(46.6755,43.0928)"><path
             d="m 0,0 c -0.781,-0.781 -2.047,-0.781 -2.828,0 -0.781,0.781 -0.781,2.047 0,2.828 0.781,0.781 2.047,0.781 2.828,0 C 0.781,2.047 0.781,0.781 0,0"
             style="fill:#4f5d73;fill-opacity:1;fill-rule:nonzero;stroke:none"
             id="path166"
             inkscape:connector-curvature="0" /></g></g></g></g></svg>