<?xml version="1.0" encoding="UTF-8" standalone="no"?>
<!-- Created with Inkscape (http://www.inkscape.org/) -->

<svg
   xmlns:dc="http://purl.org/dc/elements/1.1/"
   xmlns:cc="http://creativecommons.org/ns#"
   xmlns:rdf="http://www.w3.org/1999/02/22-rdf-syntax-ns#"
   xmlns:svg="http://www.w3.org/2000/svg"
   xmlns="http://www.w3.org/2000/svg"
   xmlns:sodipodi="http://sodipodi.sourceforge.net/DTD/sodipodi-0.dtd"
   xmlns:inkscape="http://www.inkscape.org/namespaces/inkscape"
   id="svg2"
   version="1.1"
   inkscape:version="0.91 r13725"
   xml:space="preserve"
   width="80"
   height="80"
   viewBox="0 0 80 80"
   sodipodi:docname="glossary-logo.svg"><metadata
     id="metadata8"><rdf:RDF><cc:Work
         rdf:about=""><dc:format>image/svg+xml</dc:format><dc:type
           rdf:resource="http://purl.org/dc/dcmitype/StillImage" /><dc:title /></cc:Work></rdf:RDF></metadata><defs
     id="defs6"><clipPath
       clipPathUnits="userSpaceOnUse"
       id="clipPath16"><path
         d="M 0,64 64,64 64,0 0,0 0,64 Z"
         id="path18"
         inkscape:connector-curvature="0" /></clipPath><clipPath
       clipPathUnits="userSpaceOnUse"
       id="clipPath28"><path
         d="m 16,50 32,0 0,-40 -32,0 0,40 z"
         id="path30"
         inkscape:connector-curvature="0" /></clipPath><clipPath
       clipPathUnits="userSpaceOnUse"
       id="clipPath48"><path
         d="m 37.016,40.7064 10.984,0 0,-9.7064 -10.984,0 0,9.7064 z"
         id="path50"
         inkscape:connector-curvature="0" /></clipPath><clipPath
       clipPathUnits="userSpaceOnUse"
       id="clipPath68"><path
         d="m 22,42 9.625,0 0,-2 -9.625,0 0,2 z"
         id="path70"
         inkscape:connector-curvature="0" /></clipPath><clipPath
       clipPathUnits="userSpaceOnUse"
       id="clipPath82"><path
         d="m 22,32 20,0 0,-2 -20,0 0,2 z"
         id="path84"
         inkscape:connector-curvature="0" /></clipPath><clipPath
       clipPathUnits="userSpaceOnUse"
       id="clipPath96"><path
         d="m 22,37 20,0 0,-2 -20,0 0,2 z"
         id="path98"
         inkscape:connector-curvature="0" /></clipPath><clipPath
       clipPathUnits="userSpaceOnUse"
       id="clipPath110"><path
         d="m 22,27 20,0 0,-2 -20,0 0,2 z"
         id="path112"
         inkscape:connector-curvature="0" /></clipPath><clipPath
       clipPathUnits="userSpaceOnUse"
       id="clipPath124"><path
         d="m 22,22 20,0 0,-2 -20,0 0,2 z"
         id="path126"
         inkscape:connector-curvature="0" /></clipPath></defs><sodipodi:namedview
     pagecolor="#ffffff"
     bordercolor="#666666"
     borderopacity="1"
     objecttolerance="10"
     gridtolerance="10"
     guidetolerance="10"
     inkscape:pageopacity="0"
     inkscape:pageshadow="2"
     inkscape:window-width="1680"
     inkscape:window-height="1028"
     id="namedview4"
     showgrid="false"
     inkscape:zoom="2.95"
     inkscape:cx="-80.338983"
     inkscape:cy="40"
     inkscape:window-x="-8"
     inkscape:window-y="142"
     inkscape:window-maximized="1"
     inkscape:current-layer="g10" /><g
     id="g10"
     inkscape:groupmode="layer"
     inkscape:label="Elegant_circle-icons"
     transform="matrix(1.25,0,0,-1.25,0,80)"><g
       id="g12"><g
         id="g14"
         clip-path="url(#clipPath16)"><g
           id="g20"
           transform="translate(64,32)"><path
             d="m 0,0 c 0,-17.673 -14.327,-32 -32,-32 -17.673,0 -32,14.327 -32,32 0,17.673 14.327,32 32,32 C -14.327,32 0,17.673 0,0"
             style="fill:#e6e6e6;fill-opacity:0.56078434;fill-rule:nonzero;stroke:none"
             id="path22"
             inkscape:connector-curvature="0" /></g><g
           id="g24"><g
             id="g26" /><g
             id="g32"><g
               clip-path="url(#clipPath28)"
               id="g34"
               style="opacity:0.19999701"><g
                 transform="translate(36,41)"
                 id="g36"><path
                   d="m 0,0 0,9 -17,0 c -1.657,0 -3,-1.343 -3,-3 l 0,-34 c 0,-1.657 1.343,-3 3,-3 l 26,0 c 1.657,0 3,1.343 3,3 l 0,25 -9,0 C 1.343,-3 0,-1.657 0,0"
                   style="fill:#231f20;fill-opacity:1;fill-rule:nonzero;stroke:none"
                   id="path38"
                   inkscape:connector-curvature="0" /></g></g></g></g><g
           id="g40"
           transform="translate(36,43)"><path
             d="m 0,0 0,9 -17,0 c -1.657,0 -3,-1.343 -3,-3 l 0,-34 c 0,-1.657 1.343,-3 3,-3 l 26,0 c 1.657,0 3,1.343 3,3 l 0,25 -9,0 C 1.343,-3 0,-1.657 0,0"
             style="fill:#e0e0d1;fill-opacity:1;fill-rule:nonzero;stroke:none"
             id="path42"
             inkscape:connector-curvature="0" /></g><g
           id="g44"><g
             id="g46" /><g
             id="g52"><g
               clip-path="url(#clipPath48)"
               id="g54"
               style="opacity:0.19999701"><g
                 transform="translate(37.016,40.7064)"
                 id="g56"><path
                   d="m 0,0 10.984,-9.706 0,9 L 0,0 Z"
                   style="fill:#231f20;fill-opacity:1;fill-rule:nonzero;stroke:none"
                   id="path58"
                   inkscape:connector-curvature="0" /></g></g></g></g><g
           id="g60"
           transform="translate(36,52)"><path
             d="m 0,0 0,-9 c 0,-1.657 1.343,-3 3,-3 l 9,0 L 0,0 Z"
             style="fill:#ffffff;fill-opacity:1;fill-rule:nonzero;stroke:none"
             id="path62"
             inkscape:connector-curvature="0" /></g><g
           id="g64"><g
             id="g66" /><g
             id="g72"><g
               clip-path="url(#clipPath68)"
               id="g74"
               style="opacity:0.19999701"><path
                 d="M 31.625,40 22,40 l 0,2 9.625,0 0,-2 z"
                 style="fill:#231f20;fill-opacity:1;fill-rule:nonzero;stroke:none"
                 id="path76"
                 inkscape:connector-curvature="0" /></g></g></g><g
           id="g78"><g
             id="g80" /><g
             id="g86"><g
               clip-path="url(#clipPath82)"
               id="g88"
               style="opacity:0.19999701"><path
                 d="m 42,30 -20,0 0,2 20,0 0,-2 z"
                 style="fill:#231f20;fill-opacity:1;fill-rule:nonzero;stroke:none"
                 id="path90"
                 inkscape:connector-curvature="0" /></g></g></g><g
           id="g92"><g
             id="g94" /><g
             id="g100"><g
               clip-path="url(#clipPath96)"
               id="g102"
               style="opacity:0.19999701"><path
                 d="m 42,35 -20,0 0,2 20,0 0,-2 z"
                 style="fill:#231f20;fill-opacity:1;fill-rule:nonzero;stroke:none"
                 id="path104"
                 inkscape:connector-curvature="0" /></g></g></g><g
           id="g106"><g
             id="g108" /><g
             id="g114"><g
               clip-path="url(#clipPath110)"
               id="g116"
               style="opacity:0.19999701"><path
                 d="m 42,25 -20,0 0,2 20,0 0,-2 z"
                 style="fill:#231f20;fill-opacity:1;fill-rule:nonzero;stroke:none"
                 id="path118"
                 inkscape:connector-curvature="0" /></g></g></g><g
           id="g120"><g
             id="g122" /><g
             id="g128"><g
               clip-path="url(#clipPath124)"
               id="g130"
               style="opacity:0.19999701"><path
                 d="m 42,20 -20,0 0,2 20,0 0,-2 z"
                 style="fill:#231f20;fill-opacity:1;fill-rule:nonzero;stroke:none"
                 id="path132"
                 inkscape:connector-curvature="0" /></g></g></g></g></g></g></svg>