<?xml version="1.0" encoding="UTF-8" standalone="no"?>
<!-- Created with Inkscape (http://www.inkscape.org/) -->

<svg
   xmlns:dc="http://purl.org/dc/elements/1.1/"
   xmlns:cc="http://creativecommons.org/ns#"
   xmlns:rdf="http://www.w3.org/1999/02/22-rdf-syntax-ns#"
   xmlns:svg="http://www.w3.org/2000/svg"
   xmlns="http://www.w3.org/2000/svg"
   xmlns:sodipodi="http://sodipodi.sourceforge.net/DTD/sodipodi-0.dtd"
   xmlns:inkscape="http://www.inkscape.org/namespaces/inkscape"
   id="svg2"
   version="1.1"
   inkscape:version="0.91 r13725"
   xml:space="preserve"
   width="80"
   height="80"
   viewBox="0 0 80 80"
   sodipodi:docname="guides-logo.svg"><metadata
     id="metadata8"><rdf:RDF><cc:Work
         rdf:about=""><dc:format>image/svg+xml</dc:format><dc:type
           rdf:resource="http://purl.org/dc/dcmitype/StillImage" /><dc:title /></cc:Work></rdf:RDF></metadata><defs
     id="defs6"><clipPath
       clipPathUnits="userSpaceOnUse"
       id="clipPath16"><path
         d="M 0,64 64,64 64,0 0,0 0,64 Z"
         id="path18"
         inkscape:connector-curvature="0" /></clipPath><clipPath
       clipPathUnits="userSpaceOnUse"
       id="clipPath28"><path
         d="m 12,18 40,0 0,-4 -40,0 0,4 z"
         id="path30"
         inkscape:connector-curvature="0" /></clipPath><clipPath
       clipPathUnits="userSpaceOnUse"
       id="clipPath64"><path
         d="m 38,47.8163 2,0 L 40,20 l -2,0 0,27.8163 z"
         id="path66"
         inkscape:connector-curvature="0" /></clipPath><clipPath
       clipPathUnits="userSpaceOnUse"
       id="clipPath80"><path
         d="m 24,43.8163 2,0 L 26,20 l -2,0 0,23.8163 z"
         id="path82"
         inkscape:connector-curvature="0" /></clipPath></defs><sodipodi:namedview
     pagecolor="#ffffff"
     bordercolor="#666666"
     borderopacity="1"
     objecttolerance="10"
     gridtolerance="10"
     guidetolerance="10"
     inkscape:pageopacity="0"
     inkscape:pageshadow="2"
     inkscape:window-width="1680"
     inkscape:window-height="1028"
     id="namedview4"
     showgrid="false"
     inkscape:zoom="2.95"
     inkscape:cx="-80.338983"
     inkscape:cy="40"
     inkscape:window-x="-8"
     inkscape:window-y="142"
     inkscape:window-maximized="1"
     inkscape:current-layer="g10" /><g
     id="g10"
     inkscape:groupmode="layer"
     inkscape:label="Elegant_circle-icons"
     transform="matrix(1.25,0,0,-1.25,0,80)"><g
       id="g12"><g
         id="g14"
         clip-path="url(#clipPath16)"><g
           id="g20"
           transform="translate(63.8333,32)"><path
             d="m 0,0 c 0,-17.673 -14.327,-32 -32,-32 -17.673,0 -32,14.327 -32,32 0,17.673 14.327,32 32,32 C -14.327,32 0,17.673 0,0"
             style="fill:#e6e6e6;fill-opacity:0.56078434;fill-rule:nonzero;stroke:none"
             id="path22"
             inkscape:connector-curvature="0" /></g><g
           id="g24"><g
             id="g26" /><g
             id="g32"><g
               clip-path="url(#clipPath28)"
               id="g34"
               style="opacity:0.19999701"><g
                 transform="translate(52,16)"
                 id="g36"><path
                   d="m 0,0 c 0,-1.105 -0.895,-2 -2,-2 l -36,0 c -1.105,0 -2,0.895 -2,2 0,1.105 0.895,2 2,2 L -2,2 C -0.895,2 0,1.105 0,0"
                   style="fill:#231f20;fill-opacity:1;fill-rule:nonzero;stroke:none"
                   id="path38"
                   inkscape:connector-curvature="0" /></g></g></g></g><g
           id="g40"
           transform="translate(52,18)"><path
             d="m 0,0 c 0,-1.105 -0.895,-2 -2,-2 l -36,0 c -1.105,0 -2,0.895 -2,2 0,1.105 0.895,2 2,2 L -2,2 C -0.895,2 0,1.105 0,0"
             style="fill:#e0995e;fill-opacity:1;fill-rule:nonzero;stroke:none"
             id="path42"
             inkscape:connector-curvature="0" /></g><g
           id="g44"
           transform="translate(23,44)"><path
             d="m 0,0 -4,0 c -1.657,0 -3,-1.343 -3,-3 l 0,-17 0,-1 0,-3 3,0 4,0 3,0 0,3 0,1 0,17 C 3,-1.343 1.657,0 0,0"
             style="fill:#c75c5c;fill-opacity:1;fill-rule:nonzero;stroke:none"
             id="path46"
             inkscape:connector-curvature="0" /></g><g
           id="g48"
           transform="translate(45,48)"><path
             d="m 0,0 -4,0 c -1.657,0 -3,-1.343 -3,-3 l 0,-21 0,-1 0,-3 3,0 4,0 3,0 0,3 0,1 0,21 C 3,-1.343 1.657,0 0,0"
             style="fill:#e0e0d1;fill-opacity:1;fill-rule:nonzero;stroke:none"
             id="path50"
             inkscape:connector-curvature="0" /></g><path
           d="m 26,37 -10,0 0,3 10,0 0,-3 z"
           style="fill:#e0995e;fill-opacity:1;fill-rule:nonzero;stroke:none"
           id="path52"
           inkscape:connector-curvature="0" /><path
           d="m 26,24 -10,0 0,3 10,0 0,-3 z"
           style="fill:#e0995e;fill-opacity:1;fill-rule:nonzero;stroke:none"
           id="path54"
           inkscape:connector-curvature="0" /><path
           d="m 48,24 -10,0 0,3 10,0 0,-3 z"
           style="fill:#ffffff;fill-opacity:1;fill-rule:nonzero;stroke:none"
           id="path56"
           inkscape:connector-curvature="0" /><path
           d="m 48,41 -10,0 0,3 10,0 0,-3 z"
           style="fill:#ffffff;fill-opacity:1;fill-rule:nonzero;stroke:none"
           id="path58"
           inkscape:connector-curvature="0" /><g
           id="g60"><g
             id="g62" /><g
             id="g68"><g
               clip-path="url(#clipPath64)"
               id="g70"
               style="opacity:0.19999701"><g
                 transform="translate(40,24)"
                 id="g72"><path
                   d="M 0,0 0,23.816 C -1.163,23.403 -2,22.304 -2,21 l 0,-21 0,-1 0,-3 2,0 0,3 0,1 z"
                   style="fill:#231f20;fill-opacity:1;fill-rule:nonzero;stroke:none"
                   id="path74"
                   inkscape:connector-curvature="0" /></g></g></g></g><g
           id="g76"><g
             id="g78" /><g
             id="g84"><g
               clip-path="url(#clipPath80)"
               id="g86"
               style="opacity:0.19999701"><g
                 transform="translate(26,24)"
                 id="g88"><path
                   d="m 0,0 0,17 c 0,1.304 -0.837,2.403 -2,2.816 L -2,0 l 0,-1 0,-3 2,0 0,3 0,1 z"
                   style="fill:#231f20;fill-opacity:1;fill-rule:nonzero;stroke:none"
                   id="path90"
                   inkscape:connector-curvature="0" /></g></g></g></g><g
           id="g92"
           transform="translate(35,52)"><path
             d="m 0,0 -6,0 c -1.657,0 -3,-1.343 -3,-3 l 0,-25 0,-1 0,-3 3,0 6,0 3,0 0,3 0,1 0,25 C 3,-1.343 1.657,0 0,0"
             style="fill:#77b3d4;fill-opacity:1;fill-rule:nonzero;stroke:none"
             id="path94"
             inkscape:connector-curvature="0" /></g><path
           d="m 38,45 -12,0 0,3 12,0 0,-3 z"
           style="fill:#76c2af;fill-opacity:1;fill-rule:nonzero;stroke:none"
           id="path96"
           inkscape:connector-curvature="0" /><path
           d="m 38,24 -12,0 0,3 12,0 0,-3 z"
           style="fill:#76c2af;fill-opacity:1;fill-rule:nonzero;stroke:none"
           id="path98"
           inkscape:connector-curvature="0" /></g></g></g></svg>