<?xml version="1.0" encoding="UTF-8" standalone="no"?>
<!-- Created with Inkscape (http://www.inkscape.org/) -->

<svg
   xmlns:dc="http://purl.org/dc/elements/1.1/"
   xmlns:cc="http://creativecommons.org/ns#"
   xmlns:rdf="http://www.w3.org/1999/02/22-rdf-syntax-ns#"
   xmlns:svg="http://www.w3.org/2000/svg"
   xmlns="http://www.w3.org/2000/svg"
   xmlns:sodipodi="http://sodipodi.sourceforge.net/DTD/sodipodi-0.dtd"
   xmlns:inkscape="http://www.inkscape.org/namespaces/inkscape"
   id="svg2"
   version="1.1"
   inkscape:version="0.91 r13725"
   xml:space="preserve"
   width="80"
   height="80"
   viewBox="0 0 80 80"
   sodipodi:docname="overview-logo.svg"><metadata
     id="metadata8"><rdf:RDF><cc:Work
         rdf:about=""><dc:format>image/svg+xml</dc:format><dc:type
           rdf:resource="http://purl.org/dc/dcmitype/StillImage" /><dc:title /></cc:Work></rdf:RDF></metadata><defs
     id="defs6"><clipPath
       clipPathUnits="userSpaceOnUse"
       id="clipPath16"><path
         d="M 0,64 64,64 64,0 0,0 0,64 Z"
         id="path18"
         inkscape:connector-curvature="0" /></clipPath><clipPath
       clipPathUnits="userSpaceOnUse"
       id="clipPath28"><path
         d="m 12,34 40,0 0,-24 -40,0 0,24 z"
         id="path30"
         inkscape:connector-curvature="0" /></clipPath><clipPath
       clipPathUnits="userSpaceOnUse"
       id="clipPath48"><path
         d="m 12,42 40,0 0,-24 -40,0 0,24 z"
         id="path50"
         inkscape:connector-curvature="0" /></clipPath><clipPath
       clipPathUnits="userSpaceOnUse"
       id="clipPath68"><path
         d="m 12,50 40,0 0,-24 -40,0 0,24 z"
         id="path70"
         inkscape:connector-curvature="0" /></clipPath></defs><sodipodi:namedview
     pagecolor="#ffffff"
     bordercolor="#666666"
     borderopacity="1"
     objecttolerance="10"
     gridtolerance="10"
     guidetolerance="10"
     inkscape:pageopacity="0"
     inkscape:pageshadow="2"
     inkscape:window-width="1920"
     inkscape:window-height="1152"
     id="namedview4"
     showgrid="false"
     inkscape:zoom="2.95"
     inkscape:cx="-80.338983"
     inkscape:cy="40"
     inkscape:window-x="0"
     inkscape:window-y="0"
     inkscape:window-maximized="1"
     inkscape:current-layer="g10" /><g
     id="g10"
     inkscape:groupmode="layer"
     inkscape:label="Elegant_circle-icons"
     transform="matrix(1.25,0,0,-1.25,0,80)"><g
       id="g12"><g
         id="g14"
         clip-path="url(#clipPath16)"><g
           id="g20"
           transform="translate(64,32)"><path
             d="m 0,0 c 0,-17.673 -14.327,-32 -32,-32 -17.673,0 -32,14.327 -32,32 0,17.673 14.327,32 32,32 C -14.327,32 0,17.673 0,0"
             style="fill:#e6e6e6;fill-opacity:0.56078434;fill-rule:nonzero;stroke:none"
             id="path22"
             inkscape:connector-curvature="0" /></g><g
           id="g24"><g
             id="g26" /><g
             id="g32"><g
               clip-path="url(#clipPath28)"
               id="g34"
               style="opacity:0.19999701"><g
                 transform="translate(33.7522,10.4355)"
                 id="g36"><path
                   d="m 0,0 c -0.968,-0.581 -2.537,-0.581 -3.504,0 l -17.522,10.513 c -0.968,0.581 -0.968,1.522 0,2.103 l 17.522,10.513 c 0.967,0.581 2.536,0.581 3.504,0 L 17.522,12.616 c 0.968,-0.581 0.968,-1.522 0,-2.103 L 0,0 Z"
                   style="fill:#231f20;fill-opacity:1;fill-rule:nonzero;stroke:none"
                   id="path38"
                   inkscape:connector-curvature="0" /></g></g></g></g><g
           id="g40"
           transform="translate(33.7522,12.4355)"><path
             d="m 0,0 c -0.968,-0.581 -2.537,-0.581 -3.504,0 l -17.522,10.513 c -0.968,0.581 -0.968,1.522 0,2.103 l 17.522,10.513 c 0.967,0.581 2.536,0.581 3.504,0 L 17.522,12.616 c 0.968,-0.581 0.968,-1.522 0,-2.103 L 0,0 Z"
             style="fill:#c75c5c;fill-opacity:1;fill-rule:nonzero;stroke:none"
             id="path42"
             inkscape:connector-curvature="0" /></g><g
           id="g44"><g
             id="g46" /><g
             id="g52"><g
               clip-path="url(#clipPath48)"
               id="g54"
               style="opacity:0.19999701"><g
                 transform="translate(33.7522,18.4355)"
                 id="g56"><path
                   d="m 0,0 c -0.968,-0.581 -2.537,-0.581 -3.504,0 l -17.522,10.513 c -0.968,0.581 -0.968,1.522 0,2.103 l 17.522,10.513 c 0.967,0.581 2.536,0.581 3.504,0 L 17.522,12.616 c 0.968,-0.581 0.968,-1.522 0,-2.103 L 0,0 Z"
                   style="fill:#231f20;fill-opacity:1;fill-rule:nonzero;stroke:none"
                   id="path58"
                   inkscape:connector-curvature="0" /></g></g></g></g><g
           id="g60"
           transform="translate(33.7522,20.4355)"><path
             d="m 0,0 c -0.968,-0.581 -2.537,-0.581 -3.504,0 l -17.522,10.513 c -0.968,0.581 -0.968,1.522 0,2.103 l 17.522,10.513 c 0.967,0.581 2.536,0.581 3.504,0 L 17.522,12.616 c 0.968,-0.581 0.968,-1.522 0,-2.103 L 0,0 Z"
             style="fill:#76c2af;fill-opacity:1;fill-rule:nonzero;stroke:none"
             id="path62"
             inkscape:connector-curvature="0" /></g><g
           id="g64"><g
             id="g66" /><g
             id="g72"><g
               clip-path="url(#clipPath68)"
               id="g74"
               style="opacity:0.19999701"><g
                 transform="translate(33.7522,26.4355)"
                 id="g76"><path
                   d="m 0,0 c -0.968,-0.581 -2.537,-0.581 -3.504,0 l -17.522,10.513 c -0.968,0.581 -0.968,1.522 0,2.103 l 17.522,10.513 c 0.967,0.581 2.536,0.581 3.504,0 L 17.522,12.616 c 0.968,-0.581 0.968,-1.522 0,-2.103 L 0,0 Z"
                   style="fill:#231f20;fill-opacity:1;fill-rule:nonzero;stroke:none"
                   id="path78"
                   inkscape:connector-curvature="0" /></g></g></g></g><g
           id="g80"
           transform="translate(33.7522,28.4355)"><path
             d="m 0,0 c -0.968,-0.581 -2.537,-0.581 -3.504,0 l -17.522,10.513 c -0.968,0.581 -0.968,1.522 0,2.103 l 17.522,10.513 c 0.967,0.581 2.536,0.581 3.504,0 L 17.522,12.616 c 0.968,-0.581 0.968,-1.522 0,-2.103 L 0,0 Z"
             style="fill:#e0995e;fill-opacity:1;fill-rule:nonzero;stroke:none"
             id="path82"
             inkscape:connector-curvature="0" /></g></g></g></g></svg>