<?xml version="1.0" encoding="UTF-8" standalone="no"?>
<!-- Created with Inkscape (http://www.inkscape.org/) -->

<svg
   xmlns:dc="http://purl.org/dc/elements/1.1/"
   xmlns:cc="http://creativecommons.org/ns#"
   xmlns:rdf="http://www.w3.org/1999/02/22-rdf-syntax-ns#"
   xmlns:svg="http://www.w3.org/2000/svg"
   xmlns="http://www.w3.org/2000/svg"
   xmlns:sodipodi="http://sodipodi.sourceforge.net/DTD/sodipodi-0.dtd"
   xmlns:inkscape="http://www.inkscape.org/namespaces/inkscape"
   id="svg2"
   version="1.1"
   inkscape:version="0.91 r13725"
   xml:space="preserve"
   width="80"
   height="80"
   viewBox="0 0 80 80"
   sodipodi:docname="search-logo.svg"><metadata
     id="metadata8"><rdf:RDF><cc:Work
         rdf:about=""><dc:format>image/svg+xml</dc:format><dc:type
           rdf:resource="http://purl.org/dc/dcmitype/StillImage" /><dc:title></dc:title></cc:Work></rdf:RDF></metadata><defs
     id="defs6"><clipPath
       clipPathUnits="userSpaceOnUse"
       id="clipPath16"><path
         d="M 0,64 64,64 64,0 0,0 0,64 Z"
         id="path18"
         inkscape:connector-curvature="0" /></clipPath><clipPath
       clipPathUnits="userSpaceOnUse"
       id="clipPath28"><path
         d="m 33.5,28.5 17,0 0,-17 -17,0 0,17 z"
         id="path30"
         inkscape:connector-curvature="0" /></clipPath><clipPath
       clipPathUnits="userSpaceOnUse"
       id="clipPath52"><path
         d="m 13.8258,48.1811 29.1204,0 0,-29.1341 -29.1204,0 0,29.1341 z"
         id="path54"
         inkscape:connector-curvature="0" /></clipPath></defs><sodipodi:namedview
     pagecolor="#ffffff"
     bordercolor="#666666"
     borderopacity="1"
     objecttolerance="10"
     gridtolerance="10"
     guidetolerance="10"
     inkscape:pageopacity="0"
     inkscape:pageshadow="2"
     inkscape:window-width="1920"
     inkscape:window-height="1058"
     id="namedview4"
     showgrid="false"
     inkscape:zoom="2.95"
     inkscape:cx="40"
     inkscape:cy="40"
     inkscape:window-x="3592"
     inkscape:window-y="112"
     inkscape:window-maximized="1"
     inkscape:current-layer="g10" /><g
     id="g10"
     inkscape:groupmode="layer"
     inkscape:label="Elegant_circle-icons"
     transform="matrix(1.25,0,0,-1.25,0,80)"><g
       id="g12"><g
         id="g14"
         clip-path="url(#clipPath16)"><g
           id="g20"
           transform="translate(64,32)"><path
             d="m 0,0 c 0,-17.673 -14.327,-32 -32,-32 -17.673,0 -32,14.327 -32,32 0,17.673 14.327,32 32,32 C -14.327,32 0,17.673 0,0"
             style="fill:#e6e6e6;fill-opacity:0.56078434;fill-rule:nonzero;stroke:none"
             id="path22"
             inkscape:connector-curvature="0" /></g><g
           id="g24"><g
             id="g26" /><g
             id="g32"><g
               clip-path="url(#clipPath28)"
               id="g34"
               style="opacity:0.19999701"><g
                 transform="translate(48,11.5)"
                 id="g36"><path
                   d="m 0,0 c -0.64,0 -1.28,0.244 -1.768,0.732 l -12,12 c -0.976,0.977 -0.976,2.559 0,3.536 0.976,0.976 2.56,0.976 3.536,0 l 12,-12 C 2.744,3.291 2.744,1.709 1.768,0.732 1.28,0.244 0.64,0 0,0"
                   style="fill:#231f20;fill-opacity:1;fill-rule:nonzero;stroke:none"
                   id="path38"
                   inkscape:connector-curvature="0" /></g></g></g></g><g
           id="g40"
           transform="translate(48,13.5)"><path
             d="m 0,0 c -0.64,0 -1.28,0.244 -1.768,0.732 l -12,12 c -0.976,0.977 -0.976,2.559 0,3.536 0.976,0.976 2.56,0.976 3.536,0 l 12,-12 C 2.744,3.291 2.744,1.709 1.768,0.732 1.28,0.244 0.64,0 0,0"
             style="fill:#4f5d73;fill-opacity:1;fill-rule:nonzero;stroke:none"
             id="path42"
             inkscape:connector-curvature="0" /></g><g
           id="g44"
           transform="translate(35.858,43.086)"><path
             d="m 0,0 c 4.127,-4.127 4.127,-10.817 0,-14.944 -4.127,-4.127 -10.817,-4.127 -14.944,0 -4.127,4.127 -4.127,10.817 0,14.944 C -10.817,4.127 -4.127,4.127 0,0"
             style="fill:#77b3d4;fill-opacity:1;fill-rule:nonzero;stroke:none"
             id="path46"
             inkscape:connector-curvature="0" /></g><g
           id="g48"><g
             id="g50" /><g
             id="g56"><g
               clip-path="url(#clipPath52)"
               id="g58"
               style="opacity:0.19999701"><g
                 transform="translate(28.386,48.1811)"
                 id="g60"><path
                   d="m 0,0 c -3.891,0 -7.549,-1.515 -10.3,-4.267 -5.68,-5.679 -5.68,-14.921 0,-20.6 2.751,-2.752 6.409,-4.267 10.3,-4.267 3.891,0 7.549,1.515 10.3,4.267 5.68,5.679 5.68,14.921 0,20.6 C 7.549,-1.515 3.891,0 0,0 m 0,-4 c 2.704,0 5.409,-1.032 7.472,-3.095 4.127,-4.127 4.127,-10.817 0,-14.944 -2.063,-2.063 -4.768,-3.095 -7.472,-3.095 -2.704,0 -5.409,1.032 -7.472,3.095 -4.127,4.127 -4.127,10.817 0,14.944 C -5.409,-5.032 -2.704,-4 0,-4"
                   style="fill:#231f20;fill-opacity:1;fill-rule:nonzero;stroke:none"
                   id="path62"
                   inkscape:connector-curvature="0" /></g></g></g></g><g
           id="g64"
           transform="translate(28.386,50.1811)"><path
             d="m 0,0 c -3.891,0 -7.549,-1.515 -10.3,-4.267 -5.68,-5.679 -5.68,-14.921 0,-20.6 2.751,-2.752 6.409,-4.267 10.3,-4.267 3.891,0 7.549,1.515 10.3,4.267 5.68,5.679 5.68,14.921 0,20.6 C 7.549,-1.515 3.891,0 0,0 m 0,-4 c 2.704,0 5.409,-1.032 7.472,-3.095 4.127,-4.127 4.127,-10.817 0,-14.944 -2.063,-2.063 -4.768,-3.095 -7.472,-3.095 -2.704,0 -5.409,1.032 -7.472,3.095 -4.127,4.127 -4.127,10.817 0,14.944 C -5.409,-5.032 -2.704,-4 0,-4"
             style="fill:#ffffff;fill-opacity:1;fill-rule:nonzero;stroke:none"
             id="path66"
             inkscape:connector-curvature="0" /></g></g></g></g></svg>