<?xml version="1.0" encoding="UTF-8" standalone="no"?>
<!-- Created with Inkscape (http://www.inkscape.org/) -->

<svg
   xmlns:dc="http://purl.org/dc/elements/1.1/"
   xmlns:cc="http://creativecommons.org/ns#"
   xmlns:rdf="http://www.w3.org/1999/02/22-rdf-syntax-ns#"
   xmlns:svg="http://www.w3.org/2000/svg"
   xmlns="http://www.w3.org/2000/svg"
   xmlns:sodipodi="http://sodipodi.sourceforge.net/DTD/sodipodi-0.dtd"
   xmlns:inkscape="http://www.inkscape.org/namespaces/inkscape"
   id="svg2"
   version="1.1"
   inkscape:version="0.91 r13725"
   xml:space="preserve"
   width="80"
   height="80"
   viewBox="0 0 80 80"
   sodipodi:docname="seed-logo.svg"><metadata
     id="metadata8"><rdf:RDF><cc:Work
         rdf:about=""><dc:format>image/svg+xml</dc:format><dc:type
           rdf:resource="http://purl.org/dc/dcmitype/StillImage" /><dc:title /></cc:Work></rdf:RDF></metadata><defs
     id="defs6"><clipPath
       clipPathUnits="userSpaceOnUse"
       id="clipPath16"><path
         d="M 0,64 64,64 64,0 0,0 0,64 Z"
         id="path18"
         inkscape:connector-curvature="0" /></clipPath><clipPath
       clipPathUnits="userSpaceOnUse"
       id="clipPath28"><path
         d="m 9.16716,55.5 45.66564,0 0,-51 -45.66564,0 0,51 z"
         id="path30"
         inkscape:connector-curvature="0" /></clipPath></defs><sodipodi:namedview
     pagecolor="#ffffff"
     bordercolor="#666666"
     borderopacity="1"
     objecttolerance="10"
     gridtolerance="10"
     guidetolerance="10"
     inkscape:pageopacity="0"
     inkscape:pageshadow="2"
     inkscape:window-width="1920"
     inkscape:window-height="1152"
     id="namedview4"
     showgrid="false"
     inkscape:zoom="2.95"
     inkscape:cx="-80.338983"
     inkscape:cy="40"
     inkscape:window-x="0"
     inkscape:window-y="0"
     inkscape:window-maximized="1"
     inkscape:current-layer="g10" /><g
     id="g10"
     inkscape:groupmode="layer"
     inkscape:label="Elegant_circle-icons"
     transform="matrix(1.25,0,0,-1.25,0,80)"><g
       id="g12"><g
         id="g14"
         clip-path="url(#clipPath16)"><g
           id="g20"
           transform="translate(64,32)"><path
             d="m 0,0 c 0,-17.673 -14.327,-32 -32,-32 -17.673,0 -32,14.327 -32,32 0,17.673 14.327,32 32,32 C -14.327,32 0,17.673 0,0"
             style="fill:#e6e6e6;fill-opacity:0.56078434;fill-rule:nonzero;stroke:none"
             id="path22"
             inkscape:connector-curvature="0" /></g><g
           id="g24"><g
             id="g26" /><g
             id="g32"><g
               clip-path="url(#clipPath28)"
               id="g34"
               style="opacity:0.19999701"><g
                 transform="translate(51.4858,18.75)"
                 id="g36"><path
                   d="m 0,0 c -0.689,-1.193 -2.507,-1.85 -5.119,-1.85 -1.395,0 -2.958,0.201 -4.615,0.548 0.46,1.95 0.811,4.069 1.039,6.322 1.845,1.33 3.51,2.699 4.973,4.077 C -0.297,5.281 1.072,1.857 0,0 m -19.486,-11.25 c -2.149,0 -4.436,2.91 -6.03,7.805 1.953,0.584 3.982,1.341 6.03,2.253 2.049,-0.912 4.077,-1.669 6.03,-2.253 -1.594,-4.895 -3.881,-7.805 -6.03,-7.805 m -14.367,9.4 c -2.612,0 -4.43,0.657 -5.119,1.85 -1.072,1.857 0.298,5.281 3.722,9.097 1.463,-1.378 3.128,-2.747 4.973,-4.077 0.229,-2.253 0.58,-4.372 1.039,-6.322 -1.657,-0.347 -3.22,-0.548 -4.615,-0.548 m -5.119,24.35 c 0.689,1.193 2.507,1.85 5.119,1.85 1.395,0 2.958,-0.201 4.615,-0.548 -0.459,-1.95 -0.81,-4.069 -1.039,-6.322 -1.845,-1.33 -3.51,-2.699 -4.973,-4.077 -3.424,3.816 -4.794,7.24 -3.722,9.097 m 19.486,11.25 c 2.149,0 4.436,-2.91 6.03,-7.805 -1.953,-0.584 -3.981,-1.341 -6.03,-2.253 -2.048,0.912 -4.077,1.669 -6.03,2.253 1.594,4.895 3.881,7.805 6.03,7.805 M -8.427,13.489 c 0.931,-0.748 1.791,-1.496 2.581,-2.239 -0.79,-0.743 -1.65,-1.491 -2.581,-2.239 0.025,0.737 0.041,1.482 0.041,2.239 0,0.757 -0.016,1.502 -0.041,2.239 m -7.469,8.452 c 1.101,0.427 2.177,0.786 3.234,1.105 0.247,-1.052 0.463,-2.165 0.645,-3.339 -0.626,0.39 -1.263,0.777 -1.919,1.155 -0.65,0.376 -1.305,0.732 -1.96,1.079 m -11.058,-2.234 c 0.181,1.174 0.397,2.287 0.644,3.339 1.057,-0.319 2.133,-0.678 3.235,-1.105 -0.656,-0.347 -1.31,-0.703 -1.961,-1.079 -0.656,-0.378 -1.293,-0.765 -1.918,-1.155 M -30.545,9.011 c -0.93,0.748 -1.79,1.496 -2.581,2.239 0.791,0.743 1.651,1.491 2.581,2.239 -0.025,-0.737 -0.041,-1.482 -0.041,-2.239 0,-0.757 0.016,-1.502 0.041,-2.239 m 7.47,-8.452 c -1.102,-0.427 -2.178,-0.786 -3.235,-1.105 -0.247,1.052 -0.463,2.165 -0.644,3.339 0.625,-0.39 1.262,-0.777 1.918,-1.155 0.651,-0.376 1.305,-0.732 1.961,-1.079 m 11.058,2.234 c -0.182,-1.174 -0.398,-2.287 -0.645,-3.339 -1.057,0.319 -2.133,0.678 -3.234,1.105 0.655,0.347 1.31,0.703 1.96,1.079 0.656,0.378 1.293,0.765 1.919,1.155 m -3.419,1.442 c -1.345,-0.776 -2.7,-1.471 -4.05,-2.113 -1.35,0.642 -2.705,1.337 -4.05,2.113 -1.374,0.794 -2.662,1.612 -3.871,2.442 -0.114,1.462 -0.179,2.987 -0.179,4.573 0,1.586 0.065,3.111 0.179,4.573 1.209,0.83 2.497,1.648 3.871,2.442 1.345,0.776 2.7,1.471 4.05,2.113 1.35,-0.642 2.705,-1.337 4.05,-2.113 1.374,-0.794 2.662,-1.612 3.872,-2.442 0.114,-1.462 0.178,-2.987 0.178,-4.573 0,-1.586 -0.064,-3.111 -0.178,-4.573 -1.21,-0.83 -2.498,-1.648 -3.872,-2.442 M -5.119,24.35 c 2.612,0 4.43,-0.657 5.119,-1.85 1.072,-1.857 -0.297,-5.281 -3.722,-9.097 -1.463,1.378 -3.128,2.747 -4.973,4.077 -0.228,2.253 -0.579,4.372 -1.039,6.322 1.657,0.347 3.22,0.548 4.615,0.548 M 2.598,24 c -0.882,1.528 -2.937,3.35 -7.717,3.35 -1.643,0 -3.471,-0.225 -5.414,-0.647 -1.987,6.183 -5.196,10.047 -8.953,10.047 -3.757,0 -6.965,-3.864 -8.952,-10.047 -1.943,0.422 -3.772,0.647 -5.415,0.647 -4.779,0 -6.835,-1.822 -7.716,-3.35 -1.875,-3.248 -0.142,-7.948 4.201,-12.75 -4.343,-4.802 -6.076,-9.502 -4.201,-12.75 0.881,-1.528 2.937,-3.35 7.716,-3.35 1.643,0 3.472,0.225 5.415,0.647 1.987,-6.183 5.195,-10.047 8.952,-10.047 3.757,0 6.966,3.864 8.953,10.047 1.943,-0.422 3.771,-0.647 5.414,-0.647 4.78,0 6.835,1.822 7.717,3.35 C 4.473,1.748 2.74,6.448 -1.603,11.25 2.74,16.052 4.473,20.752 2.598,24"
                   style="fill:#231f20;fill-opacity:1;fill-rule:nonzero;stroke:none"
                   id="path38"
                   inkscape:connector-curvature="0" /></g><g
                 transform="translate(32,33)"
                 id="g40"><path
                   d="m 0,0 c -1.657,0 -3,-1.343 -3,-3 0,-1.657 1.343,-3 3,-3 1.657,0 3,1.343 3,3 0,1.657 -1.343,3 -3,3"
                   style="fill:#231f20;fill-opacity:1;fill-rule:nonzero;stroke:none"
                   id="path42"
                   inkscape:connector-curvature="0" /></g></g></g></g><g
           id="g44"
           transform="translate(32,54.5)"><path
             d="m 0,0 c -3.831,0 -8.1,-9.24 -8.1,-22.5 0,-13.26 4.269,-22.5 8.1,-22.5 3.831,0 8.1,9.24 8.1,22.5 C 8.1,-9.24 3.831,0 0,0 m 0,-48 c -6.328,0 -11.1,10.963 -11.1,25.5 C -11.1,-7.963 -6.328,3 0,3 6.328,3 11.1,-7.963 11.1,-22.5 11.1,-37.037 6.328,-48 0,-48"
             style="fill:#c75c5c;fill-opacity:1;fill-rule:nonzero;stroke:none"
             id="path46"
             inkscape:connector-curvature="0" /></g><g
           id="g48"
           transform="translate(46.3667,45.0996)"><path
             d="m 0,0 c -4.932,0 -11.817,-2.274 -18.417,-6.085 -11.483,-6.63 -17.351,-14.946 -15.436,-18.265 0.689,-1.193 2.507,-1.849 5.12,-1.849 4.932,0 11.816,2.274 18.416,6.085 C 1.167,-13.484 7.035,-5.168 5.119,-1.85 4.43,-0.656 2.612,0 0,0 m -28.733,-29.199 c -4.78,0 -6.835,1.821 -7.717,3.349 -3.164,5.481 3.944,15.095 16.533,22.363 C -12.881,0.575 -5.436,3 0,3 4.78,3 6.835,1.179 7.717,-0.35 10.881,-5.83 3.773,-15.444 -8.817,-22.712 c -7.036,-4.062 -14.481,-6.487 -19.916,-6.487"
             style="fill:#ffffff;fill-opacity:1;fill-rule:nonzero;stroke:none"
             id="path50"
             inkscape:connector-curvature="0" /></g><g
           id="g52"
           transform="translate(46.3667,45.0996)"><path
             d="m 0,0 c -4.932,0 -11.817,-2.274 -18.417,-6.085 -11.483,-6.63 -17.351,-14.946 -15.436,-18.265 0.689,-1.193 2.507,-1.849 5.12,-1.849 4.932,0 11.816,2.274 18.416,6.085 C 1.167,-13.484 7.035,-5.168 5.119,-1.85 4.43,-0.656 2.612,0 0,0 m -28.733,-29.199 c -4.78,0 -6.835,1.821 -7.717,3.349 -3.164,5.481 3.944,15.095 16.533,22.363 C -12.881,0.575 -5.436,3 0,3 4.78,3 6.835,1.179 7.717,-0.35 10.881,-5.83 3.773,-15.444 -8.817,-22.712 c -7.036,-4.062 -14.481,-6.487 -19.916,-6.487"
             style="fill:#c75c5c;fill-opacity:1;fill-rule:nonzero;stroke:none"
             id="path54"
             inkscape:connector-curvature="0" /></g><g
           id="g56"
           transform="translate(17.6333,45.0996)"><path
             d="m 0,0 c -2.612,0 -4.43,-0.656 -5.119,-1.85 -1.916,-3.318 3.952,-11.634 15.436,-18.264 6.6,-3.811 13.484,-6.085 18.416,-6.085 2.613,0 4.431,0.656 5.12,1.849 1.915,3.319 -3.953,11.635 -15.436,18.265 C 11.817,-2.274 4.932,0 0,0 m 28.733,-29.199 c -5.435,0 -12.88,2.425 -19.916,6.487 C -3.773,-15.444 -10.881,-5.83 -7.717,-0.35 -6.835,1.179 -4.78,3 0,3 5.436,3 12.881,0.575 19.917,-3.487 32.506,-10.755 39.614,-20.369 36.45,-25.85 c -0.882,-1.528 -2.937,-3.349 -7.717,-3.349"
             style="fill:#c75c5c;fill-opacity:1;fill-rule:nonzero;stroke:none"
             id="path58"
             inkscape:connector-curvature="0" /></g><g
           id="g60"
           transform="translate(35,32)"><path
             d="m 0,0 c 0,-1.657 -1.343,-3 -3,-3 -1.657,0 -3,1.343 -3,3 0,1.657 1.343,3 3,3 1.657,0 3,-1.343 3,-3"
             style="fill:#c75c5c;fill-opacity:1;fill-rule:nonzero;stroke:none"
             id="path62"
             inkscape:connector-curvature="0" /></g></g></g></g></svg>