<?xml version="1.0" encoding="UTF-8" standalone="no"?>
<!-- Created with Inkscape (http://www.inkscape.org/) -->

<svg
   xmlns:dc="http://purl.org/dc/elements/1.1/"
   xmlns:cc="http://creativecommons.org/ns#"
   xmlns:rdf="http://www.w3.org/1999/02/22-rdf-syntax-ns#"
   xmlns:svg="http://www.w3.org/2000/svg"
   xmlns="http://www.w3.org/2000/svg"
   xmlns:sodipodi="http://sodipodi.sourceforge.net/DTD/sodipodi-0.dtd"
   xmlns:inkscape="http://www.inkscape.org/namespaces/inkscape"
   id="svg3336"
   version="1.1"
   inkscape:version="0.91 r13725"
   xml:space="preserve"
   width="80"
   height="80"
   viewBox="0 0 80 80"
   sodipodi:docname="showcase-logo.svg"><metadata
     id="metadata3342"><rdf:RDF><cc:Work
         rdf:about=""><dc:format>image/svg+xml</dc:format><dc:type
           rdf:resource="http://purl.org/dc/dcmitype/StillImage" /></cc:Work></rdf:RDF></metadata><defs
     id="defs3340"><clipPath
       clipPathUnits="userSpaceOnUse"
       id="clipPath3350"><path
         d="M 0,64 64,64 64,0 0,0 0,64 Z"
         id="path3352"
         inkscape:connector-curvature="0" /></clipPath><clipPath
       clipPathUnits="userSpaceOnUse"
       id="clipPath3362"><path
         d="m 12,50 40,0 0,-40 -40,0 0,40 z"
         id="path3364"
         inkscape:connector-curvature="0" /></clipPath><clipPath
       clipPathUnits="userSpaceOnUse"
       id="clipPath3382"><path
         d="m 24,50 4,0 0,-40 -4,0 0,40 z"
         id="path3384"
         inkscape:connector-curvature="0" /></clipPath><clipPath
       clipPathUnits="userSpaceOnUse"
       id="clipPath3396"><path
         d="m 12,34 40,0 0,-4 -40,0 0,4 z"
         id="path3398"
         inkscape:connector-curvature="0" /></clipPath><clipPath
       clipPathUnits="userSpaceOnUse"
       id="clipPath3414"><path
         d="m 14,43.8492 23.9143,0 0,-23.7681 -23.9143,0 0,23.7681 z"
         id="path3416"
         inkscape:connector-curvature="0" /></clipPath></defs><sodipodi:namedview
     pagecolor="#ffffff"
     bordercolor="#666666"
     borderopacity="1"
     objecttolerance="10"
     gridtolerance="10"
     guidetolerance="10"
     inkscape:pageopacity="0"
     inkscape:pageshadow="2"
     inkscape:window-width="1920"
     inkscape:window-height="1138"
     id="namedview3338"
     showgrid="false"
     inkscape:zoom="12.1125"
     inkscape:cx="27.203302"
     inkscape:cy="40"
     inkscape:window-x="1672"
     inkscape:window-y="-8"
     inkscape:window-maximized="1"
     inkscape:current-layer="g3344" /><g
     id="g3344"
     inkscape:groupmode="layer"
     inkscape:label="Elegant_circle-icons"
     transform="matrix(1.25,0,0,-1.25,0,80)"><g
       id="g3346"><g
         id="g3348"
         clip-path="url(#clipPath3350)"><g
           id="g3354"
           transform="translate(64,32)"><path
             d="m 0,0 c 0,-17.673 -14.327,-32 -32,-32 -17.673,0 -32,14.327 -32,32 0,17.673 14.327,32 32,32 C -14.327,32 0,17.673 0,0"
             style="fill:#e6e6e6;fill-opacity:0.56078434;fill-rule:nonzero;stroke:none"
             id="path3356"
             inkscape:connector-curvature="0" /></g><g
           id="g3358"><g
             id="g3360" /><g
             id="g3366"><g
               clip-path="url(#clipPath3362)"
               id="g3368"
               style="opacity:0.19999701"><g
                 transform="translate(52,14)"
                 id="g3370"><path
                   d="m 0,0 c 0,-2.209 -1.791,-4 -4,-4 l -32,0 c -2.209,0 -4,1.791 -4,4 l 0,32 c 0,2.209 1.791,4 4,4 l 32,0 c 2.209,0 4,-1.791 4,-4 L 0,0 Z"
                   style="fill:#231f20;fill-opacity:1;fill-rule:nonzero;stroke:none"
                   id="path3372"
                   inkscape:connector-curvature="0" /></g></g></g></g><g
           id="g3374"
           transform="translate(52,16)"><path
             d="m 0,0 c 0,-2.209 -1.791,-4 -4,-4 l -32,0 c -2.209,0 -4,1.791 -4,4 l 0,32 c 0,2.209 1.791,4 4,4 l 32,0 c 2.209,0 4,-1.791 4,-4 L 0,0 Z"
             style="fill:#c75c5c;fill-opacity:1;fill-rule:nonzero;stroke:none"
             id="path3376"
             inkscape:connector-curvature="0" /></g><g
           id="g3378"><g
             id="g3380" /><g
             id="g3386"><g
               clip-path="url(#clipPath3382)"
               id="g3388"
               style="opacity:0.19999701"><path
                 d="m 28,10 -4,0 0,40 4,0 0,-40 z"
                 style="fill:#231f20;fill-opacity:1;fill-rule:nonzero;stroke:none"
                 id="path3390"
                 inkscape:connector-curvature="0" /></g></g></g><g
           id="g3392"><g
             id="g3394" /><g
             id="g3400"><g
               clip-path="url(#clipPath3396)"
               id="g3402"
               style="opacity:0.19999701"><path
                 d="m 52,30 -40,0 0,4 40,0 0,-4 z"
                 style="fill:#231f20;fill-opacity:1;fill-rule:nonzero;stroke:none"
                 id="path3404"
                 inkscape:connector-curvature="0" /></g></g></g><path
           d="m 28,12 -4,0 0,40 4,0 0,-40 z"
           style="fill:#f5cf87;fill-opacity:1;fill-rule:nonzero;stroke:none"
           id="path3406"
           inkscape:connector-curvature="0" /><path
           d="m 52,32 -40,0 0,4 40,0 0,-4 z"
           style="fill:#f5cf87;fill-opacity:1;fill-rule:nonzero;stroke:none"
           id="path3408"
           inkscape:connector-curvature="0" /><g
           id="g3410"><g
             id="g3412" /><g
             id="g3418"><g
               clip-path="url(#clipPath3414)"
               id="g3420"
               style="opacity:0.19999701"><g
                 transform="translate(33.9113,35.0031)"
                 id="g3422"><path
                   d="m 0,0 c -0.762,-0.762 -2.111,-1.073 -4.657,-1.073 -0.408,0 -0.823,0.007 -1.243,0.016 -0.057,2.612 -0.021,4.822 1.057,5.9 0.647,0.647 1.507,1.003 2.421,1.003 C -1.507,5.846 -0.647,5.49 0,4.843 1.335,3.508 1.335,1.335 0,0 m -11.065,-10.919 c -0.647,-0.647 -1.507,-1.003 -2.422,-1.003 -0.914,0 -1.774,0.356 -2.421,1.003 -1.335,1.335 -1.335,3.508 0,4.843 0.762,0.762 2.111,1.073 4.656,1.073 0.409,0 0.824,-0.007 1.244,-0.016 0.057,-2.611 0.021,-4.822 -1.057,-5.9 M 2.121,6.964 c -1.254,1.255 -2.898,1.882 -4.543,1.882 -1.644,0 -3.288,-0.627 -4.542,-1.882 -1.831,-1.83 -1.991,-4.548 -1.944,-7.547 -0.631,0.291 -4.858,2.38 -5.277,6.186 -0.09,0.824 -0.835,1.415 -1.655,1.328 -0.823,-0.091 -1.417,-0.832 -1.327,-1.656 0.392,-3.564 2.86,-5.949 4.796,-7.3 -2.237,-0.087 -4.222,-0.493 -5.659,-1.929 -2.509,-2.509 -2.509,-6.577 0,-9.086 1.255,-1.255 2.899,-1.882 4.543,-1.882 1.645,0 3.289,0.627 4.543,1.882 1.721,1.72 1.966,4.225 1.951,7.01 0.102,-0.108 0.215,-0.207 0.351,-0.283 0.047,-0.026 4.647,-2.655 4.647,-6.774 0,-0.828 0.672,-1.5 1.5,-1.5 0.829,0 1.5,0.672 1.5,1.5 0,4.851 -4.008,7.978 -5.575,9.016 2.656,0.006 5.037,0.295 6.691,1.95 2.509,2.509 2.509,6.576 0,9.085"
                   style="fill:#231f20;fill-opacity:1;fill-rule:nonzero;stroke:none"
                   id="path3424"
                   inkscape:connector-curvature="0" /></g></g></g></g><g
           id="g3426"
           transform="translate(31.4897,45.8492)"><path
             d="m 0,0 c -1.644,0 -3.288,-0.627 -4.543,-1.882 -2.509,-2.509 -1.882,-6.684 -1.882,-10.967 1.428,0 2.844,-0.07 4.19,-0.07 2.692,0 5.105,0.279 6.778,1.952 2.509,2.509 2.509,6.576 0,9.085 C 3.288,-0.627 1.644,0 0,0 m 0,-3 c 0.915,0 1.775,-0.356 2.422,-1.003 1.335,-1.335 1.335,-3.508 0,-4.843 -0.762,-0.762 -2.112,-1.073 -4.657,-1.073 -0.408,0 -0.823,0.007 -1.243,0.016 -0.058,2.612 -0.021,4.822 1.056,5.9 C -1.775,-3.356 -0.915,-3 0,-3"
             style="fill:#f5cf87;fill-opacity:1;fill-rule:nonzero;stroke:none"
             id="path3428"
             inkscape:connector-curvature="0" /></g><g
           id="g3430"
           transform="translate(22.6596,35)"><path
             d="m 0,0 c -2.692,0 -5.105,-0.279 -6.778,-1.951 -2.509,-2.509 -2.509,-6.577 0,-9.086 1.255,-1.255 2.899,-1.882 4.543,-1.882 1.644,0 3.288,0.627 4.543,1.882 C 4.817,-8.528 4.19,-4.353 4.19,-0.07 2.762,-0.07 1.346,0 0,0 m 0,-3 c 0.408,0 0.823,-0.007 1.243,-0.016 0.058,-2.612 0.021,-4.822 -1.056,-5.9 -0.647,-0.647 -1.507,-1.003 -2.422,-1.003 -0.915,0 -1.775,0.356 -2.422,1.003 -1.335,1.335 -1.335,3.508 0,4.843 C -3.895,-3.311 -2.546,-3 0,-3"
             style="fill:#f5cf87;fill-opacity:1;fill-rule:nonzero;stroke:none"
             id="path3432"
             inkscape:connector-curvature="0" /></g><g
           id="g3434"
           transform="translate(33.417,22.417)"><path
             d="m 0,0 c -0.828,0 -1.5,0.672 -1.5,1.5 0,4.118 -4.601,6.747 -4.647,6.772 -0.721,0.406 -0.981,1.318 -0.579,2.041 0.403,0.721 1.312,0.983 2.036,0.583 C -4.437,10.755 1.5,7.399 1.5,1.5 1.5,0.672 0.828,0 0,0"
             style="fill:#f5cf87;fill-opacity:1;fill-rule:nonzero;stroke:none"
             id="path3436"
             inkscape:connector-curvature="0" /></g><g
           id="g3438"
           transform="translate(24.502,33.5)"><path
             d="m 0,0 c -0.192,0 -0.389,0.037 -0.578,0.116 -0.267,0.112 -6.534,2.798 -7.18,8.662 -0.091,0.824 0.504,1.565 1.327,1.656 0.822,0.088 1.565,-0.504 1.656,-1.328 C -4.322,4.98 0.531,2.904 0.58,2.884 1.344,2.564 1.704,1.686 1.385,0.921 1.145,0.346 0.587,0 0,0"
             style="fill:#f5cf87;fill-opacity:1;fill-rule:nonzero;stroke:none"
             id="path3440"
             inkscape:connector-curvature="0" /></g></g></g></g></svg>