<?xml version="1.0" encoding="UTF-8" standalone="no"?>
<!-- Created with Inkscape (http://www.inkscape.org/) -->

<svg
   xmlns:dc="http://purl.org/dc/elements/1.1/"
   xmlns:cc="http://creativecommons.org/ns#"
   xmlns:rdf="http://www.w3.org/1999/02/22-rdf-syntax-ns#"
   xmlns:svg="http://www.w3.org/2000/svg"
   xmlns="http://www.w3.org/2000/svg"
   xmlns:sodipodi="http://sodipodi.sourceforge.net/DTD/sodipodi-0.dtd"
   xmlns:inkscape="http://www.inkscape.org/namespaces/inkscape"
   id="svg2985"
   version="1.1"
   inkscape:version="0.48.4 r9943 custom"
   width="80"
   height="80"
   xml:space="preserve"
   sodipodi:docname="Elegant_circle-icons_3.ai"><metadata
     id="metadata2991"><rdf:RDF><cc:Work
         rdf:about=""><dc:format>image/svg+xml</dc:format><dc:type
           rdf:resource="http://purl.org/dc/dcmitype/StillImage" /><dc:title></dc:title></cc:Work></rdf:RDF></metadata><defs
     id="defs2989"><clipPath
       clipPathUnits="userSpaceOnUse"
       id="clipPath2999"><path
         d="M 0,64 64,64 64,0 0,0 0,64 z"
         id="path3001" /></clipPath><clipPath
       clipPathUnits="userSpaceOnUse"
       id="clipPath3011"><path
         d="m 12,48.1596 38.1595,0 0,-34.8983 -38.1595,0 0,34.8983 z"
         id="path3013" /></clipPath></defs><sodipodi:namedview
     pagecolor="#ffffff"
     bordercolor="#666666"
     borderopacity="1"
     objecttolerance="10"
     gridtolerance="10"
     guidetolerance="10"
     inkscape:pageopacity="0"
     inkscape:pageshadow="2"
     inkscape:window-width="1147"
     inkscape:window-height="866"
     id="namedview2987"
     showgrid="false"
     inkscape:zoom="2.95"
     inkscape:cx="-16.949153"
     inkscape:cy="40"
     inkscape:window-x="0"
     inkscape:window-y="23"
     inkscape:window-maximized="0"
     inkscape:current-layer="g2995" /><g
     id="g2993"
     inkscape:groupmode="layer"
     inkscape:label="Elegant_circle-icons_3"
     transform="matrix(1.25,0,0,-1.25,0,80)"><g
       id="g2995"><g
         id="g2997"
         clip-path="url(#clipPath2999)"><g
           id="g3003"
           transform="translate(64,32)"><path
             d="m 0,0 c 0,-17.673 -14.327,-32 -32,-32 -17.673,0 -32,14.327 -32,32 0,17.673 14.327,32 32,32 C -14.327,32 0,17.673 0,0"
             style="fill:#e6e6e6;fill-opacity:0.56078434;fill-rule:nonzero;stroke:none"
             id="path3005" /></g><g
           id="g3007"><g
             id="g3009" /><g
             id="g3015"><g
               clip-path="url(#clipPath3011)"
               opacity="0.199997"
               id="g3017"><g
                 transform="translate(49.8654,47.8655)"
                 id="g3019"><path
                   d="m 0,0 c -1.933,1.933 -13.04,-6.04 -19.874,-12.874 -3.363,-3.363 -5.058,-5.82 -5.689,-7.682 -2.109,0.205 -4.403,-0.572 -5.914,-2.082 -0.968,-0.968 -1.498,-2.042 -1.894,-3.203 -0.761,-2.231 -1.494,-5.025 -4.494,-7.014 2.236,-2.237 10.984,-2.865 15.227,1.378 0.448,0.448 0.831,0.967 1.144,1.529 0.74,1.328 1.067,2.898 0.925,4.379 1.863,0.628 4.324,2.324 7.695,5.695 C -6.04,-13.04 1.933,-1.933 0,0"
                   style="fill:#231f20;fill-opacity:1;fill-rule:nonzero;stroke:none"
                   id="path3021" /></g></g></g></g><g
           id="g3023"
           transform="translate(29.9911,36.9911)"><path
             d="M 0,0 C -6.834,-6.834 -6.807,-9.941 -4.874,-11.874 -2.941,-13.807 0.166,-13.834 7,-7 13.834,-0.166 21.807,10.941 19.874,12.874 17.941,14.807 6.834,6.834 0,0"
             style="fill:#e0995e;fill-opacity:1;fill-rule:nonzero;stroke:none"
             id="path3025" /></g><g
           id="g3027"
           transform="translate(12,17.0102)"><path
             d="m 0,0 c 2.236,-2.237 10.984,-2.865 15.227,1.378 0.449,0.449 0.831,0.967 1.144,1.529 C 9.734,3.105 6.226,5.315 4.495,7.015 3.733,4.783 3,1.99 0,0"
             style="fill:#c75c5c;fill-opacity:1;fill-rule:nonzero;stroke:none"
             id="path3029" /></g><g
           id="g3031"
           transform="translate(27.7574,27.7574)"><path
             d="m 0,0 c -2.441,2.441 -6.928,1.91 -9.369,-0.53 -0.968,-0.968 -1.498,-2.042 -1.894,-3.202 1.732,-1.7 5.131,-6.942 11.877,-4.108 C 2.004,-5.347 1.992,-1.992 0,0"
             style="fill:#4f5d73;fill-opacity:1;fill-rule:nonzero;stroke:none"
             id="path3033" /></g><g
           id="g3035"
           transform="translate(16.4946,24.025)"><path
             d="m 0,0 c 0,0 4.022,0.764 5.938,-2.059 1.917,-2.823 5.939,-2.049 5.939,-2.049 L 6.672,-6.983 1.464,-3.192 0,0 z"
             style="fill:#c75c5c;fill-opacity:1;fill-rule:nonzero;stroke:none"
             id="path3037" /></g></g></g></g></svg>