<?xml version="1.0" encoding="UTF-8" standalone="no"?>
<!-- Created with Inkscape (http://www.inkscape.org/) -->

<svg
   xmlns:dc="http://purl.org/dc/elements/1.1/"
   xmlns:cc="http://creativecommons.org/ns#"
   xmlns:rdf="http://www.w3.org/1999/02/22-rdf-syntax-ns#"
   xmlns:svg="http://www.w3.org/2000/svg"
   xmlns="http://www.w3.org/2000/svg"
   xmlns:sodipodi="http://sodipodi.sourceforge.net/DTD/sodipodi-0.dtd"
   xmlns:inkscape="http://www.inkscape.org/namespaces/inkscape"
   id="svg2"
   version="1.1"
   inkscape:version="0.91 r13725"
   xml:space="preserve"
   width="80"
   height="80"
   viewBox="0 0 80 80"
   sodipodi:docname="tools-logo.svg"><metadata
     id="metadata8"><rdf:RDF><cc:Work
         rdf:about=""><dc:format>image/svg+xml</dc:format><dc:type
           rdf:resource="http://purl.org/dc/dcmitype/StillImage" /><dc:title /></cc:Work></rdf:RDF></metadata><defs
     id="defs6"><clipPath
       clipPathUnits="userSpaceOnUse"
       id="clipPath16"><path
         d="M 0,64 64,64 64,0 0,0 0,64 Z"
         id="path18"
         inkscape:connector-curvature="0" /></clipPath><clipPath
       clipPathUnits="userSpaceOnUse"
       id="clipPath28"><path
         d="m 12.0501,49.8718 39.021,0 0,-38.9428 -39.021,0 0,38.9428 z"
         id="path30"
         inkscape:connector-curvature="0" /></clipPath><clipPath
       clipPathUnits="userSpaceOnUse"
       id="clipPath52"><path
         d="M 10,52 54,52 54,8 10,8 10,52 Z"
         id="path54"
         inkscape:connector-curvature="0" /></clipPath></defs><sodipodi:namedview
     pagecolor="#ffffff"
     bordercolor="#666666"
     borderopacity="1"
     objecttolerance="10"
     gridtolerance="10"
     guidetolerance="10"
     inkscape:pageopacity="0"
     inkscape:pageshadow="2"
     inkscape:window-width="1680"
     inkscape:window-height="1028"
     id="namedview4"
     showgrid="false"
     inkscape:zoom="2.95"
     inkscape:cx="-12.542373"
     inkscape:cy="40"
     inkscape:window-x="-8"
     inkscape:window-y="142"
     inkscape:window-maximized="1"
     inkscape:current-layer="g10" /><g
     id="g10"
     inkscape:groupmode="layer"
     inkscape:label="Elegant_circle-icons"
     transform="matrix(1.25,0,0,-1.25,0,80)"><g
       id="g12"><g
         id="g14"
         clip-path="url(#clipPath16)"><g
           id="g20"
           transform="translate(64,32)"><path
             d="m 0,0 c 0,-17.673 -14.327,-32 -32,-32 -17.673,0 -32,14.327 -32,32 0,17.673 14.327,32 32,32 C -14.327,32 0,17.673 0,0"
             style="fill:#e6e6e6;fill-opacity:0.56078434;fill-rule:nonzero;stroke:none"
             id="path22"
             inkscape:connector-curvature="0" /></g><g
           id="g24"><g
             id="g26" /><g
             id="g32"><g
               clip-path="url(#clipPath28)"
               id="g34"
               style="opacity:0.19999701"><g
                 transform="translate(49.8995,17.7574)"
                 id="g36"><path
                   d="m 0,0 -14.142,14.142 c -1.031,1.031 -2.481,1.367 -3.799,1.037 l -8.093,7.993 -3.037,5.899 -5.911,3.043 -2.867,-2.867 3.043,-5.911 5.911,-3.043 0.008,0.008 8.066,-7.967 c -0.352,-1.331 -0.022,-2.805 1.022,-3.849 L -5.657,-5.657 c 1.562,-1.562 4.095,-1.562 5.657,0 1.562,1.562 1.562,4.095 0,5.657"
                   style="fill:#231f20;fill-opacity:1;fill-rule:nonzero;stroke:none"
                   id="path38"
                   inkscape:connector-curvature="0" /></g></g></g></g><g
           id="g40"
           transform="translate(34.4993,26.7369)"><path
             d="m 0,0 -16.102,15.904 2.934,2.792 L 2.934,2.792 0,0 Z"
             style="fill:#4f5d73;fill-opacity:1;fill-rule:nonzero;stroke:none"
             id="path42"
             inkscape:connector-curvature="0" /></g><g
           id="g44"
           transform="translate(49.8995,14.1005)"><path
             d="m 0,0 c -1.562,-1.562 -4.095,-1.562 -5.657,0 l -14.142,14.142 c -1.562,1.562 -1.562,4.095 0,5.657 1.562,1.562 4.095,1.562 5.657,0 L 0,5.657 C 1.562,4.095 1.562,1.562 0,0"
             style="fill:#f5cf87;fill-opacity:1;fill-rule:nonzero;stroke:none"
             id="path46"
             inkscape:connector-curvature="0" /></g><g
           id="g48"><g
             id="g50" /><g
             id="g56"><g
               clip-path="url(#clipPath52)"
               id="g58"
               style="opacity:0.19999701"><g
                 transform="translate(53.304,45.6471)"
                 id="g60"><path
                   d="m 0,0 -6.476,-6.476 c -1.562,-1.562 -4.094,-1.562 -5.656,0 -1.562,1.563 -1.562,4.095 0,5.657 l 6.475,6.476 c -1.131,0.444 -2.358,0.696 -3.647,0.696 -5.523,0 -10,-4.477 -10,-10 0,-1.289 0.252,-2.516 0.696,-3.647 l -11.049,-11.049 c -1.131,0.444 -2.358,0.696 -3.647,0.696 -5.523,0 -10,-4.477 -10,-10 0,-1.289 0.252,-2.516 0.696,-3.647 l 6.476,6.475 c 1.562,1.562 4.094,1.562 5.656,0 1.563,-1.562 1.563,-4.094 0,-5.657 l -6.475,-6.475 c 1.131,-0.444 2.359,-0.696 3.647,-0.696 5.523,0 10,4.477 10,10 0,1.288 -0.252,2.516 -0.696,3.647 l 11.049,11.049 c 1.131,-0.444 2.359,-0.696 3.647,-0.696 5.523,0 10,4.477 10,10 C 0.696,-2.359 0.444,-1.131 0,0"
                   style="fill:#231f20;fill-opacity:1;fill-rule:nonzero;stroke:none"
                   id="path62"
                   inkscape:connector-curvature="0" /></g></g></g></g><g
           id="g64"
           transform="translate(40.8883,35.2315)"><path
             d="m 0,0 -12.12,-12.12 -5.657,5.657 12.12,12.12 L 0,0 Z"
             style="fill:#ffffff;fill-opacity:1;fill-rule:nonzero;stroke:none"
             id="path66"
             inkscape:connector-curvature="0" /></g><g
           id="g68"
           transform="translate(21.0046,40.0501)"><path
             d="m 0,0 -5.911,3.044 -3.043,5.91 2.867,2.868 L -0.176,8.778 2.867,2.867 0,0 Z"
             style="fill:#4f5d73;fill-opacity:1;fill-rule:nonzero;stroke:none"
             id="path70"
             inkscape:connector-curvature="0" /></g><g
           id="g72"
           transform="translate(46.8284,41.1716)"><path
             d="m 0,0 c -1.562,-1.562 -4.095,-1.562 -5.657,0 -1.562,1.562 -1.562,4.095 0,5.657 l 6.476,6.475 c -1.131,0.444 -2.359,0.696 -3.647,0.696 -5.523,0 -10,-4.477 -10,-10 0,-5.522 4.477,-10 10,-10 5.522,0 10,4.478 10,10 0,1.289 -0.253,2.516 -0.696,3.648 L 0,0 Z"
             style="fill:#ffffff;fill-opacity:1;fill-rule:nonzero;stroke:none"
             id="path74"
             inkscape:connector-curvature="0" /></g><g
           id="g76"
           transform="translate(17.1716,22.8284)"><path
             d="m 0,0 c 1.562,1.562 4.095,1.562 5.657,0 1.562,-1.562 1.562,-4.095 0,-5.657 l -6.476,-6.475 c 1.131,-0.444 2.359,-0.696 3.647,-0.696 5.523,0 10,4.477 10,10 0,5.522 -4.477,10 -10,10 -5.522,0 -10,-4.478 -10,-10 0,-1.289 0.253,-2.516 0.696,-3.648 L 0,0 Z"
             style="fill:#ffffff;fill-opacity:1;fill-rule:nonzero;stroke:none"
             id="path78"
             inkscape:connector-curvature="0" /></g></g></g></g></svg>