<?xml version="1.0" encoding="UTF-8" standalone="no"?>
<!-- Created with Inkscape (http://www.inkscape.org/) -->

<svg
   xmlns:dc="http://purl.org/dc/elements/1.1/"
   xmlns:cc="http://creativecommons.org/ns#"
   xmlns:rdf="http://www.w3.org/1999/02/22-rdf-syntax-ns#"
   xmlns:svg="http://www.w3.org/2000/svg"
   xmlns="http://www.w3.org/2000/svg"
   xmlns:sodipodi="http://sodipodi.sourceforge.net/DTD/sodipodi-0.dtd"
   xmlns:inkscape="http://www.inkscape.org/namespaces/inkscape"
   id="svg2"
   version="1.1"
   inkscape:version="0.91 r13725"
   xml:space="preserve"
   width="80"
   height="80"
   viewBox="0 0 80 80"
   sodipodi:docname="w20-logo.svg"><metadata
     id="metadata8"><rdf:RDF><cc:Work
         rdf:about=""><dc:format>image/svg+xml</dc:format><dc:type
           rdf:resource="http://purl.org/dc/dcmitype/StillImage" /><dc:title /></cc:Work></rdf:RDF></metadata><defs
     id="defs6"><clipPath
       clipPathUnits="userSpaceOnUse"
       id="clipPath16"><path
         d="M 0,64 64,64 64,0 0,0 0,64 Z"
         id="path18"
         inkscape:connector-curvature="0" /></clipPath><clipPath
       clipPathUnits="userSpaceOnUse"
       id="clipPath28"><path
         d="m 8.45947,40.0004 47.08103,0 0,-20.0009 -47.08103,0 0,20.0009 z"
         id="path30"
         inkscape:connector-curvature="0" /></clipPath><clipPath
       clipPathUnits="userSpaceOnUse"
       id="clipPath48"><path
         d="m 23.4994,49.0008 17.0012,0 0,-38.0013 -17.0012,0 0,38.0013 z"
         id="path50"
         inkscape:connector-curvature="0" /></clipPath></defs><sodipodi:namedview
     pagecolor="#ffffff"
     bordercolor="#666666"
     borderopacity="1"
     objecttolerance="10"
     gridtolerance="10"
     guidetolerance="10"
     inkscape:pageopacity="0"
     inkscape:pageshadow="2"
     inkscape:window-width="1920"
     inkscape:window-height="1152"
     id="namedview4"
     showgrid="false"
     inkscape:zoom="2.95"
     inkscape:cx="-80.338983"
     inkscape:cy="40"
     inkscape:window-x="0"
     inkscape:window-y="0"
     inkscape:window-maximized="1"
     inkscape:current-layer="g10" /><g
     id="g10"
     inkscape:groupmode="layer"
     inkscape:label="Elegant_circle-icons"
     transform="matrix(1.25,0,0,-1.25,0,80)"><g
       id="g12"><g
         id="g14"
         clip-path="url(#clipPath16)"><g
           id="g20"
           transform="translate(64,32)"><path
             d="m 0,0 c 0,-17.673 -14.327,-32 -32,-32 -17.673,0 -32,14.327 -32,32 0,17.673 14.327,32 32,32 C -14.327,32 0,17.673 0,0"
             style="fill:#e6e6e6;fill-opacity:0.56078434;fill-rule:nonzero;stroke:none"
             id="path22"
             inkscape:connector-curvature="0" /></g><g
           id="g24"><g
             id="g26" /><g
             id="g32"><g
               clip-path="url(#clipPath28)"
               id="g34"
               style="opacity:0.19999701"><g
                 transform="translate(42.4614,19.9995)"
                 id="g36"><path
                   d="m 0,0 c -0.671,0 -1.326,0.338 -1.705,0.951 -0.579,0.94 -0.287,2.172 0.653,2.752 L 9.072,9.945 C 9.077,9.962 9.079,9.981 9.079,10 c 0,0.02 -0.002,0.039 -0.007,0.056 l -10.124,6.242 c -0.94,0.58 -1.232,1.812 -0.653,2.752 0.58,0.94 1.812,1.233 2.753,0.653 l 10.63,-6.554 0.165,-0.165 C 12.64,12.187 13.079,11.128 13.079,10 13.079,8.874 12.64,7.814 11.843,7.018 L 11.678,6.852 1.048,0.298 C 0.721,0.096 0.358,0 0,0"
                   style="fill:#231f20;fill-opacity:1;fill-rule:nonzero;stroke:none"
                   id="path38"
                   inkscape:connector-curvature="0" /></g><g
                 transform="translate(21.5386,19.9995)"
                 id="g40"><path
                   d="m 0,0 c -0.358,0 -0.721,0.096 -1.048,0.298 l -10.63,6.554 -0.165,0.166 c -0.797,0.796 -1.236,1.856 -1.236,2.982 0,1.128 0.439,2.187 1.236,2.984 l 0.165,0.165 10.63,6.554 c 0.941,0.58 2.172,0.287 2.753,-0.653 0.579,-0.94 0.287,-2.172 -0.653,-2.752 L -9.072,10.056 C -9.077,10.039 -9.079,10.02 -9.079,10 c 0,-0.019 0.002,-0.038 0.007,-0.055 L 1.052,3.703 C 1.992,3.123 2.284,1.891 1.705,0.951 1.327,0.338 0.671,0 0,0"
                   style="fill:#231f20;fill-opacity:1;fill-rule:nonzero;stroke:none"
                   id="path42"
                   inkscape:connector-curvature="0" /></g></g></g></g><g
           id="g44"><g
             id="g46" /><g
             id="g52"><g
               clip-path="url(#clipPath48)"
               id="g54"
               style="opacity:0.19999701"><g
                 transform="translate(25.4995,10.9995)"
                 id="g56"><path
                   d="m 0,0 c -0.237,0 -0.479,0.042 -0.714,0.132 -1.032,0.395 -1.548,1.551 -1.154,2.583 l 13,34 c 0.395,1.032 1.551,1.549 2.583,1.154 1.032,-0.395 1.548,-1.551 1.154,-2.583 l -13,-34 C 1.564,0.489 0.805,0 0,0"
                   style="fill:#231f20;fill-opacity:1;fill-rule:nonzero;stroke:none"
                   id="path58"
                   inkscape:connector-curvature="0" /></g></g></g></g><g
           id="g60"
           transform="translate(42.4614,22)"><path
             d="m 0,0 c -0.671,0 -1.327,0.337 -1.705,0.95 -0.579,0.941 -0.287,2.173 0.654,2.752 L 9.071,9.943 c 0.011,0.037 0.011,0.077 0,0.114 l -10.122,6.241 c -0.941,0.579 -1.233,1.811 -0.654,2.752 0.58,0.94 1.811,1.233 2.752,0.652 l 10.631,-6.554 0.166,-0.165 c 1.644,-1.645 1.644,-4.321 0,-5.966 L 11.678,6.852 1.047,0.298 C 0.721,0.096 0.358,0 0,0"
             style="fill:#76c2af;fill-opacity:1;fill-rule:nonzero;stroke:none"
             id="path62"
             inkscape:connector-curvature="0" /></g><g
           id="g64"
           transform="translate(21.5386,22)"><path
             d="m 0,0 c -0.358,0 -0.72,0.096 -1.047,0.298 l -10.631,6.554 -0.166,0.165 c -1.644,1.645 -1.644,4.321 0,5.966 l 0.166,0.165 10.631,6.554 C -0.108,20.283 1.125,19.99 1.705,19.05 2.284,18.109 1.992,16.877 1.051,16.298 L -9.071,10.057 c -0.011,-0.037 -0.011,-0.077 0,-0.114 L 1.051,3.702 C 1.992,3.123 2.284,1.891 1.705,0.95 1.327,0.337 0.671,0 0,0"
             style="fill:#76c2af;fill-opacity:1;fill-rule:nonzero;stroke:none"
             id="path66"
             inkscape:connector-curvature="0" /></g><g
           id="g68"
           transform="translate(25.4995,12.999)"><path
             d="m 0,0 c -0.237,0 -0.479,0.043 -0.714,0.133 -1.032,0.394 -1.548,1.551 -1.154,2.582 l 13,34 c 0.395,1.031 1.551,1.55 2.583,1.154 1.032,-0.394 1.548,-1.551 1.154,-2.582 l -13,-34 C 1.564,0.49 0.805,0 0,0"
             style="fill:#76c2af;fill-opacity:1;fill-rule:nonzero;stroke:none"
             id="path70"
             inkscape:connector-curvature="0" /></g></g></g></g></svg>