<?xml version="1.0" encoding="UTF-8" standalone="yes"?><svg xmlns="http://www.w3.org/2000/svg" xmlns:xlink="http://www.w3.org/1999/xlink" height="224pt" style="width:126px;height:224px;" version="1.1" viewBox="0 0 126 224" width="126pt"><defs><filter height="300%" id="f1" width="300%" x="-1" y="-1"><feGaussianBlur result="blurOut" stdDeviation="2.0"/><feColorMatrix in="blurOut" result="blurOut2" type="matrix" values="0 0 0 0 0 0 0 0 0 0 0 0 0 0 0 0 0 0 .4 0"/><feOffset dx="4.0" dy="4.0" in="blurOut2" result="blurOut3"/><feBlend in="SourceGraphic" in2="blurOut3" mode="normal"/></filter></defs><g><rect fill="#FEFECE" filter="url(#f1)" height="73.6094" style="stroke: #A80036; stroke-width: 1.5;" width="111" x="6" y="8"/><ellipse cx="43.5" cy="24" fill="#ADD1B2" rx="11" ry="11" style="stroke: #A80036; stroke-width: 1.0;"/><path d="M45.8438,19.6719 L46.0156,19.75 C46.2344,19.4375 46.4375,19.3438 46.7344,19.3438 C47.0313,19.3438 47.3125,19.4844 47.4688,19.75 C47.5625,19.9063 47.5781,20.0313 47.5781,20.4688 L47.5781,21.8906 C47.5781,22.3125 47.5469,22.5 47.4375,22.6563 C47.2656,22.875 47,23.0156 46.7344,23.0156 C46.5156,23.0156 46.2813,22.9063 46.1406,22.7656 C46,22.6406 45.9688,22.5156 45.9063,22.1094 C45.8125,21.7031 45.6406,21.4844 45.1563,21.2031 C44.6875,20.9531 44.0781,20.7969 43.5,20.7969 C41.7656,20.7969 40.5156,22.1094 40.5156,23.8906 L40.5156,24.9844 C40.5156,26.6875 41.8125,27.7813 43.8594,27.7813 C44.625,27.7813 45.3125,27.6563 45.7344,27.3906 C45.9219,27.2969 45.9219,27.2969 46.375,26.8125 C46.5625,26.625 46.7656,26.5469 46.9844,26.5469 C47.4531,26.5469 47.8438,26.9375 47.8438,27.3906 C47.8438,27.7813 47.5156,28.2344 46.9375,28.6406 C46.1875,29.1875 45.0313,29.4844 43.8125,29.4844 C40.9219,29.4844 38.8125,27.5938 38.8125,25.0156 L38.8125,23.8906 C38.8125,21.1719 40.8125,19.0938 43.4375,19.0938 C44.3125,19.0938 44.9063,19.2344 45.8438,19.6719 Z "/><text fill="#000000" font-family="sans-serif" font-size="12" lengthAdjust="spacingAndGlyphs" textLength="29" x="62.5" y="28.1543">User</text><line style="stroke: #A80036; stroke-width: 1.5;" x1="7" x2="116" y1="40" y2="40"/><text fill="#000000" font-family="sans-serif" font-size="11" lengthAdjust="spacingAndGlyphs" textLength="80" x="12" y="54.2104">String pseudo</text><text fill="#000000" font-family="sans-serif" font-size="11" lengthAdjust="spacingAndGlyphs" textLength="99" x="12" y="67.0151">List&lt;Post&gt; posts</text><line style="stroke: #A80036; stroke-width: 1.5;" x1="7" x2="116" y1="73.6094" y2="73.6094"/><rect fill="#FEFECE" filter="url(#f1)" height="73.6094" style="stroke: #A80036; stroke-width: 1.5;" width="103" x="10" y="142"/><ellipse cx="44.35" cy="158" fill="#ADD1B2" rx="11" ry="11" style="stroke: #A80036; stroke-width: 1.0;"/><path d="M46.6938,153.6719 L46.8656,153.75 C47.0844,153.4375 47.2875,153.3438 47.5844,153.3438 C47.8813,153.3438 48.1625,153.4844 48.3188,153.75 C48.4125,153.9063 48.4281,154.0313 48.4281,154.4688 L48.4281,155.8906 C48.4281,156.3125 48.3969,156.5 48.2875,156.6563 C48.1156,156.875 47.85,157.0156 47.5844,157.0156 C47.3656,157.0156 47.1313,156.9063 46.9906,156.7656 C46.85,156.6406 46.8188,156.5156 46.7563,156.1094 C46.6625,155.7031 46.4906,155.4844 46.0063,155.2031 C45.5375,154.9531 44.9281,154.7969 44.35,154.7969 C42.6156,154.7969 41.3656,156.1094 41.3656,157.8906 L41.3656,158.9844 C41.3656,160.6875 42.6625,161.7813 44.7094,161.7813 C45.475,161.7813 46.1625,161.6563 46.5844,161.3906 C46.7719,161.2969 46.7719,161.2969 47.225,160.8125 C47.4125,160.625 47.6156,160.5469 47.8344,160.5469 C48.3031,160.5469 48.6938,160.9375 48.6938,161.3906 C48.6938,161.7813 48.3656,162.2344 47.7875,162.6406 C47.0375,163.1875 45.8813,163.4844 44.6625,163.4844 C41.7719,163.4844 39.6625,161.5938 39.6625,159.0156 L39.6625,157.8906 C39.6625,155.1719 41.6625,153.0938 44.2875,153.0938 C45.1625,153.0938 45.7563,153.2344 46.6938,153.6719 Z "/><text fill="#000000" font-family="sans-serif" font-size="12" lengthAdjust="spacingAndGlyphs" textLength="28" x="62.65" y="162.1543">Post</text><line style="stroke: #A80036; stroke-width: 1.5;" x1="11" x2="112" y1="174" y2="174"/><text fill="#000000" font-family="sans-serif" font-size="11" lengthAdjust="spacingAndGlyphs" textLength="91" x="16" y="188.2104">String message</text><text fill="#000000" font-family="sans-serif" font-size="11" lengthAdjust="spacingAndGlyphs" textLength="66" x="16" y="201.0151">Date sentAt</text><line style="stroke: #A80036; stroke-width: 1.5;" x1="11" x2="112" y1="207.6094" y2="207.6094"/><path d="M61.25,82.07 C61.25,100.695 61.25,123.355 61.25,141.974 " fill="none" style="stroke: #A80036; stroke-width: 1.0;"/></g></svg>