<?xml version="1.0" encoding="UTF-8" standalone="yes"?><svg xmlns="http://www.w3.org/2000/svg" xmlns:xlink="http://www.w3.org/1999/xlink" height="209pt" style="width:309px;height:209px;" version="1.1" viewBox="0 0 309 209" width="309pt"><defs><filter height="300%" id="f1" width="300%" x="-1" y="-1"><feGaussianBlur result="blurOut" stdDeviation="2.0"/><feColorMatrix in="blurOut" result="blurOut2" type="matrix" values="0 0 0 0 0 0 0 0 0 0 0 0 0 0 0 0 0 0 .4 0"/><feOffset dx="4.0" dy="4.0" in="blurOut2" result="blurOut3"/><feBlend in="SourceGraphic" in2="blurOut3" mode="normal"/></filter></defs><g><text fill="#000000" font-family="sans-serif" font-size="16" lengthAdjust="spacingAndGlyphs" textLength="308" x="0" y="16.6094">Business Framework : Application Tools API</text><rect fill="#FEFECE" filter="url(#f1)" height="46" style="stroke: #A80036; stroke-width: 1.5;" width="130" x="83" y="28.125"/><ellipse cx="97" cy="43.125" fill="#DA70D6" rx="10" ry="10" style="stroke: #A80036; stroke-width: 1.0;"/><path d="M97.0469,45.1719 Q96.6719,45.6094 96.2031,45.875 Q95.7344,46.1406 95.25,46.1406 Q94.7344,46.1406 94.2422,45.8359 Q93.75,45.5313 93.4453,44.8984 Q93.1406,44.2656 93.1406,43.5156 Q93.1406,42.5781 93.6172,41.6406 Q94.0938,40.7031 94.7969,40.2344 Q95.5,39.7656 96.1719,39.7656 Q96.6875,39.7656 97.1484,40.0391 Q97.6094,40.3125 97.9375,40.8438 L98.1406,39.9375 L99.1875,39.9375 L98.3438,43.875 Q98.1719,44.6875 98.1719,44.7813 Q98.1719,44.9375 98.2891,45.0547 Q98.4063,45.1719 98.5781,45.1719 Q98.8906,45.1719 99.3906,44.8125 Q100.0625,44.3438 100.4531,43.5547 Q100.8438,42.7656 100.8438,41.9219 Q100.8438,40.9531 100.3438,40.1016 Q99.8438,39.25 98.8516,38.7422 Q97.8594,38.2344 96.6563,38.2344 Q95.2813,38.2344 94.1484,38.875 Q93.0156,39.5156 92.3906,40.7109 Q91.7656,41.9063 91.7656,43.2813 Q91.7656,44.7188 92.3906,45.7578 Q93.0156,46.7969 94.1953,47.2891 Q95.375,47.7813 96.8125,47.7813 Q98.3438,47.7813 99.3828,47.2656 Q100.4219,46.75 100.9375,46.0156 L102,46.0156 Q101.7031,46.625 100.9766,47.2656 Q100.25,47.9063 99.25,48.2813 Q98.25,48.6563 96.8281,48.6563 Q95.5313,48.6563 94.4297,48.3203 Q93.3281,47.9844 92.5547,47.3125 Q91.7813,46.6406 91.3906,45.7656 Q90.9063,44.6563 90.9063,43.375 Q90.9063,41.9531 91.4844,40.6563 Q92.2031,39.0625 93.5156,38.2188 Q94.8281,37.375 96.7031,37.375 Q98.1563,37.375 99.3125,37.9688 Q100.4688,38.5625 101.1406,39.75 Q101.7188,40.75 101.7188,41.9531 Q101.7188,43.6406 100.5156,44.9688 Q99.4531,46.1563 98.1875,46.1563 Q97.7813,46.1563 97.5313,46.0313 Q97.2813,45.9063 97.1719,45.6719 Q97.0938,45.5313 97.0469,45.1719 Z M94.2188,43.5781 Q94.2188,44.3906 94.6016,44.8359 Q94.9844,45.2813 95.4688,45.2813 Q95.7969,45.2813 96.1641,45.0781 Q96.5313,44.875 96.8594,44.4922 Q97.1875,44.1094 97.3984,43.5156 Q97.6094,42.9219 97.6094,42.3281 Q97.6094,41.5313 97.2109,41.0859 Q96.8125,40.6406 96.25,40.6406 Q95.875,40.6406 95.5469,40.8359 Q95.2188,41.0313 94.9063,41.4531 Q94.5938,41.875 94.4063,42.4766 Q94.2188,43.0781 94.2188,43.5781 Z "/><text fill="#000000" font-family="sans-serif" font-size="12" lengthAdjust="spacingAndGlyphs" textLength="100" x="110" y="48.0352">ApplicationService</text><line style="stroke: #A80036; stroke-width: 1.5;" x1="84" x2="212" y1="58.125" y2="58.125"/><line style="stroke: #A80036; stroke-width: 1.5;" x1="84" x2="212" y1="66.125" y2="66.125"/><rect fill="#FEFECE" filter="url(#f1)" height="46" style="stroke: #A80036; stroke-width: 1.5;" width="175" x="60.5" y="154.125"/><ellipse cx="74.5" cy="169.125" fill="#B4A7E5" rx="10" ry="10" style="stroke: #A80036; stroke-width: 1.0;"/><path d="M74.125,173.625 L74.125,165.0313 L75.25,165.0313 L75.25,173.625 L74.125,173.625 Z "/><text fill="#000000" font-family="sans-serif" font-size="12" font-style="italic" lengthAdjust="spacingAndGlyphs" textLength="145" x="87.5" y="174.0352">GenericApplicationService</text><line style="stroke: #A80036; stroke-width: 1.5;" x1="61.5" x2="234.5" y1="184.125" y2="184.125"/><line style="stroke: #A80036; stroke-width: 1.5;" x1="61.5" x2="234.5" y1="192.125" y2="192.125"/><path d="M148,79.478 C148,101.7789 148,132.8892 148,153.7301 " fill="none" style="stroke: #A80036; stroke-width: 1.0;"/><polygon fill="#A80036" points="148,74.294,144,83.294,148,79.294,152,83.294,148,74.294" style="stroke: #A80036; stroke-width: 1.0;"/></g></svg>