<?xml version="1.0" encoding="UTF-8" standalone="yes"?><svg xmlns="http://www.w3.org/2000/svg" xmlns:xlink="http://www.w3.org/1999/xlink" height="821pt" style="width:617px;height:821px;" version="1.1" viewBox="0 0 617 821" width="617pt"><defs><filter height="300%" id="f1" width="300%" x="-1" y="-1"><feGaussianBlur result="blurOut" stdDeviation="2.0"/><feColorMatrix in="blurOut" result="blurOut2" type="matrix" values="0 0 0 0 0 0 0 0 0 0 0 0 0 0 0 0 0 0 .4 0"/><feOffset dx="4.0" dy="4.0" in="blurOut2" result="blurOut3"/><feBlend in="SourceGraphic" in2="blurOut3" mode="normal"/></filter></defs><g><text fill="#000000" font-family="sans-serif" font-size="16" lengthAdjust="spacingAndGlyphs" textLength="283" x="172" y="16.6094">Business Framework : Domain Audit API</text><rect fill="#FEFECE" filter="url(#f1)" height="87.5078" style="stroke: #A80036; stroke-width: 1.5;" width="156" x="6" y="41.625"/><ellipse cx="59.5" cy="56.625" fill="#DA70D6" rx="10" ry="10" style="stroke: #A80036; stroke-width: 1.0;"/><path d="M59.5469,58.6719 Q59.1719,59.1094 58.7031,59.375 Q58.2344,59.6406 57.75,59.6406 Q57.2344,59.6406 56.7422,59.3359 Q56.25,59.0313 55.9453,58.3984 Q55.6406,57.7656 55.6406,57.0156 Q55.6406,56.0781 56.1172,55.1406 Q56.5938,54.2031 57.2969,53.7344 Q58,53.2656 58.6719,53.2656 Q59.1875,53.2656 59.6484,53.5391 Q60.1094,53.8125 60.4375,54.3438 L60.6406,53.4375 L61.6875,53.4375 L60.8438,57.375 Q60.6719,58.1875 60.6719,58.2813 Q60.6719,58.4375 60.7891,58.5547 Q60.9063,58.6719 61.0781,58.6719 Q61.3906,58.6719 61.8906,58.3125 Q62.5625,57.8438 62.9531,57.0547 Q63.3438,56.2656 63.3438,55.4219 Q63.3438,54.4531 62.8438,53.6016 Q62.3438,52.75 61.3516,52.2422 Q60.3594,51.7344 59.1563,51.7344 Q57.7813,51.7344 56.6484,52.375 Q55.5156,53.0156 54.8906,54.2109 Q54.2656,55.4063 54.2656,56.7813 Q54.2656,58.2188 54.8906,59.2578 Q55.5156,60.2969 56.6953,60.7891 Q57.875,61.2813 59.3125,61.2813 Q60.8438,61.2813 61.8828,60.7656 Q62.9219,60.25 63.4375,59.5156 L64.5,59.5156 Q64.2031,60.125 63.4766,60.7656 Q62.75,61.4063 61.75,61.7813 Q60.75,62.1563 59.3281,62.1563 Q58.0313,62.1563 56.9297,61.8203 Q55.8281,61.4844 55.0547,60.8125 Q54.2813,60.1406 53.8906,59.2656 Q53.4063,58.1563 53.4063,56.875 Q53.4063,55.4531 53.9844,54.1563 Q54.7031,52.5625 56.0156,51.7188 Q57.3281,50.875 59.2031,50.875 Q60.6563,50.875 61.8125,51.4688 Q62.9688,52.0625 63.6406,53.25 Q64.2188,54.25 64.2188,55.4531 Q64.2188,57.1406 63.0156,58.4688 Q61.9531,59.6563 60.6875,59.6563 Q60.2813,59.6563 60.0313,59.5313 Q59.7813,59.4063 59.6719,59.1719 Q59.5938,59.0313 59.5469,58.6719 Z M56.7188,57.0781 Q56.7188,57.8906 57.1016,58.3359 Q57.4844,58.7813 57.9688,58.7813 Q58.2969,58.7813 58.6641,58.5781 Q59.0313,58.375 59.3594,57.9922 Q59.6875,57.6094 59.8984,57.0156 Q60.1094,56.4219 60.1094,55.8281 Q60.1094,55.0313 59.7109,54.5859 Q59.3125,54.1406 58.75,54.1406 Q58.375,54.1406 58.0469,54.3359 Q57.7188,54.5313 57.4063,54.9531 Q57.0938,55.375 56.9063,55.9766 Q56.7188,56.5781 56.7188,57.0781 Z "/><text fill="#000000" font-family="sans-serif" font-size="12" lengthAdjust="spacingAndGlyphs" textLength="41" x="78.5" y="61.5352">Audited</text><line style="stroke: #A80036; stroke-width: 1.5;" x1="7" x2="161" y1="71.625" y2="71.625"/><line style="stroke: #A80036; stroke-width: 1.5;" x1="7" x2="161" y1="79.625" y2="79.625"/><text fill="#000000" font-family="sans-serif" font-size="11" lengthAdjust="spacingAndGlyphs" textLength="116" x="12" y="95.0439">String messageBefore()</text><text fill="#000000" font-family="sans-serif" font-size="11" lengthAdjust="spacingAndGlyphs" textLength="108" x="12" y="108.8799">String messageAfter()</text><text fill="#000000" font-family="sans-serif" font-size="11" lengthAdjust="spacingAndGlyphs" textLength="144" x="12" y="122.7158">String messageOnException()</text><rect fill="#FEFECE" filter="url(#f1)" height="115.1797" style="stroke: #A80036; stroke-width: 1.5;" width="211" x="202.5" y="28.125"/><ellipse cx="275.5" cy="43.125" fill="#ADD1B2" rx="10" ry="10" style="stroke: #A80036; stroke-width: 1.0;"/><path d="M278.0625,44.6094 L279.1875,44.9063 Q278.8281,46.2969 277.9063,47.0313 Q276.9844,47.7656 275.6406,47.7656 Q274.25,47.7656 273.375,47.2031 Q272.5,46.6406 272.0469,45.5703 Q271.5938,44.5 271.5938,43.2656 Q271.5938,41.9219 272.1094,40.9219 Q272.625,39.9219 273.5703,39.4063 Q274.5156,38.8906 275.6563,38.8906 Q276.9375,38.8906 277.8203,39.5469 Q278.7031,40.2031 279.0469,41.3906 L277.9219,41.6563 Q277.625,40.7188 277.0547,40.2891 Q276.4844,39.8594 275.625,39.8594 Q274.6406,39.8594 273.9766,40.3359 Q273.3125,40.8125 273.0391,41.6094 Q272.7656,42.4063 272.7656,43.2656 Q272.7656,44.3594 273.0859,45.1719 Q273.4063,45.9844 274.0781,46.3906 Q274.75,46.7969 275.5469,46.7969 Q276.5,46.7969 277.1641,46.25 Q277.8281,45.7031 278.0625,44.6094 Z "/><text fill="#000000" font-family="sans-serif" font-size="12" lengthAdjust="spacingAndGlyphs" textLength="57" x="294.5" y="48.0352">AuditEvent</text><line style="stroke: #A80036; stroke-width: 1.5;" x1="203.5" x2="412.5" y1="58.125" y2="58.125"/><rect fill="none" height="6" style="stroke: #C82930; stroke-width: 1.0;" width="6" x="210.5" y="67.543"/><text fill="#000000" font-family="sans-serif" font-size="11" lengthAdjust="spacingAndGlyphs" textLength="75" x="221.5" y="73.5439">String message</text><rect fill="none" height="6" style="stroke: #C82930; stroke-width: 1.0;" width="6" x="210.5" y="81.3789"/><text fill="#000000" font-family="sans-serif" font-size="11" lengthAdjust="spacingAndGlyphs" textLength="46" x="221.5" y="87.3799">Date date</text><line style="stroke: #A80036; stroke-width: 1.5;" x1="203.5" x2="412.5" y1="93.7969" y2="93.7969"/><ellipse cx="213.5" cy="106.2148" fill="#84BE84" rx="3" ry="3" style="stroke: #038048; stroke-width: 1.0;"/><text fill="#000000" font-family="sans-serif" font-size="11" lengthAdjust="spacingAndGlyphs" textLength="98" x="221.5" y="109.2158">String getMessage()</text><ellipse cx="213.5" cy="120.0508" fill="#84BE84" rx="3" ry="3" style="stroke: #038048; stroke-width: 1.0;"/><text fill="#000000" font-family="sans-serif" font-size="11" lengthAdjust="spacingAndGlyphs" textLength="70" x="221.5" y="123.0518">Date getDate()</text><ellipse cx="213.5" cy="133.8867" fill="#84BE84" rx="3" ry="3" style="stroke: #038048; stroke-width: 1.0;"/><text fill="#000000" font-family="sans-serif" font-size="11" lengthAdjust="spacingAndGlyphs" textLength="186" x="221.5" y="136.8877">String getFormattedDate(String format)</text><rect fill="#FEFECE" filter="url(#f1)" height="59.8359" style="stroke: #A80036; stroke-width: 1.5;" width="155" x="453.5" y="55.625"/><ellipse cx="468.85" cy="70.625" fill="#B4A7E5" rx="10" ry="10" style="stroke: #A80036; stroke-width: 1.0;"/><path d="M468.475,75.125 L468.475,66.5313 L469.6,66.5313 L469.6,75.125 L468.475,75.125 Z "/><text fill="#000000" font-family="sans-serif" font-size="12" font-style="italic" lengthAdjust="spacingAndGlyphs" textLength="122" x="482.15" y="75.5352">TrailExceptionHandler</text><line style="stroke: #A80036; stroke-width: 1.5;" x1="454.5" x2="607.5" y1="85.625" y2="85.625"/><line style="stroke: #A80036; stroke-width: 1.5;" x1="454.5" x2="607.5" y1="93.625" y2="93.625"/><text fill="#000000" font-family="sans-serif" font-size="11" lengthAdjust="spacingAndGlyphs" textLength="143" x="459.5" y="109.0439">String describeException(E e)</text><rect fill="#FEFECE" filter="url(#f1)" height="73.6719" style="stroke: #A80036; stroke-width: 1.5;" width="79" x="268.5" y="223.125"/><ellipse cx="293.75" cy="238.125" fill="#ADD1B2" rx="10" ry="10" style="stroke: #A80036; stroke-width: 1.0;"/><path d="M296.3125,239.6094 L297.4375,239.9063 Q297.0781,241.2969 296.1563,242.0313 Q295.2344,242.7656 293.8906,242.7656 Q292.5,242.7656 291.625,242.2031 Q290.75,241.6406 290.2969,240.5703 Q289.8438,239.5 289.8438,238.2656 Q289.8438,236.9219 290.3594,235.9219 Q290.875,234.9219 291.8203,234.4063 Q292.7656,233.8906 293.9063,233.8906 Q295.1875,233.8906 296.0703,234.5469 Q296.9531,235.2031 297.2969,236.3906 L296.1719,236.6563 Q295.875,235.7188 295.3047,235.2891 Q294.7344,234.8594 293.875,234.8594 Q292.8906,234.8594 292.2266,235.3359 Q291.5625,235.8125 291.2891,236.6094 Q291.0156,237.4063 291.0156,238.2656 Q291.0156,239.3594 291.3359,240.1719 Q291.6563,240.9844 292.3281,241.3906 Q293,241.7969 293.7969,241.7969 Q294.75,241.7969 295.4141,241.25 Q296.0781,240.7031 296.3125,239.6094 Z "/><text fill="#000000" font-family="sans-serif" font-size="12" lengthAdjust="spacingAndGlyphs" textLength="24" x="309.25" y="243.0352">Trail</text><line style="stroke: #A80036; stroke-width: 1.5;" x1="269.5" x2="346.5" y1="253.125" y2="253.125"/><rect fill="none" height="6" style="stroke: #C82930; stroke-width: 1.0;" width="6" x="276.5" y="262.543"/><text fill="#000000" font-family="sans-serif" font-size="11" lengthAdjust="spacingAndGlyphs" textLength="31" x="287.5" y="268.5439">long id</text><line style="stroke: #A80036; stroke-width: 1.5;" x1="269.5" x2="346.5" y1="274.9609" y2="274.9609"/><ellipse cx="279.5" cy="287.3789" fill="#84BE84" rx="3" ry="3" style="stroke: #038048; stroke-width: 1.0;"/><text fill="#000000" font-family="sans-serif" font-size="11" lengthAdjust="spacingAndGlyphs" textLength="54" x="287.5" y="290.3799">long getId()</text><rect fill="#FEFECE" filter="url(#f1)" height="101.3438" style="stroke: #A80036; stroke-width: 1.5;" width="106" x="182" y="377.125"/><ellipse cx="212.2" cy="392.125" fill="#ADD1B2" rx="10" ry="10" style="stroke: #A80036; stroke-width: 1.0;"/><path d="M214.7625,393.6094 L215.8875,393.9063 Q215.5281,395.2969 214.6063,396.0313 Q213.6844,396.7656 212.3406,396.7656 Q210.95,396.7656 210.075,396.2031 Q209.2,395.6406 208.7469,394.5703 Q208.2938,393.5 208.2938,392.2656 Q208.2938,390.9219 208.8094,389.9219 Q209.325,388.9219 210.2703,388.4063 Q211.2156,387.8906 212.3563,387.8906 Q213.6375,387.8906 214.5203,388.5469 Q215.4031,389.2031 215.7469,390.3906 L214.6219,390.6563 Q214.325,389.7188 213.7547,389.2891 Q213.1844,388.8594 212.325,388.8594 Q211.3406,388.8594 210.6766,389.3359 Q210.0125,389.8125 209.7391,390.6094 Q209.4656,391.4063 209.4656,392.2656 Q209.4656,393.3594 209.7859,394.1719 Q210.1063,394.9844 210.7781,395.3906 Q211.45,395.7969 212.2469,395.7969 Q213.2,395.7969 213.8641,395.25 Q214.5281,394.7031 214.7625,393.6094 Z "/><text fill="#000000" font-family="sans-serif" font-size="12" lengthAdjust="spacingAndGlyphs" textLength="40" x="228.8" y="397.0352">Initiator</text><line style="stroke: #A80036; stroke-width: 1.5;" x1="183" x2="287" y1="407.125" y2="407.125"/><rect fill="none" height="6" style="stroke: #C82930; stroke-width: 1.0;" width="6" x="190" y="416.543"/><text fill="#000000" font-family="sans-serif" font-size="11" lengthAdjust="spacingAndGlyphs" textLength="39" x="201" y="422.5439">String id</text><rect fill="none" height="6" style="stroke: #C82930; stroke-width: 1.0;" width="6" x="190" y="430.3789"/><text fill="#000000" font-family="sans-serif" font-size="11" lengthAdjust="spacingAndGlyphs" textLength="57" x="201" y="436.3799">String name</text><line style="stroke: #A80036; stroke-width: 1.5;" x1="183" x2="287" y1="442.7969" y2="442.7969"/><ellipse cx="193" cy="455.2148" fill="#84BE84" rx="3" ry="3" style="stroke: #038048; stroke-width: 1.0;"/><text fill="#000000" font-family="sans-serif" font-size="11" lengthAdjust="spacingAndGlyphs" textLength="62" x="201" y="458.2158">String getId()</text><ellipse cx="193" cy="469.0508" fill="#84BE84" rx="3" ry="3" style="stroke: #038048; stroke-width: 1.0;"/><text fill="#000000" font-family="sans-serif" font-size="11" lengthAdjust="spacingAndGlyphs" textLength="81" x="201" y="472.0518">String getName()</text><rect fill="#FEFECE" filter="url(#f1)" height="101.3438" style="stroke: #A80036; stroke-width: 1.5;" width="106" x="328" y="377.125"/><ellipse cx="364.5" cy="392.125" fill="#ADD1B2" rx="10" ry="10" style="stroke: #A80036; stroke-width: 1.0;"/><path d="M367.0625,393.6094 L368.1875,393.9063 Q367.8281,395.2969 366.9063,396.0313 Q365.9844,396.7656 364.6406,396.7656 Q363.25,396.7656 362.375,396.2031 Q361.5,395.6406 361.0469,394.5703 Q360.5938,393.5 360.5938,392.2656 Q360.5938,390.9219 361.1094,389.9219 Q361.625,388.9219 362.5703,388.4063 Q363.5156,387.8906 364.6563,387.8906 Q365.9375,387.8906 366.8203,388.5469 Q367.7031,389.2031 368.0469,390.3906 L366.9219,390.6563 Q366.625,389.7188 366.0547,389.2891 Q365.4844,388.8594 364.625,388.8594 Q363.6406,388.8594 362.9766,389.3359 Q362.3125,389.8125 362.0391,390.6094 Q361.7656,391.4063 361.7656,392.2656 Q361.7656,393.3594 362.0859,394.1719 Q362.4063,394.9844 363.0781,395.3906 Q363.75,395.7969 364.5469,395.7969 Q365.5,395.7969 366.1641,395.25 Q366.8281,394.7031 367.0625,393.6094 Z "/><text fill="#000000" font-family="sans-serif" font-size="12" lengthAdjust="spacingAndGlyphs" textLength="26" x="382.5" y="397.0352">Host</text><line style="stroke: #A80036; stroke-width: 1.5;" x1="329" x2="433" y1="407.125" y2="407.125"/><rect fill="none" height="6" style="stroke: #C82930; stroke-width: 1.0;" width="6" x="336" y="416.543"/><text fill="#000000" font-family="sans-serif" font-size="11" lengthAdjust="spacingAndGlyphs" textLength="57" x="347" y="422.5439">String name</text><rect fill="none" height="6" style="stroke: #C82930; stroke-width: 1.0;" width="6" x="336" y="430.3789"/><text fill="#000000" font-family="sans-serif" font-size="11" lengthAdjust="spacingAndGlyphs" textLength="39" x="347" y="436.3799">String id</text><line style="stroke: #A80036; stroke-width: 1.5;" x1="329" x2="433" y1="442.7969" y2="442.7969"/><ellipse cx="339" cy="455.2148" fill="#84BE84" rx="3" ry="3" style="stroke: #038048; stroke-width: 1.0;"/><text fill="#000000" font-family="sans-serif" font-size="11" lengthAdjust="spacingAndGlyphs" textLength="81" x="347" y="458.2158">String getName()</text><ellipse cx="339" cy="469.0508" fill="#84BE84" rx="3" ry="3" style="stroke: #038048; stroke-width: 1.0;"/><text fill="#000000" font-family="sans-serif" font-size="11" lengthAdjust="spacingAndGlyphs" textLength="62" x="347" y="472.0518">String getId()</text><rect fill="#FEFECE" filter="url(#f1)" height="101.3438" style="stroke: #A80036; stroke-width: 1.5;" width="129" x="243.5" y="558.125"/><ellipse cx="281.35" cy="573.125" fill="#ADD1B2" rx="10" ry="10" style="stroke: #A80036; stroke-width: 1.0;"/><path d="M283.9125,574.6094 L285.0375,574.9063 Q284.6781,576.2969 283.7563,577.0313 Q282.8344,577.7656 281.4906,577.7656 Q280.1,577.7656 279.225,577.2031 Q278.35,576.6406 277.8969,575.5703 Q277.4438,574.5 277.4438,573.2656 Q277.4438,571.9219 277.9594,570.9219 Q278.475,569.9219 279.4203,569.4063 Q280.3656,568.8906 281.5063,568.8906 Q282.7875,568.8906 283.6703,569.5469 Q284.5531,570.2031 284.8969,571.3906 L283.7719,571.6563 Q283.475,570.7188 282.9047,570.2891 Q282.3344,569.8594 281.475,569.8594 Q280.4906,569.8594 279.8266,570.3359 Q279.1625,570.8125 278.8891,571.6094 Q278.6156,572.4063 278.6156,573.2656 Q278.6156,574.3594 278.9359,575.1719 Q279.2563,575.9844 279.9281,576.3906 Q280.6,576.7969 281.3969,576.7969 Q282.35,576.7969 283.0141,576.25 Q283.6781,575.7031 283.9125,574.6094 Z "/><text fill="#000000" font-family="sans-serif" font-size="12" lengthAdjust="spacingAndGlyphs" textLength="46" x="299.65" y="578.0352">Address</text><line style="stroke: #A80036; stroke-width: 1.5;" x1="244.5" x2="371.5" y1="588.125" y2="588.125"/><rect fill="none" height="6" style="stroke: #C82930; stroke-width: 1.0;" width="6" x="251.5" y="597.543"/><text fill="#000000" font-family="sans-serif" font-size="11" lengthAdjust="spacingAndGlyphs" textLength="76" x="262.5" y="603.5439">String dnsName</text><rect fill="none" height="6" style="stroke: #C82930; stroke-width: 1.0;" width="6" x="251.5" y="611.3789"/><text fill="#000000" font-family="sans-serif" font-size="11" lengthAdjust="spacingAndGlyphs" textLength="81" x="262.5" y="617.3799">String ipAddress</text><line style="stroke: #A80036; stroke-width: 1.5;" x1="244.5" x2="371.5" y1="623.7969" y2="623.7969"/><ellipse cx="254.5" cy="636.2148" fill="#84BE84" rx="3" ry="3" style="stroke: #038048; stroke-width: 1.0;"/><text fill="#000000" font-family="sans-serif" font-size="11" lengthAdjust="spacingAndGlyphs" textLength="100" x="262.5" y="639.2158">String getDnsName()</text><ellipse cx="254.5" cy="650.0508" fill="#84BE84" rx="3" ry="3" style="stroke: #038048; stroke-width: 1.0;"/><text fill="#000000" font-family="sans-serif" font-size="11" lengthAdjust="spacingAndGlyphs" textLength="104" x="262.5" y="653.0518">String getIpAddress()</text><rect fill="#FEFECE" filter="url(#f1)" height="73.6719" style="stroke: #A80036; stroke-width: 1.5;" width="181" x="217.5" y="739.125"/><ellipse cx="269.5" cy="754.125" fill="#B4A7E5" rx="10" ry="10" style="stroke: #A80036; stroke-width: 1.0;"/><path d="M269.125,758.625 L269.125,750.0313 L270.25,750.0313 L270.25,758.625 L269.125,758.625 Z "/><text fill="#000000" font-family="sans-serif" font-size="12" font-style="italic" lengthAdjust="spacingAndGlyphs" textLength="69" x="288.5" y="759.0352">AuditService</text><line style="stroke: #A80036; stroke-width: 1.5;" x1="218.5" x2="397.5" y1="769.125" y2="769.125"/><line style="stroke: #A80036; stroke-width: 1.5;" x1="218.5" x2="397.5" y1="777.125" y2="777.125"/><text fill="#000000" font-family="sans-serif" font-size="11" lengthAdjust="spacingAndGlyphs" textLength="82" x="223.5" y="792.5439">Trail createTrail()</text><text fill="#000000" font-family="sans-serif" font-size="11" lengthAdjust="spacingAndGlyphs" textLength="169" x="223.5" y="806.3799">void trail(String message, Trail trail)</text><path d="M308,156.763 C308,179.532 308,203.855 308,223.076 " fill="none" style="stroke: #A80036; stroke-width: 1.0;"/><polygon fill="#A80036" points="308,143.586,304,149.586,308,155.586,312,149.586,308,143.586" style="stroke: #A80036; stroke-width: 1.0;"/><path d="M286.684,309.451 C277.331,330.656 266.359,355.531 256.936,376.893 " fill="none" style="stroke: #A80036; stroke-width: 1.0;"/><polygon fill="#A80036" points="291.98,297.445,285.899,301.3207,287.1377,308.4246,293.2187,304.5489,291.98,297.445" style="stroke: #A80036; stroke-width: 1.0;"/><path d="M329.316,309.451 C338.669,330.656 349.641,355.531 359.064,376.893 " fill="none" style="stroke: #A80036; stroke-width: 1.0;"/><polygon fill="#A80036" points="324.02,297.445,322.7813,304.5489,328.8623,308.4246,330.101,301.3207,324.02,297.445" style="stroke: #A80036; stroke-width: 1.0;"/><path d="M260.342,490.766 C269.315,512.768 279.284,537.211 287.774,558.031 " fill="none" style="stroke: #A80036; stroke-width: 1.0;"/><polygon fill="#A80036" points="255.335,478.486,253.8967,485.5522,259.8662,489.5976,261.3045,482.5314,255.335,478.486" style="stroke: #A80036; stroke-width: 1.0;"/><path d="M355.658,490.766 C346.685,512.768 336.716,537.211 328.226,558.031 " fill="none" style="stroke: #A80036; stroke-width: 1.0;"/><polygon fill="#A80036" points="360.665,478.486,354.6955,482.5314,356.1338,489.5976,362.1033,485.5522,360.665,478.486" style="stroke: #A80036; stroke-width: 1.0;"/></g></svg>