<?xml version="1.0" encoding="UTF-8" standalone="yes"?><svg xmlns="http://www.w3.org/2000/svg" xmlns:xlink="http://www.w3.org/1999/xlink" height="404pt" style="width:849px;height:404px;" version="1.1" viewBox="0 0 849 404" width="849pt"><defs><filter height="300%" id="f1" width="300%" x="-1" y="-1"><feGaussianBlur result="blurOut" stdDeviation="2.0"/><feColorMatrix in="blurOut" result="blurOut2" type="matrix" values="0 0 0 0 0 0 0 0 0 0 0 0 0 0 0 0 0 0 .4 0"/><feOffset dx="4.0" dy="4.0" in="blurOut2" result="blurOut3"/><feBlend in="SourceGraphic" in2="blurOut3" mode="normal"/></filter></defs><g><text fill="#000000" font-family="sans-serif" font-size="16" lengthAdjust="spacingAndGlyphs" textLength="295" x="281.5" y="16.6094">Business Framework : Domain Identity API</text><rect fill="#FEFECE" filter="url(#f1)" height="73.6719" style="stroke: #A80036; stroke-width: 1.5;" width="220" x="18" y="28.125"/><ellipse cx="104" cy="43.125" fill="#DA70D6" rx="10" ry="10" style="stroke: #A80036; stroke-width: 1.0;"/><path d="M104.0469,45.1719 Q103.6719,45.6094 103.2031,45.875 Q102.7344,46.1406 102.25,46.1406 Q101.7344,46.1406 101.2422,45.8359 Q100.75,45.5313 100.4453,44.8984 Q100.1406,44.2656 100.1406,43.5156 Q100.1406,42.5781 100.6172,41.6406 Q101.0938,40.7031 101.7969,40.2344 Q102.5,39.7656 103.1719,39.7656 Q103.6875,39.7656 104.1484,40.0391 Q104.6094,40.3125 104.9375,40.8438 L105.1406,39.9375 L106.1875,39.9375 L105.3438,43.875 Q105.1719,44.6875 105.1719,44.7813 Q105.1719,44.9375 105.2891,45.0547 Q105.4063,45.1719 105.5781,45.1719 Q105.8906,45.1719 106.3906,44.8125 Q107.0625,44.3438 107.4531,43.5547 Q107.8438,42.7656 107.8438,41.9219 Q107.8438,40.9531 107.3438,40.1016 Q106.8438,39.25 105.8516,38.7422 Q104.8594,38.2344 103.6563,38.2344 Q102.2813,38.2344 101.1484,38.875 Q100.0156,39.5156 99.3906,40.7109 Q98.7656,41.9063 98.7656,43.2813 Q98.7656,44.7188 99.3906,45.7578 Q100.0156,46.7969 101.1953,47.2891 Q102.375,47.7813 103.8125,47.7813 Q105.3438,47.7813 106.3828,47.2656 Q107.4219,46.75 107.9375,46.0156 L109,46.0156 Q108.7031,46.625 107.9766,47.2656 Q107.25,47.9063 106.25,48.2813 Q105.25,48.6563 103.8281,48.6563 Q102.5313,48.6563 101.4297,48.3203 Q100.3281,47.9844 99.5547,47.3125 Q98.7813,46.6406 98.3906,45.7656 Q97.9063,44.6563 97.9063,43.375 Q97.9063,41.9531 98.4844,40.6563 Q99.2031,39.0625 100.5156,38.2188 Q101.8281,37.375 103.7031,37.375 Q105.1563,37.375 106.3125,37.9688 Q107.4688,38.5625 108.1406,39.75 Q108.7188,40.75 108.7188,41.9531 Q108.7188,43.6406 107.5156,44.9688 Q106.4531,46.1563 105.1875,46.1563 Q104.7813,46.1563 104.5313,46.0313 Q104.2813,45.9063 104.1719,45.6719 Q104.0938,45.5313 104.0469,45.1719 Z M101.2188,43.5781 Q101.2188,44.3906 101.6016,44.8359 Q101.9844,45.2813 102.4688,45.2813 Q102.7969,45.2813 103.1641,45.0781 Q103.5313,44.875 103.8594,44.4922 Q104.1875,44.1094 104.3984,43.5156 Q104.6094,42.9219 104.6094,42.3281 Q104.6094,41.5313 104.2109,41.0859 Q103.8125,40.6406 103.25,40.6406 Q102.875,40.6406 102.5469,40.8359 Q102.2188,41.0313 101.9063,41.4531 Q101.5938,41.875 101.4063,42.4766 Q101.2188,43.0781 101.2188,43.5781 Z "/><text fill="#000000" font-family="sans-serif" font-size="12" font-style="italic" lengthAdjust="spacingAndGlyphs" textLength="40" x="123" y="48.0352">Identity</text><line style="stroke: #A80036; stroke-width: 1.5;" x1="19" x2="237" y1="58.125" y2="58.125"/><line style="stroke: #A80036; stroke-width: 1.5;" x1="19" x2="237" y1="66.125" y2="66.125"/><text fill="#000000" font-family="sans-serif" font-size="11" lengthAdjust="spacingAndGlyphs" textLength="208" x="24" y="81.5439">Class&lt;? extends IdentityHandler&gt; handler()</text><text fill="#000000" font-family="sans-serif" font-size="11" lengthAdjust="spacingAndGlyphs" textLength="73" x="24" y="95.3799">String source()</text><rect fill="#FEFECE" filter="url(#f1)" height="59.8359" style="stroke: #A80036; stroke-width: 1.5;" width="289" x="278.5" y="35.125"/><ellipse cx="305.1" cy="50.125" fill="#B4A7E5" rx="10" ry="10" style="stroke: #A80036; stroke-width: 1.0;"/><path d="M304.725,54.625 L304.725,46.0313 L305.85,46.0313 L305.85,54.625 L304.725,54.625 Z "/><text fill="#000000" font-family="sans-serif" font-size="12" font-style="italic" lengthAdjust="spacingAndGlyphs" textLength="231" x="320.9" y="55.0352">IdentityHandler&lt;E extends Entity&lt;ID&gt;, ID&gt;</text><line style="stroke: #A80036; stroke-width: 1.5;" x1="279.5" x2="566.5" y1="65.125" y2="65.125"/><line style="stroke: #A80036; stroke-width: 1.5;" x1="279.5" x2="566.5" y1="73.125" y2="73.125"/><text fill="#000000" font-family="sans-serif" font-size="11" lengthAdjust="spacingAndGlyphs" textLength="277" x="284.5" y="88.5439">ID handle(E entity, Map&lt;String,String&gt; entityConfiguration)</text><rect fill="#FEFECE" filter="url(#f1)" height="59.8359" style="stroke: #A80036; stroke-width: 1.5;" width="111" x="607.5" y="35.125"/><ellipse cx="621.5" cy="50.125" fill="#B4A7E5" rx="10" ry="10" style="stroke: #A80036; stroke-width: 1.0;"/><path d="M621.125,54.625 L621.125,46.0313 L622.25,46.0313 L622.25,54.625 L621.125,54.625 Z "/><text fill="#000000" font-family="sans-serif" font-size="12" font-style="italic" lengthAdjust="spacingAndGlyphs" textLength="81" x="634.5" y="55.0352">IdentityService</text><line style="stroke: #A80036; stroke-width: 1.5;" x1="608.5" x2="717.5" y1="65.125" y2="65.125"/><line style="stroke: #A80036; stroke-width: 1.5;" x1="608.5" x2="717.5" y1="73.125" y2="73.125"/><text fill="#000000" font-family="sans-serif" font-size="11" lengthAdjust="spacingAndGlyphs" textLength="87" x="613.5" y="88.5439">E identify(E entity)</text><rect fill="#FEFECE" filter="url(#f1)" height="46" style="stroke: #A80036; stroke-width: 1.5;" width="277" x="99.5" y="182.125"/><ellipse cx="113.5" cy="197.125" fill="#B4A7E5" rx="10" ry="10" style="stroke: #A80036; stroke-width: 1.0;"/><path d="M113.125,201.625 L113.125,193.0313 L114.25,193.0313 L114.25,201.625 L113.125,201.625 Z "/><text fill="#000000" font-family="sans-serif" font-size="12" font-style="italic" lengthAdjust="spacingAndGlyphs" textLength="247" x="126.5" y="202.0352">SequenceHandler&lt;E extends Entity&lt;ID&gt;, ID&gt;</text><line style="stroke: #A80036; stroke-width: 1.5;" x1="100.5" x2="375.5" y1="212.125" y2="212.125"/><line style="stroke: #A80036; stroke-width: 1.5;" x1="100.5" x2="375.5" y1="220.125" y2="220.125"/><rect fill="#FEFECE" filter="url(#f1)" height="46" style="stroke: #A80036; stroke-width: 1.5;" width="252" x="483" y="182.125"/><ellipse cx="497" cy="197.125" fill="#B4A7E5" rx="10" ry="10" style="stroke: #A80036; stroke-width: 1.0;"/><path d="M496.625,201.625 L496.625,193.0313 L497.75,193.0313 L497.75,201.625 L496.625,201.625 Z "/><text fill="#000000" font-family="sans-serif" font-size="12" font-style="italic" lengthAdjust="spacingAndGlyphs" textLength="222" x="510" y="202.0352">UUIDHandler&lt;E extends Entity&lt;ID&gt;, ID&gt;</text><line style="stroke: #A80036; stroke-width: 1.5;" x1="484" x2="734" y1="212.125" y2="212.125"/><line style="stroke: #A80036; stroke-width: 1.5;" x1="484" x2="734" y1="220.125" y2="220.125"/><rect fill="#FEFECE" filter="url(#f1)" height="87.5078" style="stroke: #A80036; stroke-width: 1.5;" width="398" x="6" y="308.125"/><ellipse cx="59" cy="323.125" fill="#ADD1B2" rx="10" ry="10" style="stroke: #A80036; stroke-width: 1.0;"/><path d="M61.5625,324.6094 L62.6875,324.9063 Q62.3281,326.2969 61.4063,327.0313 Q60.4844,327.7656 59.1406,327.7656 Q57.75,327.7656 56.875,327.2031 Q56,326.6406 55.5469,325.5703 Q55.0938,324.5 55.0938,323.2656 Q55.0938,321.9219 55.6094,320.9219 Q56.125,319.9219 57.0703,319.4063 Q58.0156,318.8906 59.1563,318.8906 Q60.4375,318.8906 61.3203,319.5469 Q62.2031,320.2031 62.5469,321.3906 L61.4219,321.6563 Q61.125,320.7188 60.5547,320.2891 Q59.9844,319.8594 59.125,319.8594 Q58.1406,319.8594 57.4766,320.3359 Q56.8125,320.8125 56.5391,321.6094 Q56.2656,322.4063 56.2656,323.2656 Q56.2656,324.3594 56.5859,325.1719 Q56.9063,325.9844 57.5781,326.3906 Q58.25,326.7969 59.0469,326.7969 Q60,326.7969 60.6641,326.25 Q61.3281,325.7031 61.5625,324.6094 Z "/><text fill="#000000" font-family="sans-serif" font-size="12" lengthAdjust="spacingAndGlyphs" textLength="284" x="78" y="328.0352">OracleSequenceHandler&lt;BaseEntity&lt;Long&gt;, Long&gt;</text><line style="stroke: #A80036; stroke-width: 1.5;" x1="7" x2="403" y1="338.125" y2="338.125"/><polygon fill="none" points="17,346.543,13,352.543,21,352.543" style="stroke: #1963A0; stroke-width: 1.0;"/><text fill="#000000" font-family="sans-serif" font-size="11" lengthAdjust="spacingAndGlyphs" textLength="139" x="25" y="353.5439">EntityManager entityManager</text><rect fill="none" height="6" style="stroke: #C82930; stroke-width: 1.0;" width="6" x="14" y="361.3789"/><text fill="#000000" font-family="sans-serif" font-size="11" lengthAdjust="spacingAndGlyphs" text-decoration="underline" textLength="120" x="25" y="367.3799">String SEQUENCE_NAME</text><line style="stroke: #000000; stroke-width: 1.0;" x1="25" x2="145" y1="369.3799" y2="369.3799"/><line style="stroke: #A80036; stroke-width: 1.5;" x1="7" x2="403" y1="373.7969" y2="373.7969"/><ellipse cx="17" cy="386.2148" fill="#84BE84" rx="3" ry="3" style="stroke: #038048; stroke-width: 1.0;"/><text fill="#000000" font-family="sans-serif" font-size="11" lengthAdjust="spacingAndGlyphs" textLength="373" x="25" y="389.2158">Long handle(BaseEntity&lt;Long&gt; entity, Map&lt;String,String&gt; entityConfiguration)</text><rect fill="#FEFECE" filter="url(#f1)" height="59.8359" style="stroke: #A80036; stroke-width: 1.5;" width="396" x="444" y="322.125"/><ellipse cx="505.5" cy="337.125" fill="#ADD1B2" rx="10" ry="10" style="stroke: #A80036; stroke-width: 1.0;"/><path d="M508.0625,338.6094 L509.1875,338.9063 Q508.8281,340.2969 507.9063,341.0313 Q506.9844,341.7656 505.6406,341.7656 Q504.25,341.7656 503.375,341.2031 Q502.5,340.6406 502.0469,339.5703 Q501.5938,338.5 501.5938,337.2656 Q501.5938,335.9219 502.1094,334.9219 Q502.625,333.9219 503.5703,333.4063 Q504.5156,332.8906 505.6563,332.8906 Q506.9375,332.8906 507.8203,333.5469 Q508.7031,334.2031 509.0469,335.3906 L507.9219,335.6563 Q507.625,334.7188 507.0547,334.2891 Q506.4844,333.8594 505.625,333.8594 Q504.6406,333.8594 503.9766,334.3359 Q503.3125,334.8125 503.0391,335.6094 Q502.7656,336.4063 502.7656,337.2656 Q502.7656,338.3594 503.0859,339.1719 Q503.4063,339.9844 504.0781,340.3906 Q504.75,340.7969 505.5469,340.7969 Q506.5,340.7969 507.1641,340.25 Q507.8281,339.7031 508.0625,338.6094 Z "/><text fill="#000000" font-family="sans-serif" font-size="12" lengthAdjust="spacingAndGlyphs" textLength="265" x="524.5" y="342.0352">SimpleUUIDHandler &lt;BaseEntity&lt;UUID&gt;,UUID&gt;</text><line style="stroke: #A80036; stroke-width: 1.5;" x1="445" x2="839" y1="352.125" y2="352.125"/><line style="stroke: #A80036; stroke-width: 1.5;" x1="445" x2="839" y1="360.125" y2="360.125"/><ellipse cx="455" cy="372.543" fill="#84BE84" rx="3" ry="3" style="stroke: #038048; stroke-width: 1.0;"/><text fill="#000000" font-family="sans-serif" font-size="11" lengthAdjust="spacingAndGlyphs" textLength="371" x="463" y="375.5439">UUID handle(BaseEntity&lt;UUID&gt; entity, Map&lt;String,String&gt; entityConfiguration)</text><path d="M367.429,107.578 C334.691,131.998 294.57,161.927 267.756,181.929 " fill="none" style="stroke: #A80036; stroke-width: 1.0;"/><polygon fill="none" points="363.55,101.739,383.766,95.391,371.921,112.961,363.55,101.739" style="stroke: #A80036; stroke-width: 1.0;"/><path d="M478.871,107.578 C511.786,131.998 552.124,161.927 579.084,181.929 " fill="none" style="stroke: #A80036; stroke-width: 1.0;"/><polygon fill="none" points="474.337,112.93,462.446,95.391,482.679,101.687,474.337,112.93" style="stroke: #A80036; stroke-width: 1.0;"/><path d="M228.489,247.916 C224.213,266.705 219.169,288.869 214.853,307.832 " fill="none" style="stroke: #A80036; stroke-width: 1.0; stroke-dasharray: 7.0,7.0;"/><polygon fill="none" points="221.724,246.095,232.988,228.147,235.375,249.202,221.724,246.095" style="stroke: #A80036; stroke-width: 1.0;"/><path d="M618.53,248.001 C623.915,271.661 630.513,300.6528 635.341,321.8639 " fill="none" style="stroke: #A80036; stroke-width: 1.0; stroke-dasharray: 7.0,7.0;"/><polygon fill="none" points="611.625,249.202,614.012,228.147,625.276,246.095,611.625,249.202" style="stroke: #A80036; stroke-width: 1.0;"/></g></svg>