<?xml version="1.0" encoding="UTF-8" standalone="yes"?><svg xmlns="http://www.w3.org/2000/svg" xmlns:xlink="http://www.w3.org/1999/xlink" height="642pt" style="width:570px;height:642px;" version="1.1" viewBox="0 0 570 642" width="570pt"><defs><filter height="300%" id="f1" width="300%" x="-1" y="-1"><feGaussianBlur result="blurOut" stdDeviation="2.0"/><feColorMatrix in="blurOut" result="blurOut2" type="matrix" values="0 0 0 0 0 0 0 0 0 0 0 0 0 0 0 0 0 0 .4 0"/><feOffset dx="4.0" dy="4.0" in="blurOut2" result="blurOut3"/><feBlend in="SourceGraphic" in2="blurOut3" mode="normal"/></filter></defs><g><text fill="#000000" font-family="sans-serif" font-size="16" lengthAdjust="spacingAndGlyphs" textLength="286" x="146.5" y="16.6094">Business Framework : Domain Event API</text><rect fill="#FEFECE" filter="url(#f1)" height="46" style="stroke: #A80036; stroke-width: 1.5;" width="61" x="248" y="35.125"/><ellipse cx="262" cy="50.125" fill="#B4A7E5" rx="10" ry="10" style="stroke: #A80036; stroke-width: 1.0;"/><path d="M261.625,54.625 L261.625,46.0313 L262.75,46.0313 L262.75,54.625 L261.625,54.625 Z "/><text fill="#000000" font-family="sans-serif" font-size="12" font-style="italic" lengthAdjust="spacingAndGlyphs" textLength="31" x="275" y="55.0352">Event</text><line style="stroke: #A80036; stroke-width: 1.5;" x1="249" x2="308" y1="65.125" y2="65.125"/><line style="stroke: #A80036; stroke-width: 1.5;" x1="249" x2="308" y1="73.125" y2="73.125"/><rect fill="#FEFECE" filter="url(#f1)" height="59.8359" style="stroke: #A80036; stroke-width: 1.5;" width="111" x="349" y="28.125"/><ellipse cx="365.7" cy="43.125" fill="#B4A7E5" rx="10" ry="10" style="stroke: #A80036; stroke-width: 1.0;"/><path d="M365.325,47.625 L365.325,39.0313 L366.45,39.0313 L366.45,47.625 L365.325,47.625 Z "/><text fill="#000000" font-family="sans-serif" font-size="12" font-style="italic" lengthAdjust="spacingAndGlyphs" textLength="75" x="379.3" y="48.0352">EventHandler</text><line style="stroke: #A80036; stroke-width: 1.5;" x1="350" x2="459" y1="58.125" y2="58.125"/><line style="stroke: #A80036; stroke-width: 1.5;" x1="350" x2="459" y1="66.125" y2="66.125"/><text fill="#000000" font-family="sans-serif" font-size="11" lengthAdjust="spacingAndGlyphs" textLength="99" x="355" y="81.5439">void handle(E event)</text><rect fill="#FEFECE" filter="url(#f1)" height="59.8359" style="stroke: #A80036; stroke-width: 1.5;" width="102" x="227.5" y="574.125"/><ellipse cx="241.5" cy="589.125" fill="#B4A7E5" rx="10" ry="10" style="stroke: #A80036; stroke-width: 1.0;"/><path d="M241.125,593.625 L241.125,585.0313 L242.25,585.0313 L242.25,593.625 L241.125,593.625 Z "/><text fill="#000000" font-family="sans-serif" font-size="12" font-style="italic" lengthAdjust="spacingAndGlyphs" textLength="72" x="254.5" y="594.0352">EventService</text><line style="stroke: #A80036; stroke-width: 1.5;" x1="228.5" x2="328.5" y1="604.125" y2="604.125"/><line style="stroke: #A80036; stroke-width: 1.5;" x1="228.5" x2="328.5" y1="612.125" y2="612.125"/><text fill="#000000" font-family="sans-serif" font-size="11" lengthAdjust="spacingAndGlyphs" textLength="83" x="233.5" y="627.5439">void fire(E event)</text><rect fill="#FEFECE" filter="url(#f1)" height="46" style="stroke: #A80036; stroke-width: 1.5;" width="105" x="226" y="168.125"/><ellipse cx="240" cy="183.125" fill="#A9DCDF" rx="10" ry="10" style="stroke: #A80036; stroke-width: 1.0;"/><path d="M236.4844,187.125 L239.7813,178.5313 L241,178.5313 L244.5156,187.125 L243.2344,187.125 L242.2188,184.5156 L238.6406,184.5156 L237.6875,187.125 L236.4844,187.125 Z M238.9688,183.5938 L241.875,183.5938 L240.9844,181.2188 Q240.5625,180.1406 240.375,179.4375 Q240.2031,180.2656 239.9063,181.0781 L238.9688,183.5938 Z "/><text fill="#000000" font-family="sans-serif" font-size="12" font-style="italic" lengthAdjust="spacingAndGlyphs" textLength="75" x="253" y="188.0352">DomainEvent</text><line style="stroke: #A80036; stroke-width: 1.5;" x1="227" x2="330" y1="198.125" y2="198.125"/><line style="stroke: #A80036; stroke-width: 1.5;" x1="227" x2="330" y1="206.125" y2="206.125"/><rect fill="#FEFECE" filter="url(#f1)" height="46" style="stroke: #A80036; stroke-width: 1.5;" width="126" x="59.5" y="168.125"/><ellipse cx="73.5" cy="183.125" fill="#A9DCDF" rx="10" ry="10" style="stroke: #A80036; stroke-width: 1.0;"/><path d="M69.9844,187.125 L73.2813,178.5313 L74.5,178.5313 L78.0156,187.125 L76.7344,187.125 L75.7188,184.5156 L72.1406,184.5156 L71.1875,187.125 L69.9844,187.125 Z M72.4688,183.5938 L75.375,183.5938 L74.4844,181.2188 Q74.0625,180.1406 73.875,179.4375 Q73.7031,180.2656 73.4063,181.0781 L72.4688,183.5938 Z "/><text fill="#000000" font-family="sans-serif" font-size="12" font-style="italic" lengthAdjust="spacingAndGlyphs" textLength="96" x="86.5" y="188.0352">BaseValueObject</text><line style="stroke: #A80036; stroke-width: 1.5;" x1="60.5" x2="184.5" y1="198.125" y2="198.125"/><line style="stroke: #A80036; stroke-width: 1.5;" x1="60.5" x2="184.5" y1="206.125" y2="206.125"/><rect fill="#FEFECE" filter="url(#f1)" height="73.6719" style="stroke: #A80036; stroke-width: 1.5;" width="305" x="126" y="294.125"/><ellipse cx="216.5" cy="309.125" fill="#A9DCDF" rx="10" ry="10" style="stroke: #A80036; stroke-width: 1.0;"/><path d="M212.9844,313.125 L216.2813,304.5313 L217.5,304.5313 L221.0156,313.125 L219.7344,313.125 L218.7188,310.5156 L215.1406,310.5156 L214.1875,313.125 L212.9844,313.125 Z M215.4688,309.5938 L218.375,309.5938 L217.4844,307.2188 Q217.0625,306.1406 216.875,305.4375 Q216.7031,306.2656 216.4063,307.0781 L215.4688,309.5938 Z "/><text fill="#000000" font-family="sans-serif" font-size="12" font-style="italic" lengthAdjust="spacingAndGlyphs" textLength="116" x="235.5" y="314.0352">BaseAggregateEvent</text><line style="stroke: #A80036; stroke-width: 1.5;" x1="127" x2="430" y1="324.125" y2="324.125"/><line style="stroke: #A80036; stroke-width: 1.5;" x1="127" x2="430" y1="332.125" y2="332.125"/><ellipse cx="137" cy="344.543" fill="#84BE84" rx="3" ry="3" style="stroke: #038048; stroke-width: 1.0;"/><text fill="#000000" font-family="sans-serif" font-size="11" lengthAdjust="spacingAndGlyphs" textLength="280" x="145" y="347.5439">Class&lt;? extends AggregateRoot&lt;?&gt;&gt; getAggregateRoot()</text><ellipse cx="137" cy="358.3789" fill="#84BE84" rx="3" ry="3" style="stroke: #038048; stroke-width: 1.0;"/><text fill="#000000" font-family="sans-serif" font-size="11" lengthAdjust="spacingAndGlyphs" textLength="100" x="145" y="361.3799">Context getContext()</text><rect fill="#FEFECE" filter="url(#f1)" height="46" style="stroke: #A80036; stroke-width: 1.5;" width="159" x="6" y="448.125"/><ellipse cx="20" cy="463.125" fill="#ADD1B2" rx="10" ry="10" style="stroke: #A80036; stroke-width: 1.0;"/><path d="M22.5625,464.6094 L23.6875,464.9063 Q23.3281,466.2969 22.4063,467.0313 Q21.4844,467.7656 20.1406,467.7656 Q18.75,467.7656 17.875,467.2031 Q17,466.6406 16.5469,465.5703 Q16.0938,464.5 16.0938,463.2656 Q16.0938,461.9219 16.6094,460.9219 Q17.125,459.9219 18.0703,459.4063 Q19.0156,458.8906 20.1563,458.8906 Q21.4375,458.8906 22.3203,459.5469 Q23.2031,460.2031 23.5469,461.3906 L22.4219,461.6563 Q22.125,460.7188 21.5547,460.2891 Q20.9844,459.8594 20.125,459.8594 Q19.1406,459.8594 18.4766,460.3359 Q17.8125,460.8125 17.5391,461.6094 Q17.2656,462.4063 17.2656,463.2656 Q17.2656,464.3594 17.5859,465.1719 Q17.9063,465.9844 18.5781,466.3906 Q19.25,466.7969 20.0469,466.7969 Q21,466.7969 21.6641,466.25 Q22.3281,465.7031 22.5625,464.6094 Z "/><text fill="#000000" font-family="sans-serif" font-size="12" lengthAdjust="spacingAndGlyphs" textLength="129" x="33" y="468.0352">AggregateDeletedEvent</text><line style="stroke: #A80036; stroke-width: 1.5;" x1="7" x2="164" y1="478.125" y2="478.125"/><line style="stroke: #A80036; stroke-width: 1.5;" x1="7" x2="164" y1="486.125" y2="486.125"/><rect fill="#FEFECE" filter="url(#f1)" height="46" style="stroke: #A80036; stroke-width: 1.5;" width="146" x="205.5" y="448.125"/><ellipse cx="219.5" cy="463.125" fill="#ADD1B2" rx="10" ry="10" style="stroke: #A80036; stroke-width: 1.0;"/><path d="M222.0625,464.6094 L223.1875,464.9063 Q222.8281,466.2969 221.9063,467.0313 Q220.9844,467.7656 219.6406,467.7656 Q218.25,467.7656 217.375,467.2031 Q216.5,466.6406 216.0469,465.5703 Q215.5938,464.5 215.5938,463.2656 Q215.5938,461.9219 216.1094,460.9219 Q216.625,459.9219 217.5703,459.4063 Q218.5156,458.8906 219.6563,458.8906 Q220.9375,458.8906 221.8203,459.5469 Q222.7031,460.2031 223.0469,461.3906 L221.9219,461.6563 Q221.625,460.7188 221.0547,460.2891 Q220.4844,459.8594 219.625,459.8594 Q218.6406,459.8594 217.9766,460.3359 Q217.3125,460.8125 217.0391,461.6094 Q216.7656,462.4063 216.7656,463.2656 Q216.7656,464.3594 217.0859,465.1719 Q217.4063,465.9844 218.0781,466.3906 Q218.75,466.7969 219.5469,466.7969 Q220.5,466.7969 221.1641,466.25 Q221.8281,465.7031 222.0625,464.6094 Z "/><text fill="#000000" font-family="sans-serif" font-size="12" lengthAdjust="spacingAndGlyphs" textLength="116" x="232.5" y="468.0352">AggregateReadEvent</text><line style="stroke: #A80036; stroke-width: 1.5;" x1="206.5" x2="350.5" y1="478.125" y2="478.125"/><line style="stroke: #A80036; stroke-width: 1.5;" x1="206.5" x2="350.5" y1="486.125" y2="486.125"/><rect fill="#FEFECE" filter="url(#f1)" height="46" style="stroke: #A80036; stroke-width: 1.5;" width="169" x="392" y="448.125"/><ellipse cx="406" cy="463.125" fill="#ADD1B2" rx="10" ry="10" style="stroke: #A80036; stroke-width: 1.0;"/><path d="M408.5625,464.6094 L409.6875,464.9063 Q409.3281,466.2969 408.4063,467.0313 Q407.4844,467.7656 406.1406,467.7656 Q404.75,467.7656 403.875,467.2031 Q403,466.6406 402.5469,465.5703 Q402.0938,464.5 402.0938,463.2656 Q402.0938,461.9219 402.6094,460.9219 Q403.125,459.9219 404.0703,459.4063 Q405.0156,458.8906 406.1563,458.8906 Q407.4375,458.8906 408.3203,459.5469 Q409.2031,460.2031 409.5469,461.3906 L408.4219,461.6563 Q408.125,460.7188 407.5547,460.2891 Q406.9844,459.8594 406.125,459.8594 Q405.1406,459.8594 404.4766,460.3359 Q403.8125,460.8125 403.5391,461.6094 Q403.2656,462.4063 403.2656,463.2656 Q403.2656,464.3594 403.5859,465.1719 Q403.9063,465.9844 404.5781,466.3906 Q405.25,466.7969 406.0469,466.7969 Q407,466.7969 407.6641,466.25 Q408.3281,465.7031 408.5625,464.6094 Z "/><text fill="#000000" font-family="sans-serif" font-size="12" lengthAdjust="spacingAndGlyphs" textLength="139" x="419" y="468.0352">AggregatePersistedEvent</text><line style="stroke: #A80036; stroke-width: 1.5;" x1="393" x2="560" y1="478.125" y2="478.125"/><line style="stroke: #A80036; stroke-width: 1.5;" x1="393" x2="560" y1="486.125" y2="486.125"/><path d="M205.717,191.125 C212.433,191.125 219.148,191.125 225.864,191.125 " fill="none" style="stroke: #A80036; stroke-width: 1.0;"/><polygon fill="none" points="205.57,198.125,185.57,191.125,205.57,184.125,205.57,198.125" style="stroke: #A80036; stroke-width: 1.0;"/><path d="M278.5,101.624 C278.5,123.668 278.5,149.695 278.5,167.794 " fill="none" style="stroke: #A80036; stroke-width: 1.0; stroke-dasharray: 7.0,7.0;"/><polygon fill="none" points="271.5,101.347,278.5,81.347,285.5,101.347,271.5,101.347" style="stroke: #A80036; stroke-width: 1.0;"/><path d="M278.5,234.412 C278.5,253.472 278.5,275.747 278.5,294.011 " fill="none" style="stroke: #A80036; stroke-width: 1.0;"/><polygon fill="none" points="271.5,234.297,278.5,214.297,285.5,234.297,271.5,234.297" style="stroke: #A80036; stroke-width: 1.0;"/><path d="M278.5,388.438 C278.5,409.326 278.5,431.821 278.5,447.905 " fill="none" style="stroke: #A80036; stroke-width: 1.0;"/><polygon fill="none" points="271.5,388.383,278.5,368.383,285.5,388.383,271.5,388.383" style="stroke: #A80036; stroke-width: 1.0;"/><path d="M347.08,379.923 C380.294,403.072 418.566,429.747 444.827,448.05 " fill="none" style="stroke: #A80036; stroke-width: 1.0;"/><polygon fill="none" points="342.669,385.381,330.264,368.203,350.674,373.896,342.669,385.381" style="stroke: #A80036; stroke-width: 1.0;"/><path d="M211.652,379.923 C179.277,403.072 141.971,429.747 116.373,448.05 " fill="none" style="stroke: #A80036; stroke-width: 1.0;"/><polygon fill="none" points="207.703,374.141,228.044,368.203,215.846,385.53,207.703,374.141" style="stroke: #A80036; stroke-width: 1.0;"/></g></svg>