<?xml version="1.0" encoding="UTF-8" standalone="yes"?><svg xmlns="http://www.w3.org/2000/svg" xmlns:xlink="http://www.w3.org/1999/xlink" height="642pt" style="width:754px;height:642px;" version="1.1" viewBox="0 0 754 642" width="754pt"><defs><filter height="300%" id="f1" width="300%" x="-1" y="-1"><feGaussianBlur result="blurOut" stdDeviation="2.0"/><feColorMatrix in="blurOut" result="blurOut2" type="matrix" values="0 0 0 0 0 0 0 0 0 0 0 0 0 0 0 0 0 0 .4 0"/><feOffset dx="4.0" dy="4.0" in="blurOut2" result="blurOut3"/><feBlend in="SourceGraphic" in2="blurOut3" mode="normal"/></filter></defs><g><text fill="#000000" font-family="sans-serif" font-size="16" lengthAdjust="spacingAndGlyphs" textLength="285" x="239" y="16.6094">Business Framework : Domain Tools API</text><rect fill="#FEFECE" filter="url(#f1)" height="46" style="stroke: #A80036; stroke-width: 1.5;" width="106" x="28" y="28.125"/><ellipse cx="42" cy="43.125" fill="#DA70D6" rx="10" ry="10" style="stroke: #A80036; stroke-width: 1.0;"/><path d="M42.0469,45.1719 Q41.6719,45.6094 41.2031,45.875 Q40.7344,46.1406 40.25,46.1406 Q39.7344,46.1406 39.2422,45.8359 Q38.75,45.5313 38.4453,44.8984 Q38.1406,44.2656 38.1406,43.5156 Q38.1406,42.5781 38.6172,41.6406 Q39.0938,40.7031 39.7969,40.2344 Q40.5,39.7656 41.1719,39.7656 Q41.6875,39.7656 42.1484,40.0391 Q42.6094,40.3125 42.9375,40.8438 L43.1406,39.9375 L44.1875,39.9375 L43.3438,43.875 Q43.1719,44.6875 43.1719,44.7813 Q43.1719,44.9375 43.2891,45.0547 Q43.4063,45.1719 43.5781,45.1719 Q43.8906,45.1719 44.3906,44.8125 Q45.0625,44.3438 45.4531,43.5547 Q45.8438,42.7656 45.8438,41.9219 Q45.8438,40.9531 45.3438,40.1016 Q44.8438,39.25 43.8516,38.7422 Q42.8594,38.2344 41.6563,38.2344 Q40.2813,38.2344 39.1484,38.875 Q38.0156,39.5156 37.3906,40.7109 Q36.7656,41.9063 36.7656,43.2813 Q36.7656,44.7188 37.3906,45.7578 Q38.0156,46.7969 39.1953,47.2891 Q40.375,47.7813 41.8125,47.7813 Q43.3438,47.7813 44.3828,47.2656 Q45.4219,46.75 45.9375,46.0156 L47,46.0156 Q46.7031,46.625 45.9766,47.2656 Q45.25,47.9063 44.25,48.2813 Q43.25,48.6563 41.8281,48.6563 Q40.5313,48.6563 39.4297,48.3203 Q38.3281,47.9844 37.5547,47.3125 Q36.7813,46.6406 36.3906,45.7656 Q35.9063,44.6563 35.9063,43.375 Q35.9063,41.9531 36.4844,40.6563 Q37.2031,39.0625 38.5156,38.2188 Q39.8281,37.375 41.7031,37.375 Q43.1563,37.375 44.3125,37.9688 Q45.4688,38.5625 46.1406,39.75 Q46.7188,40.75 46.7188,41.9531 Q46.7188,43.6406 45.5156,44.9688 Q44.4531,46.1563 43.1875,46.1563 Q42.7813,46.1563 42.5313,46.0313 Q42.2813,45.9063 42.1719,45.6719 Q42.0938,45.5313 42.0469,45.1719 Z M39.2188,43.5781 Q39.2188,44.3906 39.6016,44.8359 Q39.9844,45.2813 40.4688,45.2813 Q40.7969,45.2813 41.1641,45.0781 Q41.5313,44.875 41.8594,44.4922 Q42.1875,44.1094 42.3984,43.5156 Q42.6094,42.9219 42.6094,42.3281 Q42.6094,41.5313 42.2109,41.0859 Q41.8125,40.6406 41.25,40.6406 Q40.875,40.6406 40.5469,40.8359 Q40.2188,41.0313 39.9063,41.4531 Q39.5938,41.875 39.4063,42.4766 Q39.2188,43.0781 39.2188,43.5781 Z "/><text fill="#000000" font-family="sans-serif" font-size="12" lengthAdjust="spacingAndGlyphs" textLength="76" x="55" y="48.0352">DomainPolicy</text><line style="stroke: #A80036; stroke-width: 1.5;" x1="29" x2="133" y1="58.125" y2="58.125"/><line style="stroke: #A80036; stroke-width: 1.5;" x1="29" x2="133" y1="66.125" y2="66.125"/><rect fill="#FEFECE" filter="url(#f1)" height="46" style="stroke: #A80036; stroke-width: 1.5;" width="114" x="609" y="28.125"/><ellipse cx="623" cy="43.125" fill="#DA70D6" rx="10" ry="10" style="stroke: #A80036; stroke-width: 1.0;"/><path d="M623.0469,45.1719 Q622.6719,45.6094 622.2031,45.875 Q621.7344,46.1406 621.25,46.1406 Q620.7344,46.1406 620.2422,45.8359 Q619.75,45.5313 619.4453,44.8984 Q619.1406,44.2656 619.1406,43.5156 Q619.1406,42.5781 619.6172,41.6406 Q620.0938,40.7031 620.7969,40.2344 Q621.5,39.7656 622.1719,39.7656 Q622.6875,39.7656 623.1484,40.0391 Q623.6094,40.3125 623.9375,40.8438 L624.1406,39.9375 L625.1875,39.9375 L624.3438,43.875 Q624.1719,44.6875 624.1719,44.7813 Q624.1719,44.9375 624.2891,45.0547 Q624.4063,45.1719 624.5781,45.1719 Q624.8906,45.1719 625.3906,44.8125 Q626.0625,44.3438 626.4531,43.5547 Q626.8438,42.7656 626.8438,41.9219 Q626.8438,40.9531 626.3438,40.1016 Q625.8438,39.25 624.8516,38.7422 Q623.8594,38.2344 622.6563,38.2344 Q621.2813,38.2344 620.1484,38.875 Q619.0156,39.5156 618.3906,40.7109 Q617.7656,41.9063 617.7656,43.2813 Q617.7656,44.7188 618.3906,45.7578 Q619.0156,46.7969 620.1953,47.2891 Q621.375,47.7813 622.8125,47.7813 Q624.3438,47.7813 625.3828,47.2656 Q626.4219,46.75 626.9375,46.0156 L628,46.0156 Q627.7031,46.625 626.9766,47.2656 Q626.25,47.9063 625.25,48.2813 Q624.25,48.6563 622.8281,48.6563 Q621.5313,48.6563 620.4297,48.3203 Q619.3281,47.9844 618.5547,47.3125 Q617.7813,46.6406 617.3906,45.7656 Q616.9063,44.6563 616.9063,43.375 Q616.9063,41.9531 617.4844,40.6563 Q618.2031,39.0625 619.5156,38.2188 Q620.8281,37.375 622.7031,37.375 Q624.1563,37.375 625.3125,37.9688 Q626.4688,38.5625 627.1406,39.75 Q627.7188,40.75 627.7188,41.9531 Q627.7188,43.6406 626.5156,44.9688 Q625.4531,46.1563 624.1875,46.1563 Q623.7813,46.1563 623.5313,46.0313 Q623.2813,45.9063 623.1719,45.6719 Q623.0938,45.5313 623.0469,45.1719 Z M620.2188,43.5781 Q620.2188,44.3906 620.6016,44.8359 Q620.9844,45.2813 621.4688,45.2813 Q621.7969,45.2813 622.1641,45.0781 Q622.5313,44.875 622.8594,44.4922 Q623.1875,44.1094 623.3984,43.5156 Q623.6094,42.9219 623.6094,42.3281 Q623.6094,41.5313 623.2109,41.0859 Q622.8125,40.6406 622.25,40.6406 Q621.875,40.6406 621.5469,40.8359 Q621.2188,41.0313 620.9063,41.4531 Q620.5938,41.875 620.4063,42.4766 Q620.2188,43.0781 620.2188,43.5781 Z "/><text fill="#000000" font-family="sans-serif" font-size="12" lengthAdjust="spacingAndGlyphs" textLength="84" x="636" y="48.0352">DomainService</text><line style="stroke: #A80036; stroke-width: 1.5;" x1="610" x2="722" y1="58.125" y2="58.125"/><line style="stroke: #A80036; stroke-width: 1.5;" x1="610" x2="722" y1="66.125" y2="66.125"/><rect fill="#FEFECE" filter="url(#f1)" height="46" style="stroke: #A80036; stroke-width: 1.5;" width="110" x="311" y="28.125"/><ellipse cx="325" cy="43.125" fill="#B4A7E5" rx="10" ry="10" style="stroke: #A80036; stroke-width: 1.0;"/><path d="M324.625,47.625 L324.625,39.0313 L325.75,39.0313 L325.75,47.625 L324.625,47.625 Z "/><text fill="#000000" font-family="sans-serif" font-size="12" font-style="italic" lengthAdjust="spacingAndGlyphs" textLength="80" x="338" y="48.0352">DomainObject</text><line style="stroke: #A80036; stroke-width: 1.5;" x1="312" x2="420" y1="58.125" y2="58.125"/><line style="stroke: #A80036; stroke-width: 1.5;" x1="312" x2="420" y1="66.125" y2="66.125"/><rect fill="#FEFECE" filter="url(#f1)" height="46" style="stroke: #A80036; stroke-width: 1.5;" width="145" x="196.5" y="154.125"/><ellipse cx="210.5" cy="169.125" fill="#B4A7E5" rx="10" ry="10" style="stroke: #A80036; stroke-width: 1.0;"/><path d="M210.125,173.625 L210.125,165.0313 L211.25,165.0313 L211.25,173.625 L210.125,173.625 Z "/><text fill="#000000" font-family="sans-serif" font-size="12" font-style="italic" lengthAdjust="spacingAndGlyphs" textLength="115" x="223.5" y="174.0352">GenericFactory&lt;DO&gt;</text><line style="stroke: #A80036; stroke-width: 1.5;" x1="197.5" x2="340.5" y1="184.125" y2="184.125"/><line style="stroke: #A80036; stroke-width: 1.5;" x1="197.5" x2="340.5" y1="192.125" y2="192.125"/><rect fill="#FEFECE" filter="url(#f1)" height="46" style="stroke: #A80036; stroke-width: 1.5;" width="165" x="381.5" y="154.125"/><ellipse cx="395.5" cy="169.125" fill="#B4A7E5" rx="10" ry="10" style="stroke: #A80036; stroke-width: 1.0;"/><path d="M395.125,173.625 L395.125,165.0313 L396.25,165.0313 L396.25,173.625 L395.125,173.625 Z "/><text fill="#000000" font-family="sans-serif" font-size="12" font-style="italic" lengthAdjust="spacingAndGlyphs" textLength="135" x="408.5" y="174.0352">GenericRepository&lt;A,K&gt;</text><line style="stroke: #A80036; stroke-width: 1.5;" x1="382.5" x2="545.5" y1="184.125" y2="184.125"/><line style="stroke: #A80036; stroke-width: 1.5;" x1="382.5" x2="545.5" y1="192.125" y2="192.125"/><rect fill="#FEFECE" filter="url(#f1)" height="46" style="stroke: #A80036; stroke-width: 1.5;" width="150" x="6" y="154.125"/><ellipse cx="20" cy="169.125" fill="#B4A7E5" rx="10" ry="10" style="stroke: #A80036; stroke-width: 1.0;"/><path d="M19.625,173.625 L19.625,165.0313 L20.75,165.0313 L20.75,173.625 L19.625,173.625 Z "/><text fill="#000000" font-family="sans-serif" font-size="12" font-style="italic" lengthAdjust="spacingAndGlyphs" textLength="120" x="33" y="174.0352">GenericDomainPolicy</text><line style="stroke: #A80036; stroke-width: 1.5;" x1="7" x2="155" y1="184.125" y2="184.125"/><line style="stroke: #A80036; stroke-width: 1.5;" x1="7" x2="155" y1="192.125" y2="192.125"/><rect fill="#FEFECE" filter="url(#f1)" height="46" style="stroke: #A80036; stroke-width: 1.5;" width="158" x="587" y="154.125"/><ellipse cx="601" cy="169.125" fill="#B4A7E5" rx="10" ry="10" style="stroke: #A80036; stroke-width: 1.0;"/><path d="M600.625,173.625 L600.625,165.0313 L601.75,165.0313 L601.75,173.625 L600.625,173.625 Z "/><text fill="#000000" font-family="sans-serif" font-size="12" font-style="italic" lengthAdjust="spacingAndGlyphs" textLength="128" x="614" y="174.0352">GenericDomainService</text><line style="stroke: #A80036; stroke-width: 1.5;" x1="588" x2="744" y1="184.125" y2="184.125"/><line style="stroke: #A80036; stroke-width: 1.5;" x1="588" x2="744" y1="192.125" y2="192.125"/><rect fill="#FEFECE" filter="url(#f1)" height="59.8359" style="stroke: #A80036; stroke-width: 1.5;" width="129" x="310.5" y="552.625"/><ellipse cx="336.65" cy="567.625" fill="#B4A7E5" rx="10" ry="10" style="stroke: #A80036; stroke-width: 1.0;"/><path d="M336.275,572.125 L336.275,563.5313 L337.4,563.5313 L337.4,572.125 L336.275,572.125 Z "/><text fill="#000000" font-family="sans-serif" font-size="12" font-style="italic" lengthAdjust="spacingAndGlyphs" textLength="72" x="352.35" y="572.5352">Factory&lt;DO&gt;</text><line style="stroke: #A80036; stroke-width: 1.5;" x1="311.5" x2="438.5" y1="582.625" y2="582.625"/><line style="stroke: #A80036; stroke-width: 1.5;" x1="311.5" x2="438.5" y1="590.625" y2="590.625"/><ellipse cx="321.5" cy="603.043" fill="#84BE84" rx="3" ry="3" style="stroke: #038048; stroke-width: 1.0;"/><text fill="#000000" font-family="sans-serif" font-size="11" lengthAdjust="spacingAndGlyphs" textLength="104" x="329.5" y="606.0439">create(Object ...args)</text><rect fill="#FEFECE" filter="url(#f1)" height="101.3438" style="stroke: #A80036; stroke-width: 1.5;" width="149" x="479.5" y="532.125"/><ellipse cx="505.65" cy="547.125" fill="#B4A7E5" rx="10" ry="10" style="stroke: #A80036; stroke-width: 1.0;"/><path d="M505.275,551.625 L505.275,543.0313 L506.4,543.0313 L506.4,551.625 L505.275,551.625 Z "/><text fill="#000000" font-family="sans-serif" font-size="12" font-style="italic" lengthAdjust="spacingAndGlyphs" textLength="92" x="521.35" y="552.0352">Repository&lt;A,K&gt;</text><line style="stroke: #A80036; stroke-width: 1.5;" x1="480.5" x2="627.5" y1="562.125" y2="562.125"/><line style="stroke: #A80036; stroke-width: 1.5;" x1="480.5" x2="627.5" y1="570.125" y2="570.125"/><ellipse cx="490.5" cy="582.543" fill="#84BE84" rx="3" ry="3" style="stroke: #038048; stroke-width: 1.0;"/><text fill="#000000" font-family="sans-serif" font-size="11" lengthAdjust="spacingAndGlyphs" textLength="57" x="498.5" y="585.5439">A load(K id)</text><ellipse cx="490.5" cy="596.3789" fill="#84BE84" rx="3" ry="3" style="stroke: #038048; stroke-width: 1.0;"/><text fill="#000000" font-family="sans-serif" font-size="11" lengthAdjust="spacingAndGlyphs" textLength="120" x="498.5" y="599.3799">void delete(A aggregate)</text><ellipse cx="490.5" cy="610.2148" fill="#84BE84" rx="3" ry="3" style="stroke: #038048; stroke-width: 1.0;"/><text fill="#000000" font-family="sans-serif" font-size="11" lengthAdjust="spacingAndGlyphs" textLength="124" x="498.5" y="613.2158">void persist(A aggregate)</text><ellipse cx="490.5" cy="624.0508" fill="#84BE84" rx="3" ry="3" style="stroke: #038048; stroke-width: 1.0;"/><text fill="#000000" font-family="sans-serif" font-size="11" lengthAdjust="spacingAndGlyphs" textLength="103" x="498.5" y="627.0518">A save(A aggregate)</text><rect fill="#FEFECE" filter="url(#f1)" height="46" style="stroke: #A80036; stroke-width: 1.5;" width="150" x="389" y="280.125"/><ellipse cx="403" cy="295.125" fill="#A9DCDF" rx="10" ry="10" style="stroke: #A80036; stroke-width: 1.0;"/><path d="M399.4844,299.125 L402.7813,290.5313 L404,290.5313 L407.5156,299.125 L406.2344,299.125 L405.2188,296.5156 L401.6406,296.5156 L400.6875,299.125 L399.4844,299.125 Z M401.9688,295.5938 L404.875,295.5938 L403.9844,293.2188 Q403.5625,292.1406 403.375,291.4375 Q403.2031,292.2656 402.9063,293.0781 L401.9688,295.5938 Z "/><text fill="#000000" font-family="sans-serif" font-size="12" font-style="italic" lengthAdjust="spacingAndGlyphs" textLength="120" x="416" y="300.0352">BaseRepository&lt;A,K&gt;</text><line style="stroke: #A80036; stroke-width: 1.5;" x1="390" x2="538" y1="310.125" y2="310.125"/><line style="stroke: #A80036; stroke-width: 1.5;" x1="390" x2="538" y1="318.125" y2="318.125"/><rect fill="#FEFECE" filter="url(#f1)" height="46" style="stroke: #A80036; stroke-width: 1.5;" width="130" x="204" y="280.125"/><ellipse cx="218" cy="295.125" fill="#A9DCDF" rx="10" ry="10" style="stroke: #A80036; stroke-width: 1.0;"/><path d="M214.4844,299.125 L217.7813,290.5313 L219,290.5313 L222.5156,299.125 L221.2344,299.125 L220.2188,296.5156 L216.6406,296.5156 L215.6875,299.125 L214.4844,299.125 Z M216.9688,295.5938 L219.875,295.5938 L218.9844,293.2188 Q218.5625,292.1406 218.375,291.4375 Q218.2031,292.2656 217.9063,293.0781 L216.9688,295.5938 Z "/><text fill="#000000" font-family="sans-serif" font-size="12" font-style="italic" lengthAdjust="spacingAndGlyphs" textLength="100" x="231" y="300.0352">BaseFactory&lt;DO&gt;</text><line style="stroke: #A80036; stroke-width: 1.5;" x1="205" x2="333" y1="310.125" y2="310.125"/><line style="stroke: #A80036; stroke-width: 1.5;" x1="205" x2="333" y1="318.125" y2="318.125"/><rect fill="#FEFECE" filter="url(#f1)" height="46" style="stroke: #A80036; stroke-width: 1.5;" width="170" x="379" y="406.125"/><ellipse cx="393" cy="421.125" fill="#A9DCDF" rx="10" ry="10" style="stroke: #A80036; stroke-width: 1.0;"/><path d="M389.4844,425.125 L392.7813,416.5313 L394,416.5313 L397.5156,425.125 L396.2344,425.125 L395.2188,422.5156 L391.6406,422.5156 L390.6875,425.125 L389.4844,425.125 Z M391.9688,421.5938 L394.875,421.5938 L393.9844,419.2188 Q393.5625,418.1406 393.375,417.4375 Q393.2031,418.2656 392.9063,419.0781 L391.9688,421.5938 Z "/><text fill="#000000" font-family="sans-serif" font-size="12" font-style="italic" lengthAdjust="spacingAndGlyphs" textLength="140" x="406" y="426.0352">BaseJpaRepository&lt;A,K&gt;</text><line style="stroke: #A80036; stroke-width: 1.5;" x1="380" x2="548" y1="436.125" y2="436.125"/><line style="stroke: #A80036; stroke-width: 1.5;" x1="380" x2="548" y1="444.125" y2="444.125"/><path d="M81,79.478 C81,101.779 81,132.889 81,153.73 " fill="none" style="stroke: #A80036; stroke-width: 1.0;"/><polygon fill="#A80036" points="81,74.294,77,83.294,81,79.294,85,83.294,81,74.294" style="stroke: #A80036; stroke-width: 1.0;"/><path d="M666,79.478 C666,101.779 666,132.889 666,153.73 " fill="none" style="stroke: #A80036; stroke-width: 1.0;"/><polygon fill="#A80036" points="666,74.294,662,83.294,666,79.294,670,83.294,666,74.294" style="stroke: #A80036; stroke-width: 1.0;"/><path d="M345.481,78.356 C327.982,100.726 303.097,132.537 286.519,153.73 " fill="none" style="stroke: #A80036; stroke-width: 1.0;"/><polygon fill="#A80036" points="348.658,74.294,339.9629,78.9195,345.5779,78.2327,346.2648,83.8477,348.658,74.294" style="stroke: #A80036; stroke-width: 1.0;"/><path d="M386.731,78.356 C404.41,100.726 429.552,132.537 446.301,153.73 " fill="none" style="stroke: #A80036; stroke-width: 1.0;"/><polygon fill="#A80036" points="383.52,74.294,385.9639,83.8348,386.621,78.2163,392.2395,78.8733,383.52,74.294" style="stroke: #A80036; stroke-width: 1.0;"/><path d="M310.75,76.164 C258.882,98.731 181.942,132.206 131.632,154.096 " fill="none" style="stroke: #A80036; stroke-width: 1.0;"/><polygon fill="#A80036" points="315.376,74.151,305.5274,74.0733,310.7911,76.1456,308.7188,81.4092,315.376,74.151" style="stroke: #A80036; stroke-width: 1.0;"/><path d="M424.158,76.164 C478.756,98.731 559.745,132.206 612.704,154.096 " fill="none" style="stroke: #A80036; stroke-width: 1.0;"/><polygon fill="#A80036" points="419.288,74.151,426.077,81.2861,423.9087,76.0613,429.1335,73.893,419.288,74.151" style="stroke: #A80036; stroke-width: 1.0;"/><path d="M269,220.589 C269,240.449 269,263.286 269,279.73 " fill="none" style="stroke: #A80036; stroke-width: 1.0; stroke-dasharray: 7.0,7.0;"/><polygon fill="none" points="262,220.294,269,200.294,276,220.294,262,220.294" style="stroke: #A80036; stroke-width: 1.0;"/><path d="M464,220.589 C464,240.449 464,263.286 464,279.73 " fill="none" style="stroke: #A80036; stroke-width: 1.0; stroke-dasharray: 7.0,7.0;"/><polygon fill="none" points="457,220.294,464,200.294,471,220.294,457,220.294" style="stroke: #A80036; stroke-width: 1.0;"/><path d="M464,346.589 C464,366.449 464,389.286 464,405.73 " fill="none" style="stroke: #A80036; stroke-width: 1.0;"/><polygon fill="none" points="457,346.294,464,326.294,471,346.294,457,346.294" style="stroke: #A80036; stroke-width: 1.0;"/></g></svg>