<?xml version="1.0" encoding="UTF-8" standalone="yes"?><svg xmlns="http://www.w3.org/2000/svg" xmlns:xlink="http://www.w3.org/1999/xlink" height="642pt" style="width:829px;height:642px;" version="1.1" viewBox="0 0 829 642" width="829pt"><defs><filter height="300%" id="f1" width="300%" x="-1" y="-1"><feGaussianBlur result="blurOut" stdDeviation="2.0"/><feColorMatrix in="blurOut" result="blurOut2" type="matrix" values="0 0 0 0 0 0 0 0 0 0 0 0 0 0 0 0 0 0 .4 0"/><feOffset dx="4.0" dy="4.0" in="blurOut2" result="blurOut3"/><feBlend in="SourceGraphic" in2="blurOut3" mode="normal"/></filter></defs><g><text fill="#000000" font-family="sans-serif" font-size="16" lengthAdjust="spacingAndGlyphs" textLength="311" x="264" y="16.6094">Business Framework : Domain Modeling API</text><rect fill="#FEFECE" filter="url(#f1)" height="46" style="stroke: #A80036; stroke-width: 1.5;" width="110" x="579.5" y="28.125"/><ellipse cx="593.5" cy="43.125" fill="#B4A7E5" rx="10" ry="10" style="stroke: #A80036; stroke-width: 1.0;"/><path d="M593.125,47.625 L593.125,39.0313 L594.25,39.0313 L594.25,47.625 L593.125,47.625 Z "/><text fill="#000000" font-family="sans-serif" font-size="12" font-style="italic" lengthAdjust="spacingAndGlyphs" textLength="80" x="606.5" y="48.0352">DomainObject</text><line style="stroke: #A80036; stroke-width: 1.5;" x1="580.5" x2="688.5" y1="58.125" y2="58.125"/><line style="stroke: #A80036; stroke-width: 1.5;" x1="580.5" x2="688.5" y1="66.125" y2="66.125"/><rect fill="#FEFECE" filter="url(#f1)" height="46" style="stroke: #A80036; stroke-width: 1.5;" width="140" x="304.5" y="161.125"/><ellipse cx="318.5" cy="176.125" fill="#B4A7E5" rx="10" ry="10" style="stroke: #A80036; stroke-width: 1.0;"/><path d="M318.125,180.625 L318.125,172.0313 L319.25,172.0313 L319.25,180.625 L318.125,180.625 Z "/><text fill="#000000" font-family="sans-serif" font-size="12" font-style="italic" lengthAdjust="spacingAndGlyphs" textLength="110" x="331.5" y="181.0352">AggregateRoot&lt;ID&gt;</text><line style="stroke: #A80036; stroke-width: 1.5;" x1="305.5" x2="443.5" y1="191.125" y2="191.125"/><line style="stroke: #A80036; stroke-width: 1.5;" x1="305.5" x2="443.5" y1="199.125" y2="199.125"/><rect fill="#FEFECE" filter="url(#f1)" height="59.8359" style="stroke: #A80036; stroke-width: 1.5;" width="94" x="512.5" y="154.125"/><ellipse cx="529.65" cy="169.125" fill="#B4A7E5" rx="10" ry="10" style="stroke: #A80036; stroke-width: 1.0;"/><path d="M529.275,173.625 L529.275,165.0313 L530.4,165.0313 L530.4,173.625 L529.275,173.625 Z "/><text fill="#000000" font-family="sans-serif" font-size="12" font-style="italic" lengthAdjust="spacingAndGlyphs" textLength="57" x="543.35" y="174.0352">Entity&lt;ID&gt;</text><line style="stroke: #A80036; stroke-width: 1.5;" x1="513.5" x2="605.5" y1="184.125" y2="184.125"/><line style="stroke: #A80036; stroke-width: 1.5;" x1="513.5" x2="605.5" y1="192.125" y2="192.125"/><ellipse cx="523.5" cy="204.543" fill="#84BE84" rx="3" ry="3" style="stroke: #038048; stroke-width: 1.0;"/><text fill="#000000" font-family="sans-serif" font-size="11" lengthAdjust="spacingAndGlyphs" textLength="69" x="531.5" y="207.5439">ID getEntityId()</text><rect fill="#FEFECE" filter="url(#f1)" height="46" style="stroke: #A80036; stroke-width: 1.5;" width="98" x="661.5" y="161.125"/><ellipse cx="675.5" cy="176.125" fill="#B4A7E5" rx="10" ry="10" style="stroke: #A80036; stroke-width: 1.0;"/><path d="M675.125,180.625 L675.125,172.0313 L676.25,172.0313 L676.25,180.625 L675.125,180.625 Z "/><text fill="#000000" font-family="sans-serif" font-size="12" font-style="italic" lengthAdjust="spacingAndGlyphs" textLength="68" x="688.5" y="181.0352">ValueObject</text><line style="stroke: #A80036; stroke-width: 1.5;" x1="662.5" x2="758.5" y1="191.125" y2="191.125"/><line style="stroke: #A80036; stroke-width: 1.5;" x1="662.5" x2="758.5" y1="199.125" y2="199.125"/><rect fill="#FEFECE" filter="url(#f1)" height="46" style="stroke: #A80036; stroke-width: 1.5;" width="168" x="275.5" y="294.125"/><ellipse cx="289.5" cy="309.125" fill="#A9DCDF" rx="10" ry="10" style="stroke: #A80036; stroke-width: 1.0;"/><path d="M285.9844,313.125 L289.2813,304.5313 L290.5,304.5313 L294.0156,313.125 L292.7344,313.125 L291.7188,310.5156 L288.1406,310.5156 L287.1875,313.125 L285.9844,313.125 Z M288.4688,309.5938 L291.375,309.5938 L290.4844,307.2188 Q290.0625,306.1406 289.875,305.4375 Q289.7031,306.2656 289.4063,307.0781 L288.4688,309.5938 Z "/><text fill="#000000" font-family="sans-serif" font-size="12" font-style="italic" lengthAdjust="spacingAndGlyphs" textLength="138" x="302.5" y="314.0352">BaseAggregateRoot&lt;ID&gt;</text><line style="stroke: #A80036; stroke-width: 1.5;" x1="276.5" x2="442.5" y1="324.125" y2="324.125"/><line style="stroke: #A80036; stroke-width: 1.5;" x1="276.5" x2="442.5" y1="332.125" y2="332.125"/><rect fill="#FEFECE" filter="url(#f1)" height="46" style="stroke: #A80036; stroke-width: 1.5;" width="115" x="502" y="294.125"/><ellipse cx="516" cy="309.125" fill="#A9DCDF" rx="10" ry="10" style="stroke: #A80036; stroke-width: 1.0;"/><path d="M512.4844,313.125 L515.7813,304.5313 L517,304.5313 L520.5156,313.125 L519.2344,313.125 L518.2188,310.5156 L514.6406,310.5156 L513.6875,313.125 L512.4844,313.125 Z M514.9688,309.5938 L517.875,309.5938 L516.9844,307.2188 Q516.5625,306.1406 516.375,305.4375 Q516.2031,306.2656 515.9063,307.0781 L514.9688,309.5938 Z "/><text fill="#000000" font-family="sans-serif" font-size="12" font-style="italic" lengthAdjust="spacingAndGlyphs" textLength="85" x="529" y="314.0352">BaseEntity&lt;ID&gt;</text><line style="stroke: #A80036; stroke-width: 1.5;" x1="503" x2="616" y1="324.125" y2="324.125"/><line style="stroke: #A80036; stroke-width: 1.5;" x1="503" x2="616" y1="332.125" y2="332.125"/><rect fill="#FEFECE" filter="url(#f1)" height="46" style="stroke: #A80036; stroke-width: 1.5;" width="118" x="667.5" y="294.125"/><ellipse cx="681.5" cy="309.125" fill="#A9DCDF" rx="10" ry="10" style="stroke: #A80036; stroke-width: 1.0;"/><path d="M677.9844,313.125 L681.2813,304.5313 L682.5,304.5313 L686.0156,313.125 L684.7344,313.125 L683.7188,310.5156 L680.1406,310.5156 L679.1875,313.125 L677.9844,313.125 Z M680.4688,309.5938 L683.375,309.5938 L682.4844,307.2188 Q682.0625,306.1406 681.875,305.4375 Q681.7031,306.2656 681.4063,307.0781 L680.4688,309.5938 Z "/><text fill="#000000" font-family="sans-serif" font-size="12" font-style="italic" lengthAdjust="spacingAndGlyphs" textLength="88" x="694.5" y="314.0352">BaseValueOject</text><line style="stroke: #A80036; stroke-width: 1.5;" x1="668.5" x2="784.5" y1="324.125" y2="324.125"/><line style="stroke: #A80036; stroke-width: 1.5;" x1="668.5" x2="784.5" y1="332.125" y2="332.125"/><rect fill="#FEFECE" filter="url(#f1)" height="46" style="stroke: #A80036; stroke-width: 1.5;" width="188" x="251.5" y="420.125"/><ellipse cx="265.5" cy="435.125" fill="#A9DCDF" rx="10" ry="10" style="stroke: #A80036; stroke-width: 1.0;"/><path d="M261.9844,439.125 L265.2813,430.5313 L266.5,430.5313 L270.0156,439.125 L268.7344,439.125 L267.7188,436.5156 L264.1406,436.5156 L263.1875,439.125 L261.9844,439.125 Z M264.4688,435.5938 L267.375,435.5938 L266.4844,433.2188 Q266.0625,432.1406 265.875,431.4375 Q265.7031,432.2656 265.4063,433.0781 L264.4688,435.5938 Z "/><text fill="#000000" font-family="sans-serif" font-size="12" font-style="italic" lengthAdjust="spacingAndGlyphs" textLength="158" x="278.5" y="440.0352">BaseJpaAggregateRoot&lt;ID&gt;</text><line style="stroke: #A80036; stroke-width: 1.5;" x1="252.5" x2="438.5" y1="450.125" y2="450.125"/><line style="stroke: #A80036; stroke-width: 1.5;" x1="252.5" x2="438.5" y1="458.125" y2="458.125"/><rect fill="#FEFECE" filter="url(#f1)" height="46" style="stroke: #A80036; stroke-width: 1.5;" width="135" x="492" y="420.125"/><ellipse cx="506" cy="435.125" fill="#A9DCDF" rx="10" ry="10" style="stroke: #A80036; stroke-width: 1.0;"/><path d="M502.4844,439.125 L505.7813,430.5313 L507,430.5313 L510.5156,439.125 L509.2344,439.125 L508.2188,436.5156 L504.6406,436.5156 L503.6875,439.125 L502.4844,439.125 Z M504.9688,435.5938 L507.875,435.5938 L506.9844,433.2188 Q506.5625,432.1406 506.375,431.4375 Q506.2031,432.2656 505.9063,433.0781 L504.9688,435.5938 Z "/><text fill="#000000" font-family="sans-serif" font-size="12" font-style="italic" lengthAdjust="spacingAndGlyphs" textLength="105" x="519" y="440.0352">BaseJpaEntity&lt;ID&gt;</text><line style="stroke: #A80036; stroke-width: 1.5;" x1="493" x2="626" y1="450.125" y2="450.125"/><line style="stroke: #A80036; stroke-width: 1.5;" x1="493" x2="626" y1="458.125" y2="458.125"/><rect fill="#FEFECE" filter="url(#f1)" height="46" style="stroke: #A80036; stroke-width: 1.5;" width="138" x="667.5" y="420.125"/><ellipse cx="681.5" cy="435.125" fill="#A9DCDF" rx="10" ry="10" style="stroke: #A80036; stroke-width: 1.0;"/><path d="M677.9844,439.125 L681.2813,430.5313 L682.5,430.5313 L686.0156,439.125 L684.7344,439.125 L683.7188,436.5156 L680.1406,436.5156 L679.1875,439.125 L677.9844,439.125 Z M680.4688,435.5938 L683.375,435.5938 L682.4844,433.2188 Q682.0625,432.1406 681.875,431.4375 Q681.7031,432.2656 681.4063,433.0781 L680.4688,435.5938 Z "/><text fill="#000000" font-family="sans-serif" font-size="12" font-style="italic" lengthAdjust="spacingAndGlyphs" textLength="108" x="694.5" y="440.0352">BaseJpaValueOject</text><line style="stroke: #A80036; stroke-width: 1.5;" x1="668.5" x2="804.5" y1="450.125" y2="450.125"/><line style="stroke: #A80036; stroke-width: 1.5;" x1="668.5" x2="804.5" y1="458.125" y2="458.125"/><rect fill="#FEFECE" filter="url(#f1)" height="87.5078" style="stroke: #A80036; stroke-width: 1.5;" width="199" x="6" y="546.125"/><ellipse cx="20" cy="561.125" fill="#A9DCDF" rx="10" ry="10" style="stroke: #A80036; stroke-width: 1.0;"/><path d="M16.4844,565.125 L19.7813,556.5313 L21,556.5313 L24.5156,565.125 L23.2344,565.125 L22.2188,562.5156 L18.6406,562.5156 L17.6875,565.125 L16.4844,565.125 Z M18.9688,561.5938 L21.875,561.5938 L20.9844,559.2188 Q20.5625,558.1406 20.375,557.4375 Q20.2031,558.2656 19.9063,559.0781 L18.9688,561.5938 Z "/><text fill="#000000" font-family="sans-serif" font-size="12" font-style="italic" lengthAdjust="spacingAndGlyphs" textLength="169" x="33" y="566.0352">SimpleJpaAggregateRoot&lt;ID&gt;</text><line style="stroke: #A80036; stroke-width: 1.5;" x1="7" x2="204" y1="576.125" y2="576.125"/><text fill="#000000" font-family="sans-serif" font-size="11" lengthAdjust="spacingAndGlyphs" textLength="19" x="25" y="591.5439">@Id</text><ellipse cx="17" cy="602.3789" fill="none" rx="3" ry="3" style="stroke: #038048; stroke-width: 1.0;"/><text fill="#000000" font-family="sans-serif" font-size="11" lengthAdjust="spacingAndGlyphs" textLength="52" x="25" y="605.3799">ID : entityId</text><line style="stroke: #A80036; stroke-width: 1.5;" x1="7" x2="204" y1="611.7969" y2="611.7969"/><ellipse cx="17" cy="624.2148" fill="#84BE84" rx="3" ry="3" style="stroke: #038048; stroke-width: 1.0;"/><text fill="#000000" font-family="sans-serif" font-size="11" lengthAdjust="spacingAndGlyphs" textLength="69" x="25" y="627.2158">ID getEntityId()</text><rect fill="#FEFECE" filter="url(#f1)" height="87.5078" style="stroke: #A80036; stroke-width: 1.5;" width="146" x="486.5" y="546.125"/><ellipse cx="500.5" cy="561.125" fill="#A9DCDF" rx="10" ry="10" style="stroke: #A80036; stroke-width: 1.0;"/><path d="M496.9844,565.125 L500.2813,556.5313 L501.5,556.5313 L505.0156,565.125 L503.7344,565.125 L502.7188,562.5156 L499.1406,562.5156 L498.1875,565.125 L496.9844,565.125 Z M499.4688,561.5938 L502.375,561.5938 L501.4844,559.2188 Q501.0625,558.1406 500.875,557.4375 Q500.7031,558.2656 500.4063,559.0781 L499.4688,561.5938 Z "/><text fill="#000000" font-family="sans-serif" font-size="12" font-style="italic" lengthAdjust="spacingAndGlyphs" textLength="116" x="513.5" y="566.0352">SimpleJpaEntity&lt;ID&gt;</text><line style="stroke: #A80036; stroke-width: 1.5;" x1="487.5" x2="631.5" y1="576.125" y2="576.125"/><text fill="#000000" font-family="sans-serif" font-size="11" lengthAdjust="spacingAndGlyphs" textLength="19" x="505.5" y="591.5439">@Id</text><ellipse cx="497.5" cy="602.3789" fill="none" rx="3" ry="3" style="stroke: #038048; stroke-width: 1.0;"/><text fill="#000000" font-family="sans-serif" font-size="11" lengthAdjust="spacingAndGlyphs" textLength="52" x="505.5" y="605.3799">ID : entityId</text><line style="stroke: #A80036; stroke-width: 1.5;" x1="487.5" x2="631.5" y1="611.7969" y2="611.7969"/><ellipse cx="497.5" cy="624.2148" fill="#84BE84" rx="3" ry="3" style="stroke: #038048; stroke-width: 1.0;"/><text fill="#000000" font-family="sans-serif" font-size="11" lengthAdjust="spacingAndGlyphs" textLength="69" x="505.5" y="627.2158">ID getEntityId()</text><rect fill="#FEFECE" filter="url(#f1)" height="87.5078" style="stroke: #A80036; stroke-width: 1.5;" width="201" x="245" y="546.125"/><ellipse cx="259" cy="561.125" fill="#A9DCDF" rx="10" ry="10" style="stroke: #A80036; stroke-width: 1.0;"/><path d="M255.4844,565.125 L258.7813,556.5313 L260,556.5313 L263.5156,565.125 L262.2344,565.125 L261.2188,562.5156 L257.6406,562.5156 L256.6875,565.125 L255.4844,565.125 Z M257.9688,561.5938 L260.875,561.5938 L259.9844,559.2188 Q259.5625,558.1406 259.375,557.4375 Q259.2031,558.2656 258.9063,559.0781 L257.9688,561.5938 Z "/><text fill="#000000" font-family="sans-serif" font-size="12" font-style="italic" lengthAdjust="spacingAndGlyphs" textLength="171" x="272" y="566.0352">EmbedJpaAggregateRoot&lt;ID&gt;</text><line style="stroke: #A80036; stroke-width: 1.5;" x1="246" x2="445" y1="576.125" y2="576.125"/><text fill="#000000" font-family="sans-serif" font-size="11" lengthAdjust="spacingAndGlyphs" textLength="69" x="264" y="591.5439">@EmbeddedId</text><ellipse cx="256" cy="602.3789" fill="none" rx="3" ry="3" style="stroke: #038048; stroke-width: 1.0;"/><text fill="#000000" font-family="sans-serif" font-size="11" lengthAdjust="spacingAndGlyphs" textLength="52" x="264" y="605.3799">ID : entityId</text><line style="stroke: #A80036; stroke-width: 1.5;" x1="246" x2="445" y1="611.7969" y2="611.7969"/><ellipse cx="256" cy="624.2148" fill="#84BE84" rx="3" ry="3" style="stroke: #038048; stroke-width: 1.0;"/><text fill="#000000" font-family="sans-serif" font-size="11" lengthAdjust="spacingAndGlyphs" textLength="69" x="264" y="627.2158">ID getEntityId()</text><rect fill="#FEFECE" filter="url(#f1)" height="87.5078" style="stroke: #A80036; stroke-width: 1.5;" width="148" x="672.5" y="546.125"/><ellipse cx="686.5" cy="561.125" fill="#A9DCDF" rx="10" ry="10" style="stroke: #A80036; stroke-width: 1.0;"/><path d="M682.9844,565.125 L686.2813,556.5313 L687.5,556.5313 L691.0156,565.125 L689.7344,565.125 L688.7188,562.5156 L685.1406,562.5156 L684.1875,565.125 L682.9844,565.125 Z M685.4688,561.5938 L688.375,561.5938 L687.4844,559.2188 Q687.0625,558.1406 686.875,557.4375 Q686.7031,558.2656 686.4063,559.0781 L685.4688,561.5938 Z "/><text fill="#000000" font-family="sans-serif" font-size="12" font-style="italic" lengthAdjust="spacingAndGlyphs" textLength="118" x="699.5" y="566.0352">EmbedJpaEntity&lt;ID&gt;</text><line style="stroke: #A80036; stroke-width: 1.5;" x1="673.5" x2="819.5" y1="576.125" y2="576.125"/><text fill="#000000" font-family="sans-serif" font-size="11" lengthAdjust="spacingAndGlyphs" textLength="69" x="691.5" y="591.5439">@EmbeddedId</text><ellipse cx="683.5" cy="602.3789" fill="none" rx="3" ry="3" style="stroke: #038048; stroke-width: 1.0;"/><text fill="#000000" font-family="sans-serif" font-size="11" lengthAdjust="spacingAndGlyphs" textLength="52" x="691.5" y="605.3799">ID : entityId</text><line style="stroke: #A80036; stroke-width: 1.5;" x1="673.5" x2="819.5" y1="611.7969" y2="611.7969"/><ellipse cx="683.5" cy="624.2148" fill="#84BE84" rx="3" ry="3" style="stroke: #038048; stroke-width: 1.0;"/><text fill="#000000" font-family="sans-serif" font-size="11" lengthAdjust="spacingAndGlyphs" textLength="69" x="691.5" y="627.2158">ID getEntityId()</text><path d="M611.84,91.705 C600.387,111.71 586.732,135.561 576.241,153.884 " fill="none" style="stroke: #A80036; stroke-width: 1.0;"/><polygon fill="none" points="605.765,88.226,621.777,74.347,617.915,95.182,605.765,88.226" style="stroke: #A80036; stroke-width: 1.0;"/><path d="M444.598,184.125 C460.482,184.125 476.367,184.125 492.252,184.125 " fill="none" style="stroke: #A80036; stroke-width: 1.0;"/><polygon fill="none" points="492.372,177.125,512.372,184.125,492.372,191.125,492.372,177.125" style="stroke: #A80036; stroke-width: 1.0;"/><path d="M657.57,91.89 C670.679,114.486 686.607,141.941 697.544,160.794 " fill="none" style="stroke: #A80036; stroke-width: 1.0;"/><polygon fill="none" points="651.374,95.16,647.392,74.347,663.484,88.134,651.374,95.16" style="stroke: #A80036; stroke-width: 1.0;"/><path d="M369.673,227.28 C367.141,249.397 364.14,275.6 362.057,293.794 " fill="none" style="stroke: #A80036; stroke-width: 1.0; stroke-dasharray: 7.0,7.0;"/><polygon fill="none" points="362.726,226.421,371.955,207.347,376.635,228.014,362.726,226.421" style="stroke: #A80036; stroke-width: 1.0;"/><path d="M559.5,234.413 C559.5,254.953 559.5,277.762 559.5,294.051 " fill="none" style="stroke: #A80036; stroke-width: 1.0; stroke-dasharray: 7.0,7.0;"/><polygon fill="none" points="552.5,234.198,559.5,214.198,566.5,234.198,552.5,234.198" style="stroke: #A80036; stroke-width: 1.0;"/><path d="M715.649,227.28 C718.35,249.397 721.55,275.6 723.773,293.794 " fill="none" style="stroke: #A80036; stroke-width: 1.0; stroke-dasharray: 7.0,7.0;"/><polygon fill="none" points="708.691,228.049,713.214,207.347,722.587,226.351,708.691,228.049" style="stroke: #A80036; stroke-width: 1.0;"/><path d="M354.742,360.271 C352.491,380.204 349.895,403.198 348.028,419.73 " fill="none" style="stroke: #A80036; stroke-width: 1.0;"/><polygon fill="none" points="347.797,359.382,356.997,340.294,361.709,360.953,347.797,359.382" style="stroke: #A80036; stroke-width: 1.0;"/><path d="M559.5,360.589 C559.5,380.449 559.5,403.286 559.5,419.73 " fill="none" style="stroke: #A80036; stroke-width: 1.0;"/><polygon fill="none" points="552.5,360.294,559.5,340.294,566.5,360.294,552.5,360.294" style="stroke: #A80036; stroke-width: 1.0;"/><path d="M729.899,360.271 C731.506,380.204 733.361,403.198 734.694,419.73 " fill="none" style="stroke: #A80036; stroke-width: 1.0;"/><polygon fill="none" points="722.918,360.792,728.288,340.294,736.873,359.666,722.918,360.792" style="stroke: #A80036; stroke-width: 1.0;"/><path d="M291.908,476.504 C258.079,496.942 213.974,523.589 177.157,545.832 " fill="none" style="stroke: #A80036; stroke-width: 1.0;"/><polygon fill="none" points="288.311,470.498,309.049,466.147,295.551,482.481,288.311,470.498" style="stroke: #A80036; stroke-width: 1.0;"/><path d="M559.5,486.221 C559.5,504.945 559.5,526.971 559.5,545.832 " fill="none" style="stroke: #A80036; stroke-width: 1.0;"/><polygon fill="none" points="552.5,486.147,559.5,466.147,566.5,486.147,552.5,486.147" style="stroke: #A80036; stroke-width: 1.0;"/><path d="M345.5,486.221 C345.5,504.945 345.5,526.971 345.5,545.832 " fill="none" style="stroke: #A80036; stroke-width: 1.0;"/><polygon fill="none" points="338.5,486.147,345.5,466.147,352.5,486.147,338.5,486.147" style="stroke: #A80036; stroke-width: 1.0;"/><path d="M603.833,478.501 C629.827,498.656 662.906,524.306 690.667,545.832 " fill="none" style="stroke: #A80036; stroke-width: 1.0;"/><polygon fill="none" points="599.417,483.935,587.901,466.147,607.996,472.871,599.417,483.935" style="stroke: #A80036; stroke-width: 1.0;"/></g></svg>