<?xml version="1.0" encoding="UTF-8" standalone="yes"?><svg xmlns="http://www.w3.org/2000/svg" xmlns:xlink="http://www.w3.org/1999/xlink" height="432pt" style="width:785px;height:432px;" version="1.1" viewBox="0 0 785 432" width="785pt"><defs><filter height="300%" id="f1" width="300%" x="-1" y="-1"><feGaussianBlur result="blurOut" stdDeviation="2.0"/><feColorMatrix in="blurOut" result="blurOut2" type="matrix" values="0 0 0 0 0 0 0 0 0 0 0 0 0 0 0 0 0 0 .4 0"/><feOffset dx="4.0" dy="4.0" in="blurOut2" result="blurOut3"/><feBlend in="SourceGraphic" in2="blurOut3" mode="normal"/></filter></defs><g><text fill="#000000" font-family="sans-serif" font-size="16" lengthAdjust="spacingAndGlyphs" textLength="297" x="248.5" y="16.6094">Business Framework : Interfaces Tools API</text><rect fill="#FEFECE" filter="url(#f1)" height="115.1797" style="stroke: #A80036; stroke-width: 1.5;" width="324" x="6" y="28.125"/><ellipse cx="117" cy="43.125" fill="#B4A7E5" rx="10" ry="10" style="stroke: #A80036; stroke-width: 1.0;"/><path d="M116.625,47.625 L116.625,39.0313 L117.75,39.0313 L117.75,47.625 L116.625,47.625 Z "/><text fill="#000000" font-family="sans-serif" font-size="12" font-style="italic" lengthAdjust="spacingAndGlyphs" textLength="60" x="136" y="48.0352">Assembler</text><rect fill="#FFFFFF" height="17.0938" style="stroke: #000000; stroke-width: 1.0; stroke-dasharray: 2.0,2.0;" width="32" x="301" y="25.125"/><text fill="#000000" font-family="sans-serif" font-size="12" font-style="italic" lengthAdjust="spacingAndGlyphs" textLength="30" x="302" y="38.582">A,D,T</text><line style="stroke: #A80036; stroke-width: 1.5;" x1="7" x2="329" y1="58.125" y2="58.125"/><line style="stroke: #A80036; stroke-width: 1.5;" x1="7" x2="329" y1="66.125" y2="66.125"/><ellipse cx="17" cy="78.543" fill="#84BE84" rx="3" ry="3" style="stroke: #038048; stroke-width: 1.0;"/><text fill="#000000" font-family="sans-serif" font-size="11" lengthAdjust="spacingAndGlyphs" textLength="242" x="25" y="81.5439">D assembleDFromAggregate(A sourceAggregate)</text><ellipse cx="17" cy="92.3789" fill="#84BE84" rx="3" ry="3" style="stroke: #038048; stroke-width: 1.0;"/><text fill="#000000" font-family="sans-serif" font-size="11" lengthAdjust="spacingAndGlyphs" textLength="299" x="25" y="95.3799">void updateDFromAggregate(D sourceD, A sourceAggregate)</text><ellipse cx="17" cy="106.2148" fill="#84BE84" rx="3" ry="3" style="stroke: #038048; stroke-width: 1.0;"/><text fill="#000000" font-family="sans-serif" font-size="11" lengthAdjust="spacingAndGlyphs" textLength="287" x="25" y="109.2158">void mergeAggregateWithD(A targetAggregate, D sourceD)</text><ellipse cx="17" cy="120.0508" fill="#84BE84" rx="3" ry="3" style="stroke: #038048; stroke-width: 1.0;"/><text fill="#000000" font-family="sans-serif" font-size="11" lengthAdjust="spacingAndGlyphs" textLength="110" x="25" y="123.0518">T getAggregateClass()</text><ellipse cx="17" cy="133.8867" fill="#84BE84" rx="3" ry="3" style="stroke: #038048; stroke-width: 1.0;"/><text fill="#000000" font-family="sans-serif" font-size="11" lengthAdjust="spacingAndGlyphs" textLength="115" x="25" y="136.8877">Class&lt;D&gt; getDtoClass()</text><rect fill="#FEFECE" filter="url(#f1)" height="46" style="stroke: #A80036; stroke-width: 1.5;" width="197" x="69.5" y="237.125"/><ellipse cx="83.5" cy="252.125" fill="#A9DCDF" rx="10" ry="10" style="stroke: #A80036; stroke-width: 1.0;"/><path d="M79.9844,256.125 L83.2813,247.5313 L84.5,247.5313 L88.0156,256.125 L86.7344,256.125 L85.7188,253.5156 L82.1406,253.5156 L81.1875,256.125 L79.9844,256.125 Z M82.4688,252.5938 L85.375,252.5938 L84.4844,250.2188 Q84.0625,249.1406 83.875,248.4375 Q83.7031,249.2656 83.4063,250.0781 L82.4688,252.5938 Z "/><text fill="#000000" font-family="sans-serif" font-size="12" font-style="italic" lengthAdjust="spacingAndGlyphs" textLength="133" x="96.5" y="257.0352">AbstractBaseAssembler</text><rect fill="#FFFFFF" height="17.0938" style="stroke: #000000; stroke-width: 1.0; stroke-dasharray: 2.0,2.0;" width="32" x="237.5" y="234.125"/><text fill="#000000" font-family="sans-serif" font-size="12" font-style="italic" lengthAdjust="spacingAndGlyphs" textLength="30" x="238.5" y="247.582">A,D,T</text><line style="stroke: #A80036; stroke-width: 1.5;" x1="70.5" x2="265.5" y1="267.125" y2="267.125"/><line style="stroke: #A80036; stroke-width: 1.5;" x1="70.5" x2="265.5" y1="275.125" y2="275.125"/><rect fill="#FEFECE" filter="url(#f1)" height="46" style="stroke: #A80036; stroke-width: 1.5;" width="142" x="46" y="377.125"/><ellipse cx="60" cy="392.125" fill="#A9DCDF" rx="10" ry="10" style="stroke: #A80036; stroke-width: 1.0;"/><path d="M56.4844,396.125 L59.7813,387.5313 L61,387.5313 L64.5156,396.125 L63.2344,396.125 L62.2188,393.5156 L58.6406,393.5156 L57.6875,396.125 L56.4844,396.125 Z M58.9688,392.5938 L61.875,392.5938 L60.9844,390.2188 Q60.5625,389.1406 60.375,388.4375 Q60.2031,389.2656 59.9063,390.0781 L58.9688,392.5938 Z "/><text fill="#000000" font-family="sans-serif" font-size="12" font-style="italic" lengthAdjust="spacingAndGlyphs" textLength="88" x="73" y="397.0352">BaseAssembler</text><rect fill="#FFFFFF" height="17.0938" style="stroke: #000000; stroke-width: 1.0; stroke-dasharray: 2.0,2.0;" width="22" x="169" y="374.125"/><text fill="#000000" font-family="sans-serif" font-size="12" font-style="italic" lengthAdjust="spacingAndGlyphs" textLength="20" x="170" y="387.582">A,D</text><line style="stroke: #A80036; stroke-width: 1.5;" x1="47" x2="187" y1="407.125" y2="407.125"/><line style="stroke: #A80036; stroke-width: 1.5;" x1="47" x2="187" y1="415.125" y2="415.125"/><rect fill="#FEFECE" filter="url(#f1)" height="46" style="stroke: #A80036; stroke-width: 1.5;" width="173" x="228.5" y="377.125"/><ellipse cx="242.5" cy="392.125" fill="#A9DCDF" rx="10" ry="10" style="stroke: #A80036; stroke-width: 1.0;"/><path d="M238.9844,396.125 L242.2813,387.5313 L243.5,387.5313 L247.0156,396.125 L245.7344,396.125 L244.7188,393.5156 L241.1406,393.5156 L240.1875,396.125 L238.9844,396.125 Z M241.4688,392.5938 L244.375,392.5938 L243.4844,390.2188 Q243.0625,389.1406 242.875,388.4375 Q242.7031,389.2656 242.4063,390.0781 L241.4688,392.5938 Z "/><text fill="#000000" font-family="sans-serif" font-size="12" font-style="italic" lengthAdjust="spacingAndGlyphs" textLength="119" x="255.5" y="397.0352">BaseTupleAssembler</text><rect fill="#FFFFFF" height="17.0938" style="stroke: #000000; stroke-width: 1.0; stroke-dasharray: 2.0,2.0;" width="22" x="382.5" y="374.125"/><text fill="#000000" font-family="sans-serif" font-size="12" font-style="italic" lengthAdjust="spacingAndGlyphs" textLength="20" x="383.5" y="387.582">A,D</text><line style="stroke: #A80036; stroke-width: 1.5;" x1="229.5" x2="400.5" y1="407.125" y2="407.125"/><line style="stroke: #A80036; stroke-width: 1.5;" x1="229.5" x2="400.5" y1="415.125" y2="415.125"/><rect fill="#FEFECE" filter="url(#f1)" height="73.6719" style="stroke: #A80036; stroke-width: 1.5;" width="118" x="421" y="48.625"/><ellipse cx="435" cy="63.625" fill="#DA70D6" rx="10" ry="10" style="stroke: #A80036; stroke-width: 1.0;"/><path d="M435.0469,65.6719 Q434.6719,66.1094 434.2031,66.375 Q433.7344,66.6406 433.25,66.6406 Q432.7344,66.6406 432.2422,66.3359 Q431.75,66.0313 431.4453,65.3984 Q431.1406,64.7656 431.1406,64.0156 Q431.1406,63.0781 431.6172,62.1406 Q432.0938,61.2031 432.7969,60.7344 Q433.5,60.2656 434.1719,60.2656 Q434.6875,60.2656 435.1484,60.5391 Q435.6094,60.8125 435.9375,61.3438 L436.1406,60.4375 L437.1875,60.4375 L436.3438,64.375 Q436.1719,65.1875 436.1719,65.2813 Q436.1719,65.4375 436.2891,65.5547 Q436.4063,65.6719 436.5781,65.6719 Q436.8906,65.6719 437.3906,65.3125 Q438.0625,64.8438 438.4531,64.0547 Q438.8438,63.2656 438.8438,62.4219 Q438.8438,61.4531 438.3438,60.6016 Q437.8438,59.75 436.8516,59.2422 Q435.8594,58.7344 434.6563,58.7344 Q433.2813,58.7344 432.1484,59.375 Q431.0156,60.0156 430.3906,61.2109 Q429.7656,62.4063 429.7656,63.7813 Q429.7656,65.2188 430.3906,66.2578 Q431.0156,67.2969 432.1953,67.7891 Q433.375,68.2813 434.8125,68.2813 Q436.3438,68.2813 437.3828,67.7656 Q438.4219,67.25 438.9375,66.5156 L440,66.5156 Q439.7031,67.125 438.9766,67.7656 Q438.25,68.4063 437.25,68.7813 Q436.25,69.1563 434.8281,69.1563 Q433.5313,69.1563 432.4297,68.8203 Q431.3281,68.4844 430.5547,67.8125 Q429.7813,67.1406 429.3906,66.2656 Q428.9063,65.1563 428.9063,63.875 Q428.9063,62.4531 429.4844,61.1563 Q430.2031,59.5625 431.5156,58.7188 Q432.8281,57.875 434.7031,57.875 Q436.1563,57.875 437.3125,58.4688 Q438.4688,59.0625 439.1406,60.25 Q439.7188,61.25 439.7188,62.4531 Q439.7188,64.1406 438.5156,65.4688 Q437.4531,66.6563 436.1875,66.6563 Q435.7813,66.6563 435.5313,66.5313 Q435.2813,66.4063 435.1719,66.1719 Q435.0938,66.0313 435.0469,65.6719 Z M432.2188,64.0781 Q432.2188,64.8906 432.6016,65.3359 Q432.9844,65.7813 433.4688,65.7813 Q433.7969,65.7813 434.1641,65.5781 Q434.5313,65.375 434.8594,64.9922 Q435.1875,64.6094 435.3984,64.0156 Q435.6094,63.4219 435.6094,62.8281 Q435.6094,62.0313 435.2109,61.5859 Q434.8125,61.1406 434.25,61.1406 Q433.875,61.1406 433.5469,61.3359 Q433.2188,61.5313 432.9063,61.9531 Q432.5938,62.375 432.4063,62.9766 Q432.2188,63.5781 432.2188,64.0781 Z "/><text fill="#000000" font-family="sans-serif" font-size="12" lengthAdjust="spacingAndGlyphs" textLength="88" x="448" y="68.5352">MatchingEntityId</text><line style="stroke: #A80036; stroke-width: 1.5;" x1="422" x2="538" y1="78.625" y2="78.625"/><line style="stroke: #A80036; stroke-width: 1.5;" x1="422" x2="538" y1="86.625" y2="86.625"/><text fill="#000000" font-family="sans-serif" font-size="11" lengthAdjust="spacingAndGlyphs" textLength="48" x="427" y="102.0439">int index()</text><text fill="#000000" font-family="sans-serif" font-size="11" lengthAdjust="spacingAndGlyphs" textLength="69" x="427" y="115.8799">int typeIndex()</text><rect fill="#FEFECE" filter="url(#f1)" height="73.6719" style="stroke: #A80036; stroke-width: 1.5;" width="176" x="392" y="223.125"/><ellipse cx="406" cy="238.125" fill="#DA70D6" rx="10" ry="10" style="stroke: #A80036; stroke-width: 1.0;"/><path d="M406.0469,240.1719 Q405.6719,240.6094 405.2031,240.875 Q404.7344,241.1406 404.25,241.1406 Q403.7344,241.1406 403.2422,240.8359 Q402.75,240.5313 402.4453,239.8984 Q402.1406,239.2656 402.1406,238.5156 Q402.1406,237.5781 402.6172,236.6406 Q403.0938,235.7031 403.7969,235.2344 Q404.5,234.7656 405.1719,234.7656 Q405.6875,234.7656 406.1484,235.0391 Q406.6094,235.3125 406.9375,235.8438 L407.1406,234.9375 L408.1875,234.9375 L407.3438,238.875 Q407.1719,239.6875 407.1719,239.7813 Q407.1719,239.9375 407.2891,240.0547 Q407.4063,240.1719 407.5781,240.1719 Q407.8906,240.1719 408.3906,239.8125 Q409.0625,239.3438 409.4531,238.5547 Q409.8438,237.7656 409.8438,236.9219 Q409.8438,235.9531 409.3438,235.1016 Q408.8438,234.25 407.8516,233.7422 Q406.8594,233.2344 405.6563,233.2344 Q404.2813,233.2344 403.1484,233.875 Q402.0156,234.5156 401.3906,235.7109 Q400.7656,236.9063 400.7656,238.2813 Q400.7656,239.7188 401.3906,240.7578 Q402.0156,241.7969 403.1953,242.2891 Q404.375,242.7813 405.8125,242.7813 Q407.3438,242.7813 408.3828,242.2656 Q409.4219,241.75 409.9375,241.0156 L411,241.0156 Q410.7031,241.625 409.9766,242.2656 Q409.25,242.9063 408.25,243.2813 Q407.25,243.6563 405.8281,243.6563 Q404.5313,243.6563 403.4297,243.3203 Q402.3281,242.9844 401.5547,242.3125 Q400.7813,241.6406 400.3906,240.7656 Q399.9063,239.6563 399.9063,238.375 Q399.9063,236.9531 400.4844,235.6563 Q401.2031,234.0625 402.5156,233.2188 Q403.8281,232.375 405.7031,232.375 Q407.1563,232.375 408.3125,232.9688 Q409.4688,233.5625 410.1406,234.75 Q410.7188,235.75 410.7188,236.9531 Q410.7188,238.6406 409.5156,239.9688 Q408.4531,241.1563 407.1875,241.1563 Q406.7813,241.1563 406.5313,241.0313 Q406.2813,240.9063 406.1719,240.6719 Q406.0938,240.5313 406.0469,240.1719 Z M403.2188,238.5781 Q403.2188,239.3906 403.6016,239.8359 Q403.9844,240.2813 404.4688,240.2813 Q404.7969,240.2813 405.1641,240.0781 Q405.5313,239.875 405.8594,239.4922 Q406.1875,239.1094 406.3984,238.5156 Q406.6094,237.9219 406.6094,237.3281 Q406.6094,236.5313 406.2109,236.0859 Q405.8125,235.6406 405.25,235.6406 Q404.875,235.6406 404.5469,235.8359 Q404.2188,236.0313 403.9063,236.4531 Q403.5938,236.875 403.4063,237.4766 Q403.2188,238.0781 403.2188,238.5781 Z "/><text fill="#000000" font-family="sans-serif" font-size="12" lengthAdjust="spacingAndGlyphs" textLength="146" x="419" y="243.0352">MatchingFactoryParameter</text><line style="stroke: #A80036; stroke-width: 1.5;" x1="393" x2="567" y1="253.125" y2="253.125"/><line style="stroke: #A80036; stroke-width: 1.5;" x1="393" x2="567" y1="261.125" y2="261.125"/><text fill="#000000" font-family="sans-serif" font-size="11" lengthAdjust="spacingAndGlyphs" textLength="48" x="398" y="276.5439">int index()</text><text fill="#000000" font-family="sans-serif" font-size="11" lengthAdjust="spacingAndGlyphs" textLength="69" x="398" y="290.3799">int typeIndex()</text><rect fill="#FEFECE" filter="url(#f1)" height="46" style="stroke: #A80036; stroke-width: 1.5;" width="76" x="442" y="377.125"/><ellipse cx="456" cy="392.125" fill="#DA70D6" rx="10" ry="10" style="stroke: #A80036; stroke-width: 1.0;"/><path d="M456.0469,394.1719 Q455.6719,394.6094 455.2031,394.875 Q454.7344,395.1406 454.25,395.1406 Q453.7344,395.1406 453.2422,394.8359 Q452.75,394.5313 452.4453,393.8984 Q452.1406,393.2656 452.1406,392.5156 Q452.1406,391.5781 452.6172,390.6406 Q453.0938,389.7031 453.7969,389.2344 Q454.5,388.7656 455.1719,388.7656 Q455.6875,388.7656 456.1484,389.0391 Q456.6094,389.3125 456.9375,389.8438 L457.1406,388.9375 L458.1875,388.9375 L457.3438,392.875 Q457.1719,393.6875 457.1719,393.7813 Q457.1719,393.9375 457.2891,394.0547 Q457.4063,394.1719 457.5781,394.1719 Q457.8906,394.1719 458.3906,393.8125 Q459.0625,393.3438 459.4531,392.5547 Q459.8438,391.7656 459.8438,390.9219 Q459.8438,389.9531 459.3438,389.1016 Q458.8438,388.25 457.8516,387.7422 Q456.8594,387.2344 455.6563,387.2344 Q454.2813,387.2344 453.1484,387.875 Q452.0156,388.5156 451.3906,389.7109 Q450.7656,390.9063 450.7656,392.2813 Q450.7656,393.7188 451.3906,394.7578 Q452.0156,395.7969 453.1953,396.2891 Q454.375,396.7813 455.8125,396.7813 Q457.3438,396.7813 458.3828,396.2656 Q459.4219,395.75 459.9375,395.0156 L461,395.0156 Q460.7031,395.625 459.9766,396.2656 Q459.25,396.9063 458.25,397.2813 Q457.25,397.6563 455.8281,397.6563 Q454.5313,397.6563 453.4297,397.3203 Q452.3281,396.9844 451.5547,396.3125 Q450.7813,395.6406 450.3906,394.7656 Q449.9063,393.6563 449.9063,392.375 Q449.9063,390.9531 450.4844,389.6563 Q451.2031,388.0625 452.5156,387.2188 Q453.8281,386.375 455.7031,386.375 Q457.1563,386.375 458.3125,386.9688 Q459.4688,387.5625 460.1406,388.75 Q460.7188,389.75 460.7188,390.9531 Q460.7188,392.6406 459.5156,393.9688 Q458.4531,395.1563 457.1875,395.1563 Q456.7813,395.1563 456.5313,395.0313 Q456.2813,394.9063 456.1719,394.6719 Q456.0938,394.5313 456.0469,394.1719 Z M453.2188,392.5781 Q453.2188,393.3906 453.6016,393.8359 Q453.9844,394.2813 454.4688,394.2813 Q454.7969,394.2813 455.1641,394.0781 Q455.5313,393.875 455.8594,393.4922 Q456.1875,393.1094 456.3984,392.5156 Q456.6094,391.9219 456.6094,391.3281 Q456.6094,390.5313 456.2109,390.0859 Q455.8125,389.6406 455.25,389.6406 Q454.875,389.6406 454.5469,389.8359 Q454.2188,390.0313 453.9063,390.4531 Q453.5938,390.875 453.4063,391.4766 Q453.2188,392.0781 453.2188,392.5781 Z "/><text fill="#000000" font-family="sans-serif" font-size="12" lengthAdjust="spacingAndGlyphs" textLength="46" x="469" y="397.0352">Secured</text><line style="stroke: #A80036; stroke-width: 1.5;" x1="443" x2="517" y1="407.125" y2="407.125"/><line style="stroke: #A80036; stroke-width: 1.5;" x1="443" x2="517" y1="415.125" y2="415.125"/><rect fill="#FEFECE" filter="url(#f1)" height="46" style="stroke: #A80036; stroke-width: 1.5;" width="124" x="630" y="62.625"/><ellipse cx="644" cy="77.625" fill="#DA70D6" rx="10" ry="10" style="stroke: #A80036; stroke-width: 1.0;"/><path d="M644.0469,79.6719 Q643.6719,80.1094 643.2031,80.375 Q642.7344,80.6406 642.25,80.6406 Q641.7344,80.6406 641.2422,80.3359 Q640.75,80.0313 640.4453,79.3984 Q640.1406,78.7656 640.1406,78.0156 Q640.1406,77.0781 640.6172,76.1406 Q641.0938,75.2031 641.7969,74.7344 Q642.5,74.2656 643.1719,74.2656 Q643.6875,74.2656 644.1484,74.5391 Q644.6094,74.8125 644.9375,75.3438 L645.1406,74.4375 L646.1875,74.4375 L645.3438,78.375 Q645.1719,79.1875 645.1719,79.2813 Q645.1719,79.4375 645.2891,79.5547 Q645.4063,79.6719 645.5781,79.6719 Q645.8906,79.6719 646.3906,79.3125 Q647.0625,78.8438 647.4531,78.0547 Q647.8438,77.2656 647.8438,76.4219 Q647.8438,75.4531 647.3438,74.6016 Q646.8438,73.75 645.8516,73.2422 Q644.8594,72.7344 643.6563,72.7344 Q642.2813,72.7344 641.1484,73.375 Q640.0156,74.0156 639.3906,75.2109 Q638.7656,76.4063 638.7656,77.7813 Q638.7656,79.2188 639.3906,80.2578 Q640.0156,81.2969 641.1953,81.7891 Q642.375,82.2813 643.8125,82.2813 Q645.3438,82.2813 646.3828,81.7656 Q647.4219,81.25 647.9375,80.5156 L649,80.5156 Q648.7031,81.125 647.9766,81.7656 Q647.25,82.4063 646.25,82.7813 Q645.25,83.1563 643.8281,83.1563 Q642.5313,83.1563 641.4297,82.8203 Q640.3281,82.4844 639.5547,81.8125 Q638.7813,81.1406 638.3906,80.2656 Q637.9063,79.1563 637.9063,77.875 Q637.9063,76.4531 638.4844,75.1563 Q639.2031,73.5625 640.5156,72.7188 Q641.8281,71.875 643.7031,71.875 Q645.1563,71.875 646.3125,72.4688 Q647.4688,73.0625 648.1406,74.25 Q648.7188,75.25 648.7188,76.4531 Q648.7188,78.1406 647.5156,79.4688 Q646.4531,80.6563 645.1875,80.6563 Q644.7813,80.6563 644.5313,80.5313 Q644.2813,80.4063 644.1719,80.1719 Q644.0938,80.0313 644.0469,79.6719 Z M641.2188,78.0781 Q641.2188,78.8906 641.6016,79.3359 Q641.9844,79.7813 642.4688,79.7813 Q642.7969,79.7813 643.1641,79.5781 Q643.5313,79.375 643.8594,78.9922 Q644.1875,78.6094 644.3984,78.0156 Q644.6094,77.4219 644.6094,76.8281 Q644.6094,76.0313 644.2109,75.5859 Q643.8125,75.1406 643.25,75.1406 Q642.875,75.1406 642.5469,75.3359 Q642.2188,75.5313 641.9063,75.9531 Q641.5938,76.375 641.4063,76.9766 Q641.2188,77.5781 641.2188,78.0781 Z "/><text fill="#000000" font-family="sans-serif" font-size="12" lengthAdjust="spacingAndGlyphs" textLength="94" x="657" y="82.5352">InterfacesService</text><line style="stroke: #A80036; stroke-width: 1.5;" x1="631" x2="753" y1="92.625" y2="92.625"/><line style="stroke: #A80036; stroke-width: 1.5;" x1="631" x2="753" y1="100.625" y2="100.625"/><rect fill="#FEFECE" filter="url(#f1)" height="46" style="stroke: #A80036; stroke-width: 1.5;" width="168" x="608" y="237.125"/><ellipse cx="622" cy="252.125" fill="#B4A7E5" rx="10" ry="10" style="stroke: #A80036; stroke-width: 1.0;"/><path d="M621.625,256.625 L621.625,248.0313 L622.75,248.0313 L622.75,256.625 L621.625,256.625 Z "/><text fill="#000000" font-family="sans-serif" font-size="12" font-style="italic" lengthAdjust="spacingAndGlyphs" textLength="138" x="635" y="257.0352">GenericInterfacesService</text><line style="stroke: #A80036; stroke-width: 1.5;" x1="609" x2="775" y1="267.125" y2="267.125"/><line style="stroke: #A80036; stroke-width: 1.5;" x1="609" x2="775" y1="275.125" y2="275.125"/><path d="M168,163.928 C168,190.428 168,218.067 168,236.693 " fill="none" style="stroke: #A80036; stroke-width: 1.0; stroke-dasharray: 7.0,7.0;"/><polygon fill="none" points="161,163.586,168,143.586,175,163.586,161,163.586" style="stroke: #A80036; stroke-width: 1.0;"/><path d="M152.814,302.217 C143.753,326.7353 132.602,356.9073 125.174,377.0079 " fill="none" style="stroke: #A80036; stroke-width: 1.0;"/><polygon fill="none" points="146.307,299.63,159.806,283.297,159.439,304.484,146.307,299.63" style="stroke: #A80036; stroke-width: 1.0;"/><path d="M206.382,297.157 C233.337,322.462 268.53,355.5003 291.441,377.0079 " fill="none" style="stroke: #A80036; stroke-width: 1.0;"/><polygon fill="none" points="201.409,302.089,191.618,283.297,210.991,291.882,201.409,302.089" style="stroke: #A80036; stroke-width: 1.0;"/><path d="M692,114.085 C692,148.167 692,205.619 692,237.012 " fill="none" style="stroke: #A80036; stroke-width: 1.0;"/><polygon fill="#A80036" points="692,108.823,688,117.823,692,113.823,696,117.823,692,108.823" style="stroke: #A80036; stroke-width: 1.0;"/></g></svg>