<?xml version="1.0" encoding="UTF-8" standalone="yes"?><svg xmlns="http://www.w3.org/2000/svg" xmlns:xlink="http://www.w3.org/1999/xlink" height="614pt" style="width:717px;height:614px;" version="1.1" viewBox="0 0 717 614" width="717pt"><defs><filter height="300%" id="f1" width="300%" x="-1" y="-1"><feGaussianBlur result="blurOut" stdDeviation="2.0"/><feColorMatrix in="blurOut" result="blurOut2" type="matrix" values="0 0 0 0 0 0 0 0 0 0 0 0 0 0 0 0 0 0 .4 0"/><feOffset dx="4.0" dy="4.0" in="blurOut2" result="blurOut3"/><feBlend in="SourceGraphic" in2="blurOut3" mode="normal"/></filter></defs><g><text fill="#000000" font-family="sans-serif" font-size="16" lengthAdjust="spacingAndGlyphs" textLength="304" x="211" y="16.6094">Business Framework : Interfaces Finder API</text><rect fill="#FEFECE" filter="url(#f1)" height="46" style="stroke: #A80036; stroke-width: 1.5;" width="65" x="130" y="35.125"/><ellipse cx="144" cy="50.125" fill="#DA70D6" rx="10" ry="10" style="stroke: #A80036; stroke-width: 1.0;"/><path d="M144.0469,52.1719 Q143.6719,52.6094 143.2031,52.875 Q142.7344,53.1406 142.25,53.1406 Q141.7344,53.1406 141.2422,52.8359 Q140.75,52.5313 140.4453,51.8984 Q140.1406,51.2656 140.1406,50.5156 Q140.1406,49.5781 140.6172,48.6406 Q141.0938,47.7031 141.7969,47.2344 Q142.5,46.7656 143.1719,46.7656 Q143.6875,46.7656 144.1484,47.0391 Q144.6094,47.3125 144.9375,47.8438 L145.1406,46.9375 L146.1875,46.9375 L145.3438,50.875 Q145.1719,51.6875 145.1719,51.7813 Q145.1719,51.9375 145.2891,52.0547 Q145.4063,52.1719 145.5781,52.1719 Q145.8906,52.1719 146.3906,51.8125 Q147.0625,51.3438 147.4531,50.5547 Q147.8438,49.7656 147.8438,48.9219 Q147.8438,47.9531 147.3438,47.1016 Q146.8438,46.25 145.8516,45.7422 Q144.8594,45.2344 143.6563,45.2344 Q142.2813,45.2344 141.1484,45.875 Q140.0156,46.5156 139.3906,47.7109 Q138.7656,48.9063 138.7656,50.2813 Q138.7656,51.7188 139.3906,52.7578 Q140.0156,53.7969 141.1953,54.2891 Q142.375,54.7813 143.8125,54.7813 Q145.3438,54.7813 146.3828,54.2656 Q147.4219,53.75 147.9375,53.0156 L149,53.0156 Q148.7031,53.625 147.9766,54.2656 Q147.25,54.9063 146.25,55.2813 Q145.25,55.6563 143.8281,55.6563 Q142.5313,55.6563 141.4297,55.3203 Q140.3281,54.9844 139.5547,54.3125 Q138.7813,53.6406 138.3906,52.7656 Q137.9063,51.6563 137.9063,50.375 Q137.9063,48.9531 138.4844,47.6563 Q139.2031,46.0625 140.5156,45.2188 Q141.8281,44.375 143.7031,44.375 Q145.1563,44.375 146.3125,44.9688 Q147.4688,45.5625 148.1406,46.75 Q148.7188,47.75 148.7188,48.9531 Q148.7188,50.6406 147.5156,51.9688 Q146.4531,53.1563 145.1875,53.1563 Q144.7813,53.1563 144.5313,53.0313 Q144.2813,52.9063 144.1719,52.6719 Q144.0938,52.5313 144.0469,52.1719 Z M141.2188,50.5781 Q141.2188,51.3906 141.6016,51.8359 Q141.9844,52.2813 142.4688,52.2813 Q142.7969,52.2813 143.1641,52.0781 Q143.5313,51.875 143.8594,51.4922 Q144.1875,51.1094 144.3984,50.5156 Q144.6094,49.9219 144.6094,49.3281 Q144.6094,48.5313 144.2109,48.0859 Q143.8125,47.6406 143.25,47.6406 Q142.875,47.6406 142.5469,47.8359 Q142.2188,48.0313 141.9063,48.4531 Q141.5938,48.875 141.4063,49.4766 Q141.2188,50.0781 141.2188,50.5781 Z "/><text fill="#000000" font-family="sans-serif" font-size="12" lengthAdjust="spacingAndGlyphs" textLength="35" x="157" y="55.0352">Finder</text><line style="stroke: #A80036; stroke-width: 1.5;" x1="131" x2="194" y1="65.125" y2="65.125"/><line style="stroke: #A80036; stroke-width: 1.5;" x1="131" x2="194" y1="73.125" y2="73.125"/><rect fill="#FEFECE" filter="url(#f1)" height="59.8359" style="stroke: #A80036; stroke-width: 1.5;" width="240" x="42.5" y="175.125"/><ellipse cx="82.15" cy="190.125" fill="#B4A7E5" rx="10" ry="10" style="stroke: #A80036; stroke-width: 1.0;"/><path d="M81.775,194.625 L81.775,186.0313 L82.9,186.0313 L82.9,194.625 L81.775,194.625 Z "/><text fill="#000000" font-family="sans-serif" font-size="12" font-style="italic" lengthAdjust="spacingAndGlyphs" textLength="78" x="100.85" y="195.0352">GenericFinder</text><rect fill="#FFFFFF" height="17.0938" style="stroke: #000000; stroke-width: 1.0; stroke-dasharray: 2.0,2.0;" width="73" x="212.5" y="172.125"/><text fill="#000000" font-family="sans-serif" font-size="12" font-style="italic" lengthAdjust="spacingAndGlyphs" textLength="71" x="213.5" y="185.582">Item, Criteria</text><line style="stroke: #A80036; stroke-width: 1.5;" x1="43.5" x2="281.5" y1="205.125" y2="205.125"/><line style="stroke: #A80036; stroke-width: 1.5;" x1="43.5" x2="281.5" y1="213.125" y2="213.125"/><text fill="#000000" font-family="sans-serif" font-size="11" lengthAdjust="spacingAndGlyphs" textLength="228" x="48.5" y="228.5439">Result&lt;Item&gt; find(Range range, Criteria criteria)</text><rect fill="#FEFECE" filter="url(#f1)" height="59.8359" style="stroke: #A80036; stroke-width: 1.5;" width="313" x="6" y="336.125"/><ellipse cx="26.75" cy="351.125" fill="#A9DCDF" rx="10" ry="10" style="stroke: #A80036; stroke-width: 1.0;"/><path d="M23.2344,355.125 L26.5313,346.5313 L27.75,346.5313 L31.2656,355.125 L29.9844,355.125 L28.9688,352.5156 L25.3906,352.5156 L24.4375,355.125 L23.2344,355.125 Z M25.7188,351.5938 L28.625,351.5938 L27.7344,349.2188 Q27.3125,348.1406 27.125,347.4375 Q26.9531,348.2656 26.6563,349.0781 L25.7188,351.5938 Z "/><text fill="#000000" font-family="sans-serif" font-size="12" font-style="italic" lengthAdjust="spacingAndGlyphs" textLength="122" x="41.25" y="356.0352">BaseSimpleJpaFinder</text><rect fill="#FFFFFF" height="17.0938" style="stroke: #000000; stroke-width: 1.0; stroke-dasharray: 2.0,2.0;" width="144" x="178" y="333.125"/><text fill="#000000" font-family="sans-serif" font-size="12" font-style="italic" lengthAdjust="spacingAndGlyphs" textLength="142" x="179" y="346.582">Item, Map&lt;String, Object&gt;</text><line style="stroke: #A80036; stroke-width: 1.5;" x1="7" x2="318" y1="366.125" y2="366.125"/><line style="stroke: #A80036; stroke-width: 1.5;" x1="7" x2="318" y1="374.125" y2="374.125"/><ellipse cx="17" cy="386.543" fill="#84BE84" rx="3" ry="3" style="stroke: #038048; stroke-width: 1.0;"/><text fill="#000000" font-family="sans-serif" font-size="11" lengthAdjust="spacingAndGlyphs" textLength="288" x="25" y="389.5439">Result&lt;Item&gt; find(Range range, Map&lt;String,Object&gt; criteria)</text><rect fill="#FEFECE" filter="url(#f1)" height="73.6719" style="stroke: #A80036; stroke-width: 1.5;" width="102" x="45.5" y="510.625"/><ellipse cx="75.25" cy="525.625" fill="#ADD1B2" rx="10" ry="10" style="stroke: #A80036; stroke-width: 1.0;"/><path d="M77.8125,527.1094 L78.9375,527.4063 Q78.5781,528.7969 77.6563,529.5313 Q76.7344,530.2656 75.3906,530.2656 Q74,530.2656 73.125,529.7031 Q72.25,529.1406 71.7969,528.0703 Q71.3438,527 71.3438,525.7656 Q71.3438,524.4219 71.8594,523.4219 Q72.375,522.4219 73.3203,521.9063 Q74.2656,521.3906 75.4063,521.3906 Q76.6875,521.3906 77.5703,522.0469 Q78.4531,522.7031 78.7969,523.8906 L77.6719,524.1563 Q77.375,523.2188 76.8047,522.7891 Q76.2344,522.3594 75.375,522.3594 Q74.3906,522.3594 73.7266,522.8359 Q73.0625,523.3125 72.7891,524.1094 Q72.5156,524.9063 72.5156,525.7656 Q72.5156,526.8594 72.8359,527.6719 Q73.1563,528.4844 73.8281,528.8906 Q74.5,529.2969 75.2969,529.2969 Q76.25,529.2969 76.9141,528.75 Q77.5781,528.2031 77.8125,527.1094 Z "/><text fill="#000000" font-family="sans-serif" font-size="12" lengthAdjust="spacingAndGlyphs" textLength="37" x="91.75" y="530.5352">Range</text><line style="stroke: #A80036; stroke-width: 1.5;" x1="46.5" x2="146.5" y1="540.625" y2="540.625"/><line style="stroke: #A80036; stroke-width: 1.5;" x1="46.5" x2="146.5" y1="548.625" y2="548.625"/><ellipse cx="56.5" cy="561.043" fill="#84BE84" rx="3" ry="3" style="stroke: #038048; stroke-width: 1.0;"/><text fill="#000000" font-family="sans-serif" font-size="11" lengthAdjust="spacingAndGlyphs" textLength="77" x="64.5" y="564.0439">long getOffset()</text><ellipse cx="56.5" cy="574.8789" fill="#84BE84" rx="3" ry="3" style="stroke: #038048; stroke-width: 1.0;"/><text fill="#000000" font-family="sans-serif" font-size="11" lengthAdjust="spacingAndGlyphs" textLength="58" x="64.5" y="577.8799">int getSize()</text><rect fill="#FEFECE" filter="url(#f1)" height="101.3438" style="stroke: #A80036; stroke-width: 1.5;" width="129" x="188" y="497.125"/><ellipse cx="217.3" cy="512.125" fill="#ADD1B2" rx="10" ry="10" style="stroke: #A80036; stroke-width: 1.0;"/><path d="M219.8625,513.6094 L220.9875,513.9063 Q220.6281,515.2969 219.7063,516.0313 Q218.7844,516.7656 217.4406,516.7656 Q216.05,516.7656 215.175,516.2031 Q214.3,515.6406 213.8469,514.5703 Q213.3938,513.5 213.3938,512.2656 Q213.3938,510.9219 213.9094,509.9219 Q214.425,508.9219 215.3703,508.4063 Q216.3156,507.8906 217.4563,507.8906 Q218.7375,507.8906 219.6203,508.5469 Q220.5031,509.2031 220.8469,510.3906 L219.7219,510.6563 Q219.425,509.7188 218.8547,509.2891 Q218.2844,508.8594 217.425,508.8594 Q216.4406,508.8594 215.7766,509.3359 Q215.1125,509.8125 214.8391,510.6094 Q214.5656,511.4063 214.5656,512.2656 Q214.5656,513.3594 214.8859,514.1719 Q215.2063,514.9844 215.8781,515.3906 Q216.55,515.7969 217.3469,515.7969 Q218.3,515.7969 218.9641,515.25 Q219.6281,514.7031 219.8625,513.6094 Z "/><text fill="#000000" font-family="sans-serif" font-size="12" lengthAdjust="spacingAndGlyphs" textLength="36" x="233.7" y="517.0352">Result</text><rect fill="#FFFFFF" height="17.0938" style="stroke: #000000; stroke-width: 1.0; stroke-dasharray: 2.0,2.0;" width="27" x="293" y="494.125"/><text fill="#000000" font-family="sans-serif" font-size="12" font-style="italic" lengthAdjust="spacingAndGlyphs" textLength="25" x="294" y="507.582">Item</text><line style="stroke: #A80036; stroke-width: 1.5;" x1="189" x2="316" y1="527.125" y2="527.125"/><line style="stroke: #A80036; stroke-width: 1.5;" x1="189" x2="316" y1="535.125" y2="535.125"/><ellipse cx="199" cy="547.543" fill="#84BE84" rx="3" ry="3" style="stroke: #038048; stroke-width: 1.0;"/><text fill="#000000" font-family="sans-serif" font-size="11" lengthAdjust="spacingAndGlyphs" textLength="104" x="207" y="550.5439">List&lt;Item&gt; getResult()</text><ellipse cx="199" cy="561.3789" fill="#84BE84" rx="3" ry="3" style="stroke: #038048; stroke-width: 1.0;"/><text fill="#000000" font-family="sans-serif" font-size="11" lengthAdjust="spacingAndGlyphs" textLength="58" x="207" y="564.3799">int getSize()</text><ellipse cx="199" cy="575.2148" fill="#84BE84" rx="3" ry="3" style="stroke: #038048; stroke-width: 1.0;"/><text fill="#000000" font-family="sans-serif" font-size="11" lengthAdjust="spacingAndGlyphs" textLength="83" x="207" y="578.2158">long getFullSize()</text><ellipse cx="199" cy="589.0508" fill="#84BE84" rx="3" ry="3" style="stroke: #038048; stroke-width: 1.0;"/><text fill="#000000" font-family="sans-serif" font-size="11" lengthAdjust="spacingAndGlyphs" textLength="77" x="207" y="592.0518">long getOffset()</text><rect fill="#FEFECE" filter="url(#f1)" height="59.8359" style="stroke: #A80036; stroke-width: 1.5;" width="112" x="495.5" y="28.125"/><ellipse cx="521.65" cy="43.125" fill="#B4A7E5" rx="10" ry="10" style="stroke: #A80036; stroke-width: 1.0;"/><path d="M521.275,47.625 L521.275,39.0313 L522.4,39.0313 L522.4,47.625 L521.275,47.625 Z "/><text fill="#000000" font-family="sans-serif" font-size="12" font-style="italic" lengthAdjust="spacingAndGlyphs" textLength="26" x="537.35" y="48.0352">View</text><rect fill="#FFFFFF" height="17.0938" style="stroke: #000000; stroke-width: 1.0; stroke-dasharray: 2.0,2.0;" width="27" x="583.5" y="25.125"/><text fill="#000000" font-family="sans-serif" font-size="12" font-style="italic" lengthAdjust="spacingAndGlyphs" textLength="25" x="584.5" y="38.582">Item</text><line style="stroke: #A80036; stroke-width: 1.5;" x1="496.5" x2="606.5" y1="58.125" y2="58.125"/><line style="stroke: #A80036; stroke-width: 1.5;" x1="496.5" x2="606.5" y1="66.125" y2="66.125"/><text fill="#000000" font-family="sans-serif" font-size="11" lengthAdjust="spacingAndGlyphs" textLength="100" x="501.5" y="81.5439">List&lt;Item&gt; getView()</text><rect fill="#FEFECE" filter="url(#f1)" height="73.6719" style="stroke: #A80036; stroke-width: 1.5;" width="130" x="486.5" y="168.125"/><ellipse cx="500.5" cy="183.125" fill="#A9DCDF" rx="10" ry="10" style="stroke: #A80036; stroke-width: 1.0;"/><path d="M496.9844,187.125 L500.2813,178.5313 L501.5,178.5313 L505.0156,187.125 L503.7344,187.125 L502.7188,184.5156 L499.1406,184.5156 L498.1875,187.125 L496.9844,187.125 Z M499.4688,183.5938 L502.375,183.5938 L501.4844,181.2188 Q501.0625,180.1406 500.875,179.4375 Q500.7031,180.2656 500.4063,181.0781 L499.4688,183.5938 Z "/><text fill="#000000" font-family="sans-serif" font-size="12" font-style="italic" lengthAdjust="spacingAndGlyphs" textLength="71" x="513.5" y="188.0352">AbstractView</text><rect fill="#FFFFFF" height="17.0938" style="stroke: #000000; stroke-width: 1.0; stroke-dasharray: 2.0,2.0;" width="27" x="592.5" y="165.125"/><text fill="#000000" font-family="sans-serif" font-size="12" font-style="italic" lengthAdjust="spacingAndGlyphs" textLength="25" x="593.5" y="178.582">Item</text><line style="stroke: #A80036; stroke-width: 1.5;" x1="487.5" x2="615.5" y1="198.125" y2="198.125"/><line style="stroke: #A80036; stroke-width: 1.5;" x1="487.5" x2="615.5" y1="206.125" y2="206.125"/><ellipse cx="497.5" cy="218.543" fill="#84BE84" rx="3" ry="3" style="stroke: #038048; stroke-width: 1.0;"/><text fill="#000000" font-family="sans-serif" font-size="11" lengthAdjust="spacingAndGlyphs" textLength="100" x="505.5" y="221.5439">List&lt;Item&gt; getView()</text><ellipse cx="497.5" cy="232.3789" fill="#84BE84" rx="3" ry="3" style="stroke: #038048; stroke-width: 1.0;"/><text fill="#000000" font-family="sans-serif" font-size="11" lengthAdjust="spacingAndGlyphs" textLength="97" x="505.5" y="235.3799">long getResultSize()</text><rect fill="#FEFECE" filter="url(#f1)" height="87.5078" style="stroke: #A80036; stroke-width: 1.5;" width="141" x="392" y="322.125"/><ellipse cx="406" cy="337.125" fill="#ADD1B2" rx="10" ry="10" style="stroke: #A80036; stroke-width: 1.0;"/><path d="M408.5625,338.6094 L409.6875,338.9063 Q409.3281,340.2969 408.4063,341.0313 Q407.4844,341.7656 406.1406,341.7656 Q404.75,341.7656 403.875,341.2031 Q403,340.6406 402.5469,339.5703 Q402.0938,338.5 402.0938,337.2656 Q402.0938,335.9219 402.6094,334.9219 Q403.125,333.9219 404.0703,333.4063 Q405.0156,332.8906 406.1563,332.8906 Q407.4375,332.8906 408.3203,333.5469 Q409.2031,334.2031 409.5469,335.3906 L408.4219,335.6563 Q408.125,334.7188 407.5547,334.2891 Q406.9844,333.8594 406.125,333.8594 Q405.1406,333.8594 404.4766,334.3359 Q403.8125,334.8125 403.5391,335.6094 Q403.2656,336.4063 403.2656,337.2656 Q403.2656,338.3594 403.5859,339.1719 Q403.9063,339.9844 404.5781,340.3906 Q405.25,340.7969 406.0469,340.7969 Q407,340.7969 407.6641,340.25 Q408.3281,339.7031 408.5625,338.6094 Z "/><text fill="#000000" font-family="sans-serif" font-size="12" lengthAdjust="spacingAndGlyphs" textLength="82" x="419" y="342.0352">PaginatedView</text><rect fill="#FFFFFF" height="17.0938" style="stroke: #000000; stroke-width: 1.0; stroke-dasharray: 2.0,2.0;" width="27" x="509" y="319.125"/><text fill="#000000" font-family="sans-serif" font-size="12" font-style="italic" lengthAdjust="spacingAndGlyphs" textLength="25" x="510" y="332.582">Item</text><line style="stroke: #A80036; stroke-width: 1.5;" x1="393" x2="532" y1="352.125" y2="352.125"/><line style="stroke: #A80036; stroke-width: 1.5;" x1="393" x2="532" y1="360.125" y2="360.125"/><ellipse cx="403" cy="372.543" fill="#84BE84" rx="3" ry="3" style="stroke: #038048; stroke-width: 1.0;"/><text fill="#000000" font-family="sans-serif" font-size="11" lengthAdjust="spacingAndGlyphs" textLength="82" x="411" y="375.5439">int getPageSize()</text><ellipse cx="403" cy="386.3789" fill="#84BE84" rx="3" ry="3" style="stroke: #038048; stroke-width: 1.0;"/><text fill="#000000" font-family="sans-serif" font-size="11" lengthAdjust="spacingAndGlyphs" textLength="96" x="411" y="389.3799">long getPageIndex()</text><ellipse cx="403" cy="400.2148" fill="#84BE84" rx="3" ry="3" style="stroke: #038048; stroke-width: 1.0;"/><text fill="#000000" font-family="sans-serif" font-size="11" lengthAdjust="spacingAndGlyphs" textLength="104" x="411" y="403.2158">long getPagesCount()</text><rect fill="#FEFECE" filter="url(#f1)" height="115.1797" style="stroke: #A80036; stroke-width: 1.5;" width="186" x="402.5" y="490.125"/><ellipse cx="477" cy="505.125" fill="#ADD1B2" rx="10" ry="10" style="stroke: #A80036; stroke-width: 1.0;"/><path d="M479.5625,506.6094 L480.6875,506.9063 Q480.3281,508.2969 479.4063,509.0313 Q478.4844,509.7656 477.1406,509.7656 Q475.75,509.7656 474.875,509.2031 Q474,508.6406 473.5469,507.5703 Q473.0938,506.5 473.0938,505.2656 Q473.0938,503.9219 473.6094,502.9219 Q474.125,501.9219 475.0703,501.4063 Q476.0156,500.8906 477.1563,500.8906 Q478.4375,500.8906 479.3203,501.5469 Q480.2031,502.2031 480.5469,503.3906 L479.4219,503.6563 Q479.125,502.7188 478.5547,502.2891 Q477.9844,501.8594 477.125,501.8594 Q476.1406,501.8594 475.4766,502.3359 Q474.8125,502.8125 474.5391,503.6094 Q474.2656,504.4063 474.2656,505.2656 Q474.2656,506.3594 474.5859,507.1719 Q474.9063,507.9844 475.5781,508.3906 Q476.25,508.7969 477.0469,508.7969 Q478,508.7969 478.6641,508.25 Q479.3281,507.7031 479.5625,506.6094 Z "/><text fill="#000000" font-family="sans-serif" font-size="12" lengthAdjust="spacingAndGlyphs" textLength="29" x="496" y="510.0352">Page</text><line style="stroke: #A80036; stroke-width: 1.5;" x1="403.5" x2="587.5" y1="520.125" y2="520.125"/><line style="stroke: #A80036; stroke-width: 1.5;" x1="403.5" x2="587.5" y1="528.125" y2="528.125"/><ellipse cx="413.5" cy="540.543" fill="#84BE84" rx="3" ry="3" style="stroke: #038048; stroke-width: 1.0;"/><text fill="#000000" font-family="sans-serif" font-size="11" lengthAdjust="spacingAndGlyphs" textLength="63" x="421.5" y="543.5439">int getIndex()</text><ellipse cx="413.5" cy="554.3789" fill="#84BE84" rx="3" ry="3" style="stroke: #038048; stroke-width: 1.0;"/><text fill="#000000" font-family="sans-serif" font-size="11" lengthAdjust="spacingAndGlyphs" textLength="79" x="421.5" y="557.3799">int getCapacity()</text><ellipse cx="413.5" cy="568.2148" fill="#84BE84" rx="3" ry="3" style="stroke: #038048; stroke-width: 1.0;"/><text fill="#000000" font-family="sans-serif" font-size="11" lengthAdjust="spacingAndGlyphs" textLength="129" x="421.5" y="571.2158">int getNumberOfElements()</text><ellipse cx="413.5" cy="582.0508" fill="#84BE84" rx="3" ry="3" style="stroke: #038048; stroke-width: 1.0;"/><text fill="#000000" font-family="sans-serif" font-size="11" lengthAdjust="spacingAndGlyphs" textLength="161" x="421.5" y="585.0518">long getTotalNumberOfElements()</text><ellipse cx="413.5" cy="595.8867" fill="#84BE84" rx="3" ry="3" style="stroke: #038048; stroke-width: 1.0;"/><text fill="#000000" font-family="sans-serif" font-size="11" lengthAdjust="spacingAndGlyphs" textLength="56" x="421.5" y="598.8877">Page next()</text><rect fill="#FEFECE" filter="url(#f1)" height="73.6719" style="stroke: #A80036; stroke-width: 1.5;" width="135" x="573" y="329.125"/><ellipse cx="587" cy="344.125" fill="#ADD1B2" rx="10" ry="10" style="stroke: #A80036; stroke-width: 1.0;"/><path d="M589.5625,345.6094 L590.6875,345.9063 Q590.3281,347.2969 589.4063,348.0313 Q588.4844,348.7656 587.1406,348.7656 Q585.75,348.7656 584.875,348.2031 Q584,347.6406 583.5469,346.5703 Q583.0938,345.5 583.0938,344.2656 Q583.0938,342.9219 583.6094,341.9219 Q584.125,340.9219 585.0703,340.4063 Q586.0156,339.8906 587.1563,339.8906 Q588.4375,339.8906 589.3203,340.5469 Q590.2031,341.2031 590.5469,342.3906 L589.4219,342.6563 Q589.125,341.7188 588.5547,341.2891 Q587.9844,340.8594 587.125,340.8594 Q586.1406,340.8594 585.4766,341.3359 Q584.8125,341.8125 584.5391,342.6094 Q584.2656,343.4063 584.2656,344.2656 Q584.2656,345.3594 584.5859,346.1719 Q584.9063,346.9844 585.5781,347.3906 Q586.25,347.7969 587.0469,347.7969 Q588,347.7969 588.6641,347.25 Q589.3281,346.7031 589.5625,345.6094 Z "/><text fill="#000000" font-family="sans-serif" font-size="12" lengthAdjust="spacingAndGlyphs" textLength="76" x="600" y="349.0352">ChunkedView</text><rect fill="#FFFFFF" height="17.0938" style="stroke: #000000; stroke-width: 1.0; stroke-dasharray: 2.0,2.0;" width="27" x="684" y="326.125"/><text fill="#000000" font-family="sans-serif" font-size="12" font-style="italic" lengthAdjust="spacingAndGlyphs" textLength="25" x="685" y="339.582">Item</text><line style="stroke: #A80036; stroke-width: 1.5;" x1="574" x2="707" y1="359.125" y2="359.125"/><line style="stroke: #A80036; stroke-width: 1.5;" x1="574" x2="707" y1="367.125" y2="367.125"/><ellipse cx="584" cy="379.543" fill="#84BE84" rx="3" ry="3" style="stroke: #038048; stroke-width: 1.0;"/><text fill="#000000" font-family="sans-serif" font-size="11" lengthAdjust="spacingAndGlyphs" textLength="107" x="592" y="382.5439">long getChunkOffset()</text><ellipse cx="584" cy="393.3789" fill="#84BE84" rx="3" ry="3" style="stroke: #038048; stroke-width: 1.0;"/><text fill="#000000" font-family="sans-serif" font-size="11" lengthAdjust="spacingAndGlyphs" textLength="88" x="592" y="396.3799">int getChunkSize()</text><path d="M162.5,86.337 C162.5,111.566 162.5,148.999 162.5,174.864 " fill="none" style="stroke: #A80036; stroke-width: 1.0;"/><polygon fill="#A80036" points="162.5,81.147,158.5,90.147,162.5,86.147,166.5,90.147,162.5,81.147" style="stroke: #A80036; stroke-width: 1.0;"/><path d="M162.5,240.461 C162.5,268.918 162.5,308.928 162.5,335.878 " fill="none" style="stroke: #A80036; stroke-width: 1.0;"/><polygon fill="#A80036" points="162.5,235.288,158.5,244.288,162.5,240.288,166.5,244.288,162.5,235.288" style="stroke: #A80036; stroke-width: 1.0;"/><path d="M551.5,108.652 C551.5,128.084 551.5,149.972 551.5,167.883 " fill="none" style="stroke: #A80036; stroke-width: 1.0; stroke-dasharray: 7.0,7.0;"/><polygon fill="none" points="544.5,108.468,551.5,88.468,558.5,108.468,544.5,108.468" style="stroke: #A80036; stroke-width: 1.0;"/><path d="M521.416,259.87 C510.118,280.055 497.43,302.723 486.73,321.838 " fill="none" style="stroke: #A80036; stroke-width: 1.0; stroke-dasharray: 7.0,7.0;"/><polygon fill="none" points="515.428,256.237,531.305,242.205,527.644,263.076,515.428,256.237" style="stroke: #A80036; stroke-width: 1.0;"/><path d="M581.641,259.972 C594.355,282.687 608.822,308.531 620.231,328.913 " fill="none" style="stroke: #A80036; stroke-width: 1.0; stroke-dasharray: 7.0,7.0;"/><polygon fill="none" points="575.356,263.076,571.695,242.205,587.572,256.237,575.356,263.076" style="stroke: #A80036; stroke-width: 1.0;"/></g></svg>